<svg xmlns="http://www.w3.org/2000/svg" width="201.656" height="29.813" viewBox="0 0 201.656 29.813">
    <path
        d="M-97.3-5.7a13.974,13.974,0,0,0-.844,4.766q0,3.391,1.758,4.836a8.138,8.138,0,0,0,5.258,1.445,13.794,13.794,0,0,0,2.742-.273A11.219,11.219,0,0,0-85.945,4.3,5.742,5.742,0,0,0-84.2,3.133a2.053,2.053,0,0,0,.648-1.461A1.447,1.447,0,0,0-84.2.492,3.134,3.134,0,0,0-86.117,0h-1.922a.844.844,0,0,1-.687-.281,1.626,1.626,0,0,1-.328-.687L-89.4-2.406q-.094-.406.359-.406H-79.6V0h-1.859a3.9,3.9,0,0,1,.375,1.047,4.872,4.872,0,0,1,.063.734,4.787,4.787,0,0,1-1.266,3.25A8.4,8.4,0,0,1-85.82,7.289a15.546,15.546,0,0,1-5.3.82q-4.641,0-7.172-2.266t-2.531-6.8a17.026,17.026,0,0,1,.281-2.883,12.2,12.2,0,0,1,.828-2.852Zm23.141,3.469A5.042,5.042,0,0,1-76.086-.57,7.23,7.23,0,0,1-79.242,0h-.984V-2.812h1.016a4.265,4.265,0,0,0,2.961-.82,3.257,3.257,0,0,0,.883-2.445V-21.344h2.641V-6.078a3.7,3.7,0,0,0,.7,2.445,3,3,0,0,0,2.4.82h.5V0H-69.6a5.645,5.645,0,0,1-2.734-.57A5.669,5.669,0,0,1-74.164-2.234Zm12.5-1.031Q-56.3-12.3-51.086-12.3a6.282,6.282,0,0,1,3.1.742,5.451,5.451,0,0,1,2.094,2.031,5.672,5.672,0,0,1,.758,2.93Q-45.164,0-56.383,0h-.8a16.133,16.133,0,0,1-4.68-.547A4.272,4.272,0,0,1-64.32-2.234,5.559,5.559,0,0,1-66.227-.547,6.418,6.418,0,0,1-69.133,0h-.625l.016-2.812h.609A3.7,3.7,0,0,0-66.352-3.6a3.626,3.626,0,0,0,.7-2.461q0-.7-.047-1.555t-.078-1.57l2.563-.312.281,3.859Q-62.773-3.562-61.664-3.266Zm5.219.438q8.531,0,8.531-3.625a2.934,2.934,0,0,0-.844-2.141,2.95,2.95,0,0,0-2.2-.859,5.849,5.849,0,0,0-3.75,1.7,23.186,23.186,0,0,0-4.047,4.945Zm15.156-18.516h2.641V-.016h-2.641ZM-34.8-6.437A5.345,5.345,0,0,1-32.852-10.5a15.878,15.878,0,0,1,5.969-3l-.109-.7,2.484-.516,1.281,9.2a3.259,3.259,0,0,0,.914,1.992,2.8,2.8,0,0,0,2.023.711h.484V0h-.547a5.382,5.382,0,0,1-3.4-.961A4.661,4.661,0,0,1-25.383-3.7,6.318,6.318,0,0,1-29.6-2.062a7.153,7.153,0,0,1-2.609-.461A4.115,4.115,0,0,1-34.1-3.953,4.125,4.125,0,0,1-34.8-6.437Zm8.328-4.547a17.105,17.105,0,0,0-4.187,2.07,2.92,2.92,0,0,0-1.422,2.289q0,1.938,2.391,1.938a4.518,4.518,0,0,0,1.719-.344,3.732,3.732,0,0,0,1.406-.977,2.214,2.214,0,0,0,.563-1.523,6.078,6.078,0,0,0-.062-.891ZM-.68-6a8.834,8.834,0,0,0-1.406.273,10.189,10.189,0,0,0-1.75.68,1.866,1.866,0,0,0,1.1,1.711,7.489,7.489,0,0,0,3.2.523H1.3V0H.4a8.7,8.7,0,0,1-4.43-.93,3.859,3.859,0,0,1-1.82-3.023,51.5,51.5,0,0,1-5.922,2.781A16.7,16.7,0,0,1-17.93,0h-2.5V-2.812h2.547A15.3,15.3,0,0,0-14.1-3.258a21.113,21.113,0,0,0,3.563-1.273Q-8.727-5.359-6.523-6.5L-5.3-7.141a8.226,8.226,0,0,1-.875-.352q-.531-.242-2.016-.836Q-9.773-8.969-10.8-9.344a5.082,5.082,0,0,0-1.578-.375,3.247,3.247,0,0,0-1.727.516,5.238,5.238,0,0,0-1.414,1.266l-.422.547L-18.3-8.562l.234-.406a7.973,7.973,0,0,1,2.461-2.57,5.823,5.823,0,0,1,3.242-.961,6.65,6.65,0,0,1,2.172.414A23.548,23.548,0,0,1-7.633-11,34.4,34.4,0,0,0-3.6-9.273a11.478,11.478,0,0,0,2.953.617ZM6.492-18.234,8.773-20.5l2.281,2.266L8.773-15.953Zm5.344,15.2a11.68,11.68,0,0,0,1.711.18q.977.039,1.477.039h1.469V0H15.055a21.849,21.849,0,0,1-2.812-.2A10.6,10.6,0,0,1,9.008-1.234a10.374,10.374,0,0,1-3.3,1.047A24.454,24.454,0,0,1,2.773,0H.68V-2.812H2.773q.625,0,1.68-.047a13.563,13.563,0,0,0,1.82-.187A14.526,14.526,0,0,1,4.367-5.328a4.337,4.337,0,0,1-.7-2.422,4.433,4.433,0,0,1,.43-1.781,7.635,7.635,0,0,1,1.172-1.844,6.584,6.584,0,0,1,1.7-1.437,3.945,3.945,0,0,1,2.023-.562,4.526,4.526,0,0,1,2.117.516,6.28,6.28,0,0,1,1.75,1.344,7.054,7.054,0,0,1,1.2,1.758,4.167,4.167,0,0,1,.438,1.773,4.874,4.874,0,0,1-.719,2.555A12.392,12.392,0,0,1,11.836-3.031ZM8.977-10.641a1.863,1.863,0,0,0-1.133.531A5.716,5.716,0,0,0,6.75-8.883a2.312,2.312,0,0,0-.461,1.227,2.285,2.285,0,0,0,.461,1.2A9.023,9.023,0,0,0,7.859-5.109a9.455,9.455,0,0,0,1.2,1.047A7.485,7.485,0,0,0,10.3-5.125a8.481,8.481,0,0,0,1.1-1.4,2.489,2.489,0,0,0,.453-1.258A2.216,2.216,0,0,0,11.406-8.9,5.188,5.188,0,0,0,10.3-10.109,2.118,2.118,0,0,0,8.977-10.641ZM23.961-3.266Q29.32-12.3,34.539-12.3a6.282,6.282,0,0,1,3.1.742,5.451,5.451,0,0,1,2.094,2.031,5.672,5.672,0,0,1,.758,2.93Q40.461,0,29.242,0h-.8a16.133,16.133,0,0,1-4.68-.547A4.272,4.272,0,0,1,21.3-2.234,5.56,5.56,0,0,1,19.4-.547,6.418,6.418,0,0,1,16.492,0h-.625l.016-2.812h.609A3.7,3.7,0,0,0,19.273-3.6a3.626,3.626,0,0,0,.7-2.461q0-.7-.047-1.555t-.078-1.57L22.414-9.5,22.7-5.641Q22.852-3.562,23.961-3.266Zm5.219.438q8.531,0,8.531-3.625a2.934,2.934,0,0,0-.844-2.141,2.95,2.95,0,0,0-2.2-.859,5.849,5.849,0,0,0-3.75,1.7,23.186,23.186,0,0,0-4.047,4.945ZM43.555-6.437A5.345,5.345,0,0,1,45.508-10.5a15.878,15.878,0,0,1,5.969-3l-.109-.7,2.484-.516,1.281,9.2a3.259,3.259,0,0,0,.914,1.992,2.8,2.8,0,0,0,2.023.711h.484V0h-.547a5.382,5.382,0,0,1-3.4-.961A4.661,4.661,0,0,1,52.977-3.7a6.318,6.318,0,0,1-4.219,1.641,7.153,7.153,0,0,1-2.609-.461,4.115,4.115,0,0,1-1.891-1.43A4.125,4.125,0,0,1,43.555-6.437Zm8.328-4.547A17.105,17.105,0,0,0,47.7-8.914a2.92,2.92,0,0,0-1.422,2.289q0,1.938,2.391,1.938a4.518,4.518,0,0,0,1.719-.344,3.732,3.732,0,0,0,1.406-.977,2.214,2.214,0,0,0,.563-1.523,6.078,6.078,0,0,0-.062-.891ZM65.961-6.5a6.865,6.865,0,0,1-1.547,4.82A5.983,5.983,0,0,1,59.789,0H57.93V-2.812h1.859a3.651,3.651,0,0,0,2.656-.836,3.851,3.851,0,0,0,.844-2.8,16.908,16.908,0,0,0-.156-2.133,22.12,22.12,0,0,0-.422-2.32l2.563-.625A15.849,15.849,0,0,1,65.8-8.977,20.41,20.41,0,0,1,65.961-6.5Zm-6.8,11.234,2.281-2.266,2.281,2.266L61.445,7.016ZM77.055-.391a7.923,7.923,0,0,1-1.289.281A9.178,9.178,0,0,1,74.492,0q-5.469,0-5.469-4.625a8.659,8.659,0,0,1,.555-3.039,5.91,5.91,0,0,1,1.7-2.477,4.3,4.3,0,0,1,2.9-.984A4.243,4.243,0,0,1,77.313-9.9a7.411,7.411,0,0,1,1.813,3.18,14.281,14.281,0,0,1,.586,4.125,10.849,10.849,0,0,1-2.4,7.219,11.962,11.962,0,0,1-7.2,3.781L69.18,6a11.541,11.541,0,0,0,5.453-2.383A6.644,6.644,0,0,0,77.055-.391Zm.063-2.719q-.328-5.25-3.062-5.25a1.845,1.845,0,0,0-1.492.641,3.643,3.643,0,0,0-.75,1.492A6.411,6.411,0,0,0,71.6-4.7a1.624,1.624,0,0,0,.727,1.516,4.468,4.468,0,0,0,2.242.438,9.751,9.751,0,0,0,1.266-.086A8.121,8.121,0,0,0,77.117-3.109ZM90.3-.812a10.246,10.246,0,0,1-1.086,3.93,9.58,9.58,0,0,1-2.781,3.3,11.829,11.829,0,0,1-4.68,2.055L80.617,6.156a9.656,9.656,0,0,0,5.477-3.023,7.421,7.421,0,0,0,1.648-4.727,14.216,14.216,0,0,0-.289-2.789,14.991,14.991,0,0,0-.93-2.945l2.531-.906.969,3.156a3.68,3.68,0,0,0,1.055,1.742,2.693,2.693,0,0,0,1.742.523h.609V0h-.437a4.794,4.794,0,0,1-1.648-.25A3.353,3.353,0,0,1,90.3-.812ZM100.836-6.5a6.865,6.865,0,0,1-1.547,4.82A5.983,5.983,0,0,1,94.664,0H92.8V-2.812h1.859a3.651,3.651,0,0,0,2.656-.836,3.851,3.851,0,0,0,.844-2.8,16.908,16.908,0,0,0-.156-2.133,22.118,22.118,0,0,0-.422-2.32l2.563-.625a15.849,15.849,0,0,1,.523,2.555A20.41,20.41,0,0,1,100.836-6.5Zm-6.8,11.234L96.32,2.469,98.6,4.734,96.32,7.016Z"
        transform="translate(100.82 21.344)" preserve--fill="#222" /></svg>