<svg xmlns="http://www.w3.org/2000/svg" width="567" height="88.788" viewBox="0 0 567 88.788">
    <g transform="translate(0.014 9.771)">
        <g transform="translate(-0.014 -9.771)" preserve--fill="#222">
            <path
                d="M257.156,68.208l19.381-23.327L258.069,22.658l-.4-.534a5.229,5.229,0,1,1,8.339-6.305L290.13,44.881,266.011,73.787a5.289,5.289,0,0,1-4.394,2.4,5.176,5.176,0,0,1-4.41-7.873Z"
                transform="translate(257.42 11.549)" opacity="0.55" />
            <path
                d="M292.038,12.85a5.307,5.307,0,0,0-4.393,2.327L273.38,32.4l6.891,8.288L296.1,21.569a5.17,5.17,0,0,0,1.24-3.359,5.307,5.307,0,0,0-5.307-5.357Z"
                transform="translate(269.656 10.985)" />
            <path
                d="M107.939,13.581h-2.067A30.063,30.063,0,0,0,83.8,22.7,28.96,28.96,0,0,0,75,43.937v2.084a29.012,29.012,0,0,0,8.855,21.259,30.114,30.114,0,0,0,22.017,9.045,36.592,36.592,0,0,0,14.3-2.481,5.169,5.169,0,0,0,2.877-2.687,4.41,4.41,0,0,0-.155-3.842,5.444,5.444,0,0,0-3.2-2.636,6.1,6.1,0,0,0-4.238.241,26.152,26.152,0,0,1-9.578,1.43A18.727,18.727,0,0,1,92.088,60.6a19.8,19.8,0,0,1-5.993-14.538V43.937a19.812,19.812,0,0,1,6-14.541,18.8,18.8,0,0,1,13.782-5.754h2.067A19.071,19.071,0,0,1,121.722,29.4a19.812,19.812,0,0,1,6,14.541v27.41a4.807,4.807,0,0,0,1.585,3.6,5.943,5.943,0,0,0,4,1.447,5.823,5.823,0,0,0,3.93-1.447,4.755,4.755,0,0,0,1.585-3.6V43.937a28.96,28.96,0,0,0-8.855-21.242,30.063,30.063,0,0,0-22.017-9.113Z"
                transform="translate(112.482 11.511)" />
            <path
                d="M107.939,66.7h-2.067A30.063,30.063,0,0,1,83.8,57.589,28.959,28.959,0,0,1,75,36.348V34.263A29.011,29.011,0,0,1,83.852,13,30.114,30.114,0,0,1,105.869,3.96a36.592,36.592,0,0,1,14.3,2.481,5.168,5.168,0,0,1,2.877,2.687,4.41,4.41,0,0,1-.155,3.842,5.444,5.444,0,0,1-3.2,2.636,6.1,6.1,0,0,1-4.238-.241,26.153,26.153,0,0,0-9.578-1.43,18.727,18.727,0,0,0-13.782,5.754,19.8,19.8,0,0,0-5.993,14.538v2.121a19.811,19.811,0,0,0,6,14.54,18.8,18.8,0,0,0,13.782,5.754h2.067a19.071,19.071,0,0,0,13.782-5.754,19.811,19.811,0,0,0,6-14.54v-52.5a4.807,4.807,0,0,1,1.585-3.6,5.944,5.944,0,0,1,4-1.447,5.823,5.823,0,0,1,3.93,1.447,4.755,4.755,0,0,1,1.585,3.6v52.5a28.96,28.96,0,0,1-8.855,21.242A30.063,30.063,0,0,1,107.941,66.7Z"
                transform="translate(186.433 21.198)" />
            <path
                d="M263.726,13.58h-1.6q-11.026,0-18.453,9.578l-1.12,1.6-1.12-1.6q-7.443-9.6-18.38-9.578h-1.723q-10.923,0-18.365,9.578a33.044,33.044,0,0,0-6.719,20.777v27.41a4.772,4.772,0,0,0,1.6,3.6,5.909,5.909,0,0,0,4,1.447,5.634,5.634,0,0,0,3.911-1.447,4.772,4.772,0,0,0,1.6-3.6V43.936a23.687,23.687,0,0,1,4.789-15.023c2.722-3.445,5.771-5.272,9.183-5.272h1.723q5.169,0,9.183,5.272a23.757,23.757,0,0,1,4.72,15.023v27.41a4.669,4.669,0,0,0,1.723,3.6,6.03,6.03,0,0,0,7.838,0,4.669,4.669,0,0,0,1.723-3.6V43.936a23.843,23.843,0,0,1,4.72-15.023q4.083-5.272,9.269-5.272h1.6q5.168,0,9.183,5.272a23.706,23.706,0,0,1,4.808,15.023v27.41a4.754,4.754,0,0,0,1.585,3.6,5.823,5.823,0,0,0,3.928,1.447,5.944,5.944,0,0,0,4-1.447,4.824,4.824,0,0,0,1.6-3.6V43.936a33.044,33.044,0,0,0-6.719-20.777Q274.665,13.58,263.726,13.58Z"
                transform="translate(-111.121 11.513)" />
            <path
                d="M263.726,13.58h-1.6q-11.026,0-18.453,9.578l-1.12,1.6-1.12-1.6q-7.443-9.6-18.38-9.578h-1.723q-10.923,0-18.365,9.578a33.044,33.044,0,0,0-6.719,20.777v27.41a4.772,4.772,0,0,0,1.6,3.6,5.909,5.909,0,0,0,4,1.447,5.634,5.634,0,0,0,3.911-1.447,4.772,4.772,0,0,0,1.6-3.6V43.936a23.687,23.687,0,0,1,4.789-15.023c2.722-3.445,5.771-5.272,9.183-5.272h1.723q5.169,0,9.183,5.272a23.757,23.757,0,0,1,4.72,15.023v27.41a4.669,4.669,0,0,0,1.723,3.6,6.03,6.03,0,0,0,7.838,0,4.669,4.669,0,0,0,1.723-3.6V43.936a23.843,23.843,0,0,1,4.72-15.023q4.083-5.272,9.269-5.272h1.6q5.168,0,9.183,5.272a23.706,23.706,0,0,1,4.808,15.023v27.41a4.754,4.754,0,0,0,1.585,3.6,5.823,5.823,0,0,0,3.928,1.447,5.944,5.944,0,0,0,4-1.447,4.824,4.824,0,0,0,1.6-3.6V43.936a33.044,33.044,0,0,0-6.719-20.777Q274.665,13.58,263.726,13.58Z"
                transform="translate(211.833 11.513)" />
            <path
                d="M19.942,12.29l.207,65.466h-9.3A12.059,12.059,0,0,1,.01,65.714V65.2a3.6,3.6,0,0,1,.172-1.585h0a12.369,12.369,0,0,1,.862-2.739Z"
                transform="translate(0.014 10.58)" opacity="0.55" />
            <path d="M28.664,42.8l6.185,12.835h-23Z" transform="translate(8.589 32.632)" />
            <path
                d="M62.909,62.037,11.57,21.209,15.98,9.942A13.874,13.874,0,0,1,37.739,2.931a14.248,14.248,0,0,1,4.772,7.012Z"
                transform="translate(8.386 1.678)" />
            <path
                d="M54.453,48.519A12.06,12.06,0,0,1,42.48,60.578H37.934L28.87,41.662,50.457,36.08,53.4,43.591a12.646,12.646,0,0,1,.866,2.774h0a3.6,3.6,0,0,1,.172,1.585C54.436,48.174,54.453,48.329,54.453,48.519Z"
                transform="translate(20.891 27.776)" opacity="0.55" />
            <path
                d="M185.2,13.582h-2.054A29.339,29.339,0,0,0,161.422,22.7a29.14,29.14,0,0,0-8.745,21.242v2.084a29.176,29.176,0,0,0,8.745,21.259,29.4,29.4,0,0,0,21.729,9.045,35.485,35.485,0,0,0,14.09-2.481,5.124,5.124,0,0,0,2.835-2.687,4.469,4.469,0,0,0-.153-3.842,5.383,5.383,0,0,0-3.157-2.636,5.878,5.878,0,0,0-4.159.241,25.59,25.59,0,0,1-9.456,1.43A18.353,18.353,0,0,1,169.57,60.6a19.945,19.945,0,0,1-5.908-14.54v-2.12A19.962,19.962,0,0,1,169.57,29.4a18.423,18.423,0,0,1,13.581-5.754H185.2A18.656,18.656,0,0,1,198.786,29.4a20.093,20.093,0,0,1,5.364,9.51H176.819a5.471,5.471,0,0,0-3.854,1.447,4.786,4.786,0,0,0-1.579,3.583,4.6,4.6,0,0,0,1.579,3.531,5.389,5.389,0,0,0,3.854,1.515H210.3a5.405,5.405,0,0,0,3.854-1.515,4.6,4.6,0,0,0,1.579-3.531A29.192,29.192,0,0,0,206.983,22.7a29.355,29.355,0,0,0-21.78-9.113Z"
                transform="translate(182.887 12.447)" />
        </g>
    </g>
</svg>