<svg xmlns="http://www.w3.org/2000/svg"><defs><clipPath id="0-5x-b"><rect width="104" height="48"/></clipPath><clipPath id="1-5x-b"><rect width="92" height="48"/></clipPath><clipPath id="1x-b"><rect width="40" height="48"/></clipPath><clipPath id="2x-b"><rect width="54" height="48"/></clipPath> <clipPath id="360p-b"> <rect width="113" height="48"/> </clipPath> <clipPath id="480p-b"><rect width="117" height="48"/></clipPath> <clipPath id="720p-b"> <rect width="111" height="48"/> </clipPath>  <clipPath id="empty-cart-a"> <rect width="50.324" height="44.23" fill="none"/> </clipPath> </defs><symbol viewBox="0 0 201.656 29.813" id="back-to-homepage"> <path d="M-97.3-5.7a13.974,13.974,0,0,0-.844,4.766q0,3.391,1.758,4.836a8.138,8.138,0,0,0,5.258,1.445,13.794,13.794,0,0,0,2.742-.273A11.219,11.219,0,0,0-85.945,4.3,5.742,5.742,0,0,0-84.2,3.133a2.053,2.053,0,0,0,.648-1.461A1.447,1.447,0,0,0-84.2.492,3.134,3.134,0,0,0-86.117,0h-1.922a.844.844,0,0,1-.687-.281,1.626,1.626,0,0,1-.328-.687L-89.4-2.406q-.094-.406.359-.406H-79.6V0h-1.859a3.9,3.9,0,0,1,.375,1.047,4.872,4.872,0,0,1,.063.734,4.787,4.787,0,0,1-1.266,3.25A8.4,8.4,0,0,1-85.82,7.289a15.546,15.546,0,0,1-5.3.82q-4.641,0-7.172-2.266t-2.531-6.8a17.026,17.026,0,0,1,.281-2.883,12.2,12.2,0,0,1,.828-2.852Zm23.141,3.469A5.042,5.042,0,0,1-76.086-.57,7.23,7.23,0,0,1-79.242,0h-.984V-2.812h1.016a4.265,4.265,0,0,0,2.961-.82,3.257,3.257,0,0,0,.883-2.445V-21.344h2.641V-6.078a3.7,3.7,0,0,0,.7,2.445,3,3,0,0,0,2.4.82h.5V0H-69.6a5.645,5.645,0,0,1-2.734-.57A5.669,5.669,0,0,1-74.164-2.234Zm12.5-1.031Q-56.3-12.3-51.086-12.3a6.282,6.282,0,0,1,3.1.742,5.451,5.451,0,0,1,2.094,2.031,5.672,5.672,0,0,1,.758,2.93Q-45.164,0-56.383,0h-.8a16.133,16.133,0,0,1-4.68-.547A4.272,4.272,0,0,1-64.32-2.234,5.559,5.559,0,0,1-66.227-.547,6.418,6.418,0,0,1-69.133,0h-.625l.016-2.812h.609A3.7,3.7,0,0,0-66.352-3.6a3.626,3.626,0,0,0,.7-2.461q0-.7-.047-1.555t-.078-1.57l2.563-.312.281,3.859Q-62.773-3.562-61.664-3.266Zm5.219.438q8.531,0,8.531-3.625a2.934,2.934,0,0,0-.844-2.141,2.95,2.95,0,0,0-2.2-.859,5.849,5.849,0,0,0-3.75,1.7,23.186,23.186,0,0,0-4.047,4.945Zm15.156-18.516h2.641V-.016h-2.641ZM-34.8-6.437A5.345,5.345,0,0,1-32.852-10.5a15.878,15.878,0,0,1,5.969-3l-.109-.7,2.484-.516,1.281,9.2a3.259,3.259,0,0,0,.914,1.992,2.8,2.8,0,0,0,2.023.711h.484V0h-.547a5.382,5.382,0,0,1-3.4-.961A4.661,4.661,0,0,1-25.383-3.7,6.318,6.318,0,0,1-29.6-2.062a7.153,7.153,0,0,1-2.609-.461A4.115,4.115,0,0,1-34.1-3.953,4.125,4.125,0,0,1-34.8-6.437Zm8.328-4.547a17.105,17.105,0,0,0-4.187,2.07,2.92,2.92,0,0,0-1.422,2.289q0,1.938,2.391,1.938a4.518,4.518,0,0,0,1.719-.344,3.732,3.732,0,0,0,1.406-.977,2.214,2.214,0,0,0,.563-1.523,6.078,6.078,0,0,0-.062-.891ZM-.68-6a8.834,8.834,0,0,0-1.406.273,10.189,10.189,0,0,0-1.75.68,1.866,1.866,0,0,0,1.1,1.711,7.489,7.489,0,0,0,3.2.523H1.3V0H.4a8.7,8.7,0,0,1-4.43-.93,3.859,3.859,0,0,1-1.82-3.023,51.5,51.5,0,0,1-5.922,2.781A16.7,16.7,0,0,1-17.93,0h-2.5V-2.812h2.547A15.3,15.3,0,0,0-14.1-3.258a21.113,21.113,0,0,0,3.563-1.273Q-8.727-5.359-6.523-6.5L-5.3-7.141a8.226,8.226,0,0,1-.875-.352q-.531-.242-2.016-.836Q-9.773-8.969-10.8-9.344a5.082,5.082,0,0,0-1.578-.375,3.247,3.247,0,0,0-1.727.516,5.238,5.238,0,0,0-1.414,1.266l-.422.547L-18.3-8.562l.234-.406a7.973,7.973,0,0,1,2.461-2.57,5.823,5.823,0,0,1,3.242-.961,6.65,6.65,0,0,1,2.172.414A23.548,23.548,0,0,1-7.633-11,34.4,34.4,0,0,0-3.6-9.273a11.478,11.478,0,0,0,2.953.617ZM6.492-18.234,8.773-20.5l2.281,2.266L8.773-15.953Zm5.344,15.2a11.68,11.68,0,0,0,1.711.18q.977.039,1.477.039h1.469V0H15.055a21.849,21.849,0,0,1-2.812-.2A10.6,10.6,0,0,1,9.008-1.234a10.374,10.374,0,0,1-3.3,1.047A24.454,24.454,0,0,1,2.773,0H.68V-2.812H2.773q.625,0,1.68-.047a13.563,13.563,0,0,0,1.82-.187A14.526,14.526,0,0,1,4.367-5.328a4.337,4.337,0,0,1-.7-2.422,4.433,4.433,0,0,1,.43-1.781,7.635,7.635,0,0,1,1.172-1.844,6.584,6.584,0,0,1,1.7-1.437,3.945,3.945,0,0,1,2.023-.562,4.526,4.526,0,0,1,2.117.516,6.28,6.28,0,0,1,1.75,1.344,7.054,7.054,0,0,1,1.2,1.758,4.167,4.167,0,0,1,.438,1.773,4.874,4.874,0,0,1-.719,2.555A12.392,12.392,0,0,1,11.836-3.031ZM8.977-10.641a1.863,1.863,0,0,0-1.133.531A5.716,5.716,0,0,0,6.75-8.883a2.312,2.312,0,0,0-.461,1.227,2.285,2.285,0,0,0,.461,1.2A9.023,9.023,0,0,0,7.859-5.109a9.455,9.455,0,0,0,1.2,1.047A7.485,7.485,0,0,0,10.3-5.125a8.481,8.481,0,0,0,1.1-1.4,2.489,2.489,0,0,0,.453-1.258A2.216,2.216,0,0,0,11.406-8.9,5.188,5.188,0,0,0,10.3-10.109,2.118,2.118,0,0,0,8.977-10.641ZM23.961-3.266Q29.32-12.3,34.539-12.3a6.282,6.282,0,0,1,3.1.742,5.451,5.451,0,0,1,2.094,2.031,5.672,5.672,0,0,1,.758,2.93Q40.461,0,29.242,0h-.8a16.133,16.133,0,0,1-4.68-.547A4.272,4.272,0,0,1,21.3-2.234,5.56,5.56,0,0,1,19.4-.547,6.418,6.418,0,0,1,16.492,0h-.625l.016-2.812h.609A3.7,3.7,0,0,0,19.273-3.6a3.626,3.626,0,0,0,.7-2.461q0-.7-.047-1.555t-.078-1.57L22.414-9.5,22.7-5.641Q22.852-3.562,23.961-3.266Zm5.219.438q8.531,0,8.531-3.625a2.934,2.934,0,0,0-.844-2.141,2.95,2.95,0,0,0-2.2-.859,5.849,5.849,0,0,0-3.75,1.7,23.186,23.186,0,0,0-4.047,4.945ZM43.555-6.437A5.345,5.345,0,0,1,45.508-10.5a15.878,15.878,0,0,1,5.969-3l-.109-.7,2.484-.516,1.281,9.2a3.259,3.259,0,0,0,.914,1.992,2.8,2.8,0,0,0,2.023.711h.484V0h-.547a5.382,5.382,0,0,1-3.4-.961A4.661,4.661,0,0,1,52.977-3.7a6.318,6.318,0,0,1-4.219,1.641,7.153,7.153,0,0,1-2.609-.461,4.115,4.115,0,0,1-1.891-1.43A4.125,4.125,0,0,1,43.555-6.437Zm8.328-4.547A17.105,17.105,0,0,0,47.7-8.914a2.92,2.92,0,0,0-1.422,2.289q0,1.938,2.391,1.938a4.518,4.518,0,0,0,1.719-.344,3.732,3.732,0,0,0,1.406-.977,2.214,2.214,0,0,0,.563-1.523,6.078,6.078,0,0,0-.062-.891ZM65.961-6.5a6.865,6.865,0,0,1-1.547,4.82A5.983,5.983,0,0,1,59.789,0H57.93V-2.812h1.859a3.651,3.651,0,0,0,2.656-.836,3.851,3.851,0,0,0,.844-2.8,16.908,16.908,0,0,0-.156-2.133,22.12,22.12,0,0,0-.422-2.32l2.563-.625A15.849,15.849,0,0,1,65.8-8.977,20.41,20.41,0,0,1,65.961-6.5Zm-6.8,11.234,2.281-2.266,2.281,2.266L61.445,7.016ZM77.055-.391a7.923,7.923,0,0,1-1.289.281A9.178,9.178,0,0,1,74.492,0q-5.469,0-5.469-4.625a8.659,8.659,0,0,1,.555-3.039,5.91,5.91,0,0,1,1.7-2.477,4.3,4.3,0,0,1,2.9-.984A4.243,4.243,0,0,1,77.313-9.9a7.411,7.411,0,0,1,1.813,3.18,14.281,14.281,0,0,1,.586,4.125,10.849,10.849,0,0,1-2.4,7.219,11.962,11.962,0,0,1-7.2,3.781L69.18,6a11.541,11.541,0,0,0,5.453-2.383A6.644,6.644,0,0,0,77.055-.391Zm.063-2.719q-.328-5.25-3.062-5.25a1.845,1.845,0,0,0-1.492.641,3.643,3.643,0,0,0-.75,1.492A6.411,6.411,0,0,0,71.6-4.7a1.624,1.624,0,0,0,.727,1.516,4.468,4.468,0,0,0,2.242.438,9.751,9.751,0,0,0,1.266-.086A8.121,8.121,0,0,0,77.117-3.109ZM90.3-.812a10.246,10.246,0,0,1-1.086,3.93,9.58,9.58,0,0,1-2.781,3.3,11.829,11.829,0,0,1-4.68,2.055L80.617,6.156a9.656,9.656,0,0,0,5.477-3.023,7.421,7.421,0,0,0,1.648-4.727,14.216,14.216,0,0,0-.289-2.789,14.991,14.991,0,0,0-.93-2.945l2.531-.906.969,3.156a3.68,3.68,0,0,0,1.055,1.742,2.693,2.693,0,0,0,1.742.523h.609V0h-.437a4.794,4.794,0,0,1-1.648-.25A3.353,3.353,0,0,1,90.3-.812ZM100.836-6.5a6.865,6.865,0,0,1-1.547,4.82A5.983,5.983,0,0,1,94.664,0H92.8V-2.812h1.859a3.651,3.651,0,0,0,2.656-.836,3.851,3.851,0,0,0,.844-2.8,16.908,16.908,0,0,0-.156-2.133,22.118,22.118,0,0,0-.422-2.32l2.563-.625a15.849,15.849,0,0,1,.523,2.555A20.41,20.41,0,0,1,100.836-6.5Zm-6.8,11.234L96.32,2.469,98.6,4.734,96.32,7.016Z" transform="translate(100.82 21.344)" fill="#222"/></symbol><symbol viewBox="0 0 104 48" id="0-5x"><g id="0-5x-a" clip-path="url(#0-5x-b)"><path d="M-38.193-4.391A10.6,10.6,0,0,1-42.5-5.277a11.294,11.294,0,0,1-3.518-2.4,11.342,11.342,0,0,1-2.373-3.545,10.836,10.836,0,0,1-.873-4.323,10.739,10.739,0,0,1,.873-4.309,11.219,11.219,0,0,1,2.373-3.518A11.219,11.219,0,0,1-42.5-25.745a10.739,10.739,0,0,1,4.309-.873,10.836,10.836,0,0,1,4.323.873,11.342,11.342,0,0,1,3.545,2.373,11.294,11.294,0,0,1,2.4,3.518,10.6,10.6,0,0,1,.886,4.309,10.693,10.693,0,0,1-.886,4.323,11.416,11.416,0,0,1-2.4,3.545,11.416,11.416,0,0,1-3.545,2.4A10.693,10.693,0,0,1-38.193-4.391Zm0-15.627a4.246,4.246,0,0,0-1.732.355,4.574,4.574,0,0,0-1.4.955,4.53,4.53,0,0,0-.955,1.418,4.342,4.342,0,0,0-.355,1.745,4.44,4.44,0,0,0,.355,1.759,4.655,4.655,0,0,0,.955,1.445,4.458,4.458,0,0,0,1.4.968,4.246,4.246,0,0,0,1.732.355,4.44,4.44,0,0,0,1.759-.355,4.536,4.536,0,0,0,1.445-.968,4.728,4.728,0,0,0,.982-1.445,4.3,4.3,0,0,0,.368-1.759,4.2,4.2,0,0,0-.368-1.745,4.6,4.6,0,0,0-.982-1.418,4.655,4.655,0,0,0-1.445-.955A4.44,4.44,0,0,0-38.193-20.018Zm26.373-3.3H-7.13L-20.575,6.245H-25.32ZM10.734-41.836q.164.136,1.1.886t2.386,2.018q1.445,1.268,3.218,3.014t3.614,3.859Q22.9-29.945,24.63-27.5a41.639,41.639,0,0,1,3.1,5.1,30.611,30.611,0,0,1,2.182,5.5,20.664,20.664,0,0,1,.818,5.755,14.566,14.566,0,0,1-.355,3.368,12.415,12.415,0,0,1-.914,2.618A9.123,9.123,0,0,1,28.2-3.232a11.8,11.8,0,0,1-1.35,1.35,9.679,9.679,0,0,1-3.1,1.718,10.931,10.931,0,0,1-3.5.573,11.069,11.069,0,0,1-3.3-.491A8.969,8.969,0,0,1,13.98-1.691,9.858,9.858,0,0,1,11.048-.1,9.87,9.87,0,0,1,7.816.464,11.2,11.2,0,0,1,5.2.15,10.6,10.6,0,0,1,2.7-.791a10.462,10.462,0,0,1-2.2-1.555A9.642,9.642,0,0,1-1.239-4.5,11.372,11.372,0,0,1-2.261-6.668a15.1,15.1,0,0,1-.545-1.991,14.673,14.673,0,0,1-.232-1.6q-.055-.682-.055-1.009a21.179,21.179,0,0,1,.586-4.991A29.978,29.978,0,0,1-.966-20.932a32.713,32.713,0,0,1,2.2-4.282Q2.47-27.245,3.766-29t2.564-3.2Q7.6-33.655,8.607-34.718L6.589-36.382ZM22.543-7.145a5.161,5.161,0,0,0,1.241-1.623,5.224,5.224,0,0,0,.5-2.386,13.237,13.237,0,0,0-.477-3.477,21.876,21.876,0,0,0-1.282-3.491,27.516,27.516,0,0,0-1.9-3.409q-1.091-1.677-2.3-3.259t-2.482-3.041q-1.268-1.459-2.468-2.741-.873.982-1.964,2.25T9.207-25.541q-1.118,1.514-2.168,3.232A32.017,32.017,0,0,0,5.17-18.777a23.871,23.871,0,0,0-1.323,3.723,14.787,14.787,0,0,0-.5,3.791,5.478,5.478,0,0,0,.314,1.841,5.733,5.733,0,0,0,.859,1.6A4.212,4.212,0,0,0,5.825-6.7a3.326,3.326,0,0,0,1.636.423,5.407,5.407,0,0,0,1.255-.164A2.981,2.981,0,0,0,9.97-7.091a2.712,2.712,0,0,0,.777-1.227,5.5,5.5,0,0,0,.245-1.568,11.347,11.347,0,0,0-.1-1.664q-.109-.832-.245-1.514l6.6-1.255a1.361,1.361,0,0,0,.027.164q.027.136.068.491t.082.955q.041.6.1,1.582v.436q0,.464-.041,1.077a10.862,10.862,0,0,1-.177,1.323,2.7,2.7,0,0,0,1.241,1.473,3.681,3.681,0,0,0,1.732.436,3.81,3.81,0,0,0,1.186-.191A3.515,3.515,0,0,0,22.543-7.145ZM42.78-13.754l4.808-7.9h4.324l-7.082,10.7L52.135,0H47.849L42.854-8.107,37.841,0H33.536l7.305-10.958-7.082-10.7h4.286Z" transform="translate(51 41)"/></g></symbol><symbol viewBox="0 0 92 48" id="1-5x"><g id="1-5x-a" clip-path="url(#1-5x-b)"><path d="M-40.607.382v-2.4q0-.682.014-1.336t.041-1.2v.027q.027-1.309.041-2.714T-40.5-10.2q0-3-.068-6.218t-.4-6.7q-.327-3.477-1.009-7.2a65.378,65.378,0,0,0-1.936-7.732l6.355-2.073A76.736,76.736,0,0,1-35.384-31.6q.777,4.077,1.145,7.8t.45,7.132q.082,3.409.082,6.545,0,1.555-.014,2.986t-.041,2.741q-.027.545-.041,1.186t-.014,1.3V.382Zm22.527-23.7h4.691L-26.834,6.245H-31.58ZM4.475-41.836q.164.136,1.1.886t2.386,2.018q1.445,1.268,3.218,3.014T14.8-32.059q1.841,2.114,3.573,4.555a41.639,41.639,0,0,1,3.1,5.1,30.611,30.611,0,0,1,2.182,5.5,20.664,20.664,0,0,1,.818,5.755,14.566,14.566,0,0,1-.355,3.368A12.415,12.415,0,0,1,23.2-5.168a9.123,9.123,0,0,1-1.255,1.936,11.8,11.8,0,0,1-1.35,1.35A9.679,9.679,0,0,1,17.5-.164a10.931,10.931,0,0,1-3.5.573,11.069,11.069,0,0,1-3.3-.491A8.969,8.969,0,0,1,7.72-1.691,9.858,9.858,0,0,1,4.789-.1,9.87,9.87,0,0,1,1.557.464,11.2,11.2,0,0,1-1.061.15a10.6,10.6,0,0,1-2.5-.941,10.462,10.462,0,0,1-2.2-1.555A9.642,9.642,0,0,1-7.5-4.5,11.372,11.372,0,0,1-8.52-6.668a15.1,15.1,0,0,1-.545-1.991,14.673,14.673,0,0,1-.232-1.6q-.055-.682-.055-1.009a21.179,21.179,0,0,1,.586-4.991,29.977,29.977,0,0,1,1.541-4.677,32.713,32.713,0,0,1,2.2-4.282Q-3.789-27.245-2.493-29t2.564-3.2q1.268-1.445,2.277-2.509L.33-36.382ZM16.284-7.145a5.161,5.161,0,0,0,1.241-1.623,5.224,5.224,0,0,0,.5-2.386,13.237,13.237,0,0,0-.477-3.477,21.876,21.876,0,0,0-1.282-3.491,27.516,27.516,0,0,0-1.9-3.409q-1.091-1.677-2.3-3.259T9.589-27.832Q8.32-29.291,7.12-30.573q-.873.982-1.964,2.25T2.948-25.541Q1.83-24.027.78-22.309a32.017,32.017,0,0,0-1.868,3.532,23.871,23.871,0,0,0-1.323,3.723,14.787,14.787,0,0,0-.5,3.791A5.478,5.478,0,0,0-2.6-9.423a5.733,5.733,0,0,0,.859,1.6A4.212,4.212,0,0,0-.434-6.7,3.326,3.326,0,0,0,1.2-6.273a5.407,5.407,0,0,0,1.255-.164,2.981,2.981,0,0,0,1.255-.655,2.712,2.712,0,0,0,.777-1.227,5.5,5.5,0,0,0,.245-1.568,11.347,11.347,0,0,0-.1-1.664q-.109-.832-.245-1.514l6.6-1.255a1.361,1.361,0,0,0,.027.164q.027.136.068.491t.082.955q.041.6.1,1.582v.436q0,.464-.041,1.077a10.862,10.862,0,0,1-.177,1.323,2.7,2.7,0,0,0,1.241,1.473,3.681,3.681,0,0,0,1.732.436,3.81,3.81,0,0,0,1.186-.191A3.515,3.515,0,0,0,16.284-7.145ZM36.52-13.754l4.808-7.9h4.324l-7.082,10.7L45.876,0H41.59L36.6-8.107,31.582,0H27.277l7.305-10.958L27.5-21.655h4.286Z" transform="translate(45 41)"/></g></symbol><symbol viewBox="0 0 40 48" id="1x"><g id="1x-a" clip-path="url(#1x-b)"><path d="M-14.015.426v-2.68q0-.761.015-1.492t.046-1.34v.03q.03-1.462.046-3.03t.015-3.3q0-3.35-.076-6.944t-.442-7.477q-.365-3.883-1.127-8.04A73,73,0,0,0-17.7-42.484l7.1-2.315a85.688,85.688,0,0,1,2.421,9.517q.868,4.553,1.279,8.71t.5,7.964Q-6.31-14.8-6.31-11.3q0,1.736-.015,3.335T-6.37-4.9q-.03.609-.046,1.325t-.015,1.447V.426ZM9.4-15.431,14.792-24.3h4.851l-7.945,12L19.894,0H15.085l-5.6-9.1L3.856,0H-.974l8.2-12.295-7.945-12H4.086Z" transform="translate(19 47)"/></g></symbol><symbol viewBox="0 0 54 48" id="2x"><g id="2x-a" clip-path="url(#2x-b)"><path d="M1.6-41.952q.086.258.372,1.231t.573,2.334q.286,1.36.515,2.921a20.619,20.619,0,0,1,.229,2.993,12.465,12.465,0,0,1-.974,5.126A10.75,10.75,0,0,1-.2-23.754a10.069,10.069,0,0,1-3.508,2.1,11.839,11.839,0,0,1-3.937.687,12.686,12.686,0,0,1-3.565-.472,13.941,13.941,0,0,1-3.021-1.274q.258,2.491.4,4.954t.2,5.2q.057,2.735.072,5.913t-.014,7.1h-7.045v-6.93q0-3.379-.1-7.145t-.53-7.918q-.43-4.152-1.317-8.705a85.391,85.391,0,0,0-2.463-9.507l6.787-2.176,1.174,3.494q.143.43.472,1.36t.873,2.09a22.847,22.847,0,0,0,1.3,2.377,12.872,12.872,0,0,0,1.761,2.234,8.851,8.851,0,0,0,2.248,1.661,5.924,5.924,0,0,0,2.763.644,6.105,6.105,0,0,0,.988-.115,3.3,3.3,0,0,0,1.289-.558,3.781,3.781,0,0,0,1.131-1.332,5.022,5.022,0,0,0,.487-2.405A14.312,14.312,0,0,0-3.9-34.407q-.143-1.045-.358-2.033T-4.715-38.3q-.243-.873-.444-1.475ZM16.352-14.76l5.16-8.48h4.64l-7.6,11.48L26.392,0h-4.6l-5.36-8.7L11.052,0H6.432l7.84-11.76-7.6-11.48h4.6Z" transform="translate(26 47)"/></g></symbol><symbol viewBox="0 0 113 48" id="360p">  <g id="360p-a" clip-path="url(#360p-b)"> <path d="M-24.268-36.625q.2.875.437,1.925t.425,2.212q.187,1.163.312,2.4a24.736,24.736,0,0,1,.125,2.488,13.531,13.531,0,0,1-.45,3.525,8.5,8.5,0,0,1-1.413,2.95A6.9,6.9,0,0,1-27.293-19.1a7.973,7.973,0,0,1-3.6.75,9.442,9.442,0,0,1-1.612-.15,8.214,8.214,0,0,1-1.737-.513,8.876,8.876,0,0,1-1.738-.975,8.436,8.436,0,0,1-1.637-1.562,8.042,8.042,0,0,1-2.537,2.15,11.623,11.623,0,0,1-2.638,1h.025a4.73,4.73,0,0,1-.825.137q-.45.037-.9.038a7.975,7.975,0,0,1-1.15-.087,6.535,6.535,0,0,1-1.125-.263q.325,3.85.388,7.263t.063,6.213V.35h-6.2V-4.6q0-2.95-.062-6.625t-.425-7.663q-.362-3.987-1.1-8.05a47.947,47.947,0,0,0-2.088-7.787l5.875-1.95q.25.85.475,1.55t.425,1.425q.2.725.412,1.525t.462,1.85a16.013,16.013,0,0,0,.675,1.988,10.889,10.889,0,0,0,.987,1.888,5.763,5.763,0,0,0,1.275,1.4,2.5,2.5,0,0,0,1.562.55,2.485,2.485,0,0,0,1.075-.475,3.077,3.077,0,0,0,.875-1.15,7.642,7.642,0,0,0,.587-1.975,17.284,17.284,0,0,0,.212-2.95v-.987q0-.438-.012-.9t-.062-1.037q-.05-.575-.125-1.425l6.15-.55q.3,3.05.6,5.213a22.615,22.615,0,0,0,.725,3.525,4.573,4.573,0,0,0,1.088,1.987,2.361,2.361,0,0,0,1.688.625,1.848,1.848,0,0,0,1.45-.75,3.189,3.189,0,0,0,.625-2.1,17.974,17.974,0,0,0-.125-2.075q-.125-1.075-.3-2.075t-.375-1.85q-.2-.85-.375-1.4ZM6.107-24.5l-1.85,1.95A17.978,17.978,0,0,0,3.044-21.2Q2.182-20.175.957-18.587T-1.756-14.9q-1.487,2.1-3.05,4.625t-3.112,5.4q-1.55,2.875-2.9,6l-5.7-2.5q.925-2.125,2.05-4.213t2.325-4.05q1.2-1.963,2.388-3.763t2.212-3.35a16.742,16.742,0,0,1-2.187-.15,14.079,14.079,0,0,1-2.25-.488,10.847,10.847,0,0,1-2.125-.9,7.3,7.3,0,0,1-1.787-1.388,9.34,9.34,0,0,1-1.887-3.05,9.764,9.764,0,0,1-.612-3.425,10.739,10.739,0,0,1,.813-4.075,11,11,0,0,1,2.387-3.6,10.958,10.958,0,0,1,1.813-1.312,12.14,12.14,0,0,1,2.05-.925,19.6,19.6,0,0,1,2.425-.663q1.312-.275,2.913-.5l1.225,5.8a14.221,14.221,0,0,0-1.825.275,16.684,16.684,0,0,0-1.75.475,9.55,9.55,0,0,0-1.5.638,5.168,5.168,0,0,0-1.1.762,4.23,4.23,0,0,0-.875,1.213,4.724,4.724,0,0,0-.45,1.487,4.269,4.269,0,0,0-.05.65,5.418,5.418,0,0,0,.125,1.062,2.674,2.674,0,0,0,.65,1.213,3.234,3.234,0,0,0,1.325.8,4.785,4.785,0,0,0,1.7.275q.325,0,.675-.025a8.227,8.227,0,0,0,3.65-1.25,24.463,24.463,0,0,0,4.15-3.2l1.95-2.025ZM21.282-4.025a9.714,9.714,0,0,1-3.95-.813,10.353,10.353,0,0,1-3.225-2.2,10.4,10.4,0,0,1-2.175-3.25,9.933,9.933,0,0,1-.8-3.962,9.844,9.844,0,0,1,.8-3.95,10.284,10.284,0,0,1,2.175-3.225A10.284,10.284,0,0,1,17.332-23.6a9.844,9.844,0,0,1,3.95-.8,9.933,9.933,0,0,1,3.962.8,10.4,10.4,0,0,1,3.25,2.175,10.353,10.353,0,0,1,2.2,3.225,9.714,9.714,0,0,1,.813,3.95,9.8,9.8,0,0,1-.813,3.962,10.465,10.465,0,0,1-2.2,3.25,10.465,10.465,0,0,1-3.25,2.2A9.8,9.8,0,0,1,21.282-4.025Zm0-14.325a3.892,3.892,0,0,0-1.587.325,4.193,4.193,0,0,0-1.288.875,4.152,4.152,0,0,0-.875,1.3,3.98,3.98,0,0,0-.325,1.6,4.07,4.07,0,0,0,.325,1.613,4.267,4.267,0,0,0,.875,1.325,4.087,4.087,0,0,0,1.288.887,3.892,3.892,0,0,0,1.587.325,4.07,4.07,0,0,0,1.613-.325,4.158,4.158,0,0,0,1.325-.887,4.334,4.334,0,0,0,.9-1.325,3.94,3.94,0,0,0,.337-1.613,3.854,3.854,0,0,0-.337-1.6,4.22,4.22,0,0,0-.9-1.3,4.267,4.267,0,0,0-1.325-.875A4.07,4.07,0,0,0,21.282-18.35Zm34.057,8.023A12.618,12.618,0,0,1,53.13-2.564,7.076,7.076,0,0,1,47.157.382,7.779,7.779,0,0,1,41.1-2.055V8.127H37.484V-21.127h3.309l.182,2.345A7.413,7.413,0,0,1,47.1-21.527a7.2,7.2,0,0,1,6.018,2.873q2.218,2.873,2.218,7.982Zm-3.618-.418A9.352,9.352,0,0,0,50.2-16.382a4.89,4.89,0,0,0-4.173-2.073A5.31,5.31,0,0,0,41.1-15.545V-5.455a5.32,5.32,0,0,0,4.964,2.891,4.876,4.876,0,0,0,4.127-2.055Q51.72-6.673,51.72-10.745Z" transform="translate(57 39)"/> </g> </symbol><symbol viewBox="0 0 117 48" id="480p"><g id="480p-a" clip-path="url(#480p-b)"><path d="M-34.306-23.125q.7,0,1.375-.013t1.35-.062q.675-.05,1.412-.138t1.588-.237l1.4,5.625q-1.3.375-2.5.638t-2.475.425q-1.275.163-2.712.25t-3.238.087a35.885,35.885,0,0,1-5.287-.4,20.346,20.346,0,0,1-5.113-1.45q.15,2.025.263,3.7t.162,3.175q.05,1.5.075,2.925t.025,2.95q0,1.05-.012,2.138t-.013,2.362V.4h-6.2V-1.175q0-3.675-.038-6.875t-.175-6.05q-.138-2.85-.388-5.45t-.675-5.1q-.425-2.5-1.05-4.975t-1.5-5.075l6-1.9q.4,1.3.737,2.575t.663,2.6q.2.725.362,1.487t.362,1.513a6.947,6.947,0,0,0,1.412,2.887A6.315,6.315,0,0,0-46.406-23.9q-.15-.375-.325-.8a7.265,7.265,0,0,1-.312-.963,10.415,10.415,0,0,1-.225-1.187,10.932,10.932,0,0,1-.088-1.45,9.014,9.014,0,0,1,.888-4.062,9.532,9.532,0,0,1,2.325-3.025,10.043,10.043,0,0,1,3.25-1.875,10.9,10.9,0,0,1,3.637-.638,10.187,10.187,0,0,1,2.688.338,13.127,13.127,0,0,1,2.313.862,17.945,17.945,0,0,1,2.037,1.163q.962.638,1.888,1.237l-2.95,5.275q-.875-.625-1.65-1.112a12.22,12.22,0,0,0-1.5-.812,9.7,9.7,0,0,0-1.413-.512,6.156,6.156,0,0,0-1.413-.212h-.15a4.889,4.889,0,0,0-1.4.225,4.6,4.6,0,0,0-1.4.7,4.256,4.256,0,0,0-1.088,1.162,2.848,2.848,0,0,0-.437,1.563,4,4,0,0,0,.675,2.375,4.921,4.921,0,0,0,1.737,1.512,7.891,7.891,0,0,0,2.388.788A15.657,15.657,0,0,0-34.306-23.125Zm32.7,3.1A68.99,68.99,0,0,0,2.732-9.963,47.616,47.616,0,0,0,7.944-2.025l-4.825,4A35.866,35.866,0,0,1,.157-2.275Q-1.306-4.7-2.731-7.662t-2.8-6.412q-1.375-3.45-2.725-7.325-1.05,3.125-2.325,6.425t-2.737,6.413q-1.463,3.113-3.038,5.825a32.411,32.411,0,0,1-3.225,4.662l-4.875-3.95a31.51,31.51,0,0,0,2.625-3.6q1.3-2.05,2.525-4.388t2.337-4.887q1.113-2.55,2.062-5.125.7-2.175,1.35-4.375t1.125-4.25q.475-2.05.762-3.863a20.9,20.9,0,0,0,.288-3.237h6.2a22.649,22.649,0,0,0,.263,3.3q.262,1.775.725,3.775T-3.068-24.5Q-2.406-22.325-1.606-20.025Zm24.725,16a9.714,9.714,0,0,1-3.95-.813,10.353,10.353,0,0,1-3.225-2.2,10.4,10.4,0,0,1-2.175-3.25,9.933,9.933,0,0,1-.8-3.962,9.844,9.844,0,0,1,.8-3.95,10.284,10.284,0,0,1,2.175-3.225A10.284,10.284,0,0,1,19.169-23.6a9.844,9.844,0,0,1,3.95-.8,9.933,9.933,0,0,1,3.962.8,10.4,10.4,0,0,1,3.25,2.175,10.353,10.353,0,0,1,2.2,3.225,9.714,9.714,0,0,1,.813,3.95,9.8,9.8,0,0,1-.812,3.962,10.465,10.465,0,0,1-2.2,3.25,10.465,10.465,0,0,1-3.25,2.2A9.8,9.8,0,0,1,23.119-4.025Zm0-14.325a3.892,3.892,0,0,0-1.587.325,4.193,4.193,0,0,0-1.288.875,4.152,4.152,0,0,0-.875,1.3,3.98,3.98,0,0,0-.325,1.6,4.07,4.07,0,0,0,.325,1.613,4.267,4.267,0,0,0,.875,1.325,4.087,4.087,0,0,0,1.288.887,3.892,3.892,0,0,0,1.587.325,4.07,4.07,0,0,0,1.613-.325,4.158,4.158,0,0,0,1.325-.887,4.334,4.334,0,0,0,.9-1.325,3.94,3.94,0,0,0,.337-1.613,3.854,3.854,0,0,0-.337-1.6,4.22,4.22,0,0,0-.9-1.3,4.267,4.267,0,0,0-1.325-.875A4.07,4.07,0,0,0,23.119-18.35Zm34.057,8.023a12.618,12.618,0,0,1-2.209,7.764A7.076,7.076,0,0,1,48.994.382,7.779,7.779,0,0,1,42.94-2.055V8.127H39.322V-21.127h3.309l.182,2.345a7.413,7.413,0,0,1,6.127-2.745,7.2,7.2,0,0,1,6.018,2.873q2.218,2.873,2.218,7.982Zm-3.618-.418a9.352,9.352,0,0,0-1.518-5.636,4.89,4.89,0,0,0-4.173-2.073,5.31,5.31,0,0,0-4.927,2.909V-5.455A5.32,5.32,0,0,0,47.9-2.564a4.876,4.876,0,0,0,4.127-2.055Q53.558-6.673,53.558-10.745Z" transform="translate(59 39)"/></g></symbol><symbol viewBox="0 0 111 48" id="720p">  <g id="720p-a" clip-path="url(#720p-b)"> <path d="M-23.943-33.5a38.371,38.371,0,0,0-4.888,7.462,78.014,78.014,0,0,0-4.037,9.688q-.8,2.3-1.45,4.637t-1.112,4.525q-.463,2.187-.713,4.15a27.785,27.785,0,0,0-.25,3.462h-6.2a26.343,26.343,0,0,0-.263-3.438q-.263-1.963-.737-4.175t-1.125-4.563q-.65-2.35-1.4-4.6a75.4,75.4,0,0,0-4.1-9.55,43.145,43.145,0,0,0-4.875-7.5l4.825-4.075a33.017,33.017,0,0,1,3.125,4.525q1.5,2.575,2.85,5.513t2.55,6.087q1.2,3.15,2.25,6.25,1.025-3.075,2.213-6.212t2.537-6.087q1.35-2.95,2.85-5.538A31.325,31.325,0,0,1-28.718-37.5ZM3.232-36.625q.075.225.325,1.075t.5,2.037q.25,1.188.45,2.55a18,18,0,0,1,.2,2.613,10.882,10.882,0,0,1-.85,4.475,9.385,9.385,0,0,1-2.2,3.138A8.791,8.791,0,0,1-1.406-18.9a10.336,10.336,0,0,1-3.437.6,11.075,11.075,0,0,1-3.113-.412,12.17,12.17,0,0,1-2.637-1.113q.225,2.175.35,4.325t.175,4.537q.05,2.388.063,5.163T-10.018.4h-6.15V-5.65q0-2.95-.087-6.237t-.462-6.912q-.375-3.625-1.15-7.6a74.548,74.548,0,0,0-2.15-8.3l5.925-1.9,1.025,3.05q.125.375.412,1.188t.763,1.825a19.945,19.945,0,0,0,1.137,2.075,11.237,11.237,0,0,0,1.538,1.95,7.727,7.727,0,0,0,1.963,1.45,5.172,5.172,0,0,0,2.413.563,5.33,5.33,0,0,0,.862-.1,2.876,2.876,0,0,0,1.125-.488,3.3,3.3,0,0,0,.988-1.162,4.385,4.385,0,0,0,.425-2.1,12.494,12.494,0,0,0-.125-1.688q-.125-.913-.312-1.775t-.4-1.625q-.213-.763-.388-1.287Zm17.05,32.6a9.714,9.714,0,0,1-3.95-.813,10.353,10.353,0,0,1-3.225-2.2,10.4,10.4,0,0,1-2.175-3.25,9.933,9.933,0,0,1-.8-3.962,9.844,9.844,0,0,1,.8-3.95,10.284,10.284,0,0,1,2.175-3.225A10.284,10.284,0,0,1,16.332-23.6a9.844,9.844,0,0,1,3.95-.8,9.933,9.933,0,0,1,3.962.8,10.4,10.4,0,0,1,3.25,2.175,10.353,10.353,0,0,1,2.2,3.225,9.714,9.714,0,0,1,.813,3.95,9.8,9.8,0,0,1-.813,3.962,10.465,10.465,0,0,1-2.2,3.25,10.465,10.465,0,0,1-3.25,2.2A9.8,9.8,0,0,1,20.282-4.025Zm0-14.325a3.892,3.892,0,0,0-1.587.325,4.193,4.193,0,0,0-1.288.875,4.152,4.152,0,0,0-.875,1.3,3.98,3.98,0,0,0-.325,1.6,4.07,4.07,0,0,0,.325,1.613,4.267,4.267,0,0,0,.875,1.325,4.087,4.087,0,0,0,1.288.887,3.892,3.892,0,0,0,1.587.325,4.07,4.07,0,0,0,1.613-.325,4.158,4.158,0,0,0,1.325-.887,4.334,4.334,0,0,0,.9-1.325,3.94,3.94,0,0,0,.337-1.613,3.854,3.854,0,0,0-.337-1.6,4.22,4.22,0,0,0-.9-1.3,4.267,4.267,0,0,0-1.325-.875A4.07,4.07,0,0,0,20.282-18.35Zm34.057,8.023A12.618,12.618,0,0,1,52.13-2.564,7.076,7.076,0,0,1,46.157.382,7.779,7.779,0,0,1,40.1-2.055V8.127H36.484V-21.127h3.309l.182,2.345A7.413,7.413,0,0,1,46.1-21.527a7.2,7.2,0,0,1,6.018,2.873q2.218,2.873,2.218,7.982Zm-3.618-.418A9.352,9.352,0,0,0,49.2-16.382a4.89,4.89,0,0,0-4.173-2.073A5.31,5.31,0,0,0,40.1-15.545V-5.455a5.32,5.32,0,0,0,4.964,2.891,4.876,4.876,0,0,0,4.127-2.055Q50.72-6.673,50.72-10.745Z" transform="translate(56 39)"/> </g> </symbol><symbol viewBox="0 0 21.825 15.574" id="arrow"><path d="M16.791,13.254a1.112,1.112,0,0,1,1.587,0,1.139,1.139,0,0,1,0,1.587l-6.65,6.651a1.15,1.15,0,0,1-1.619,0l-6.65-6.651a1.122,1.122,0,1,1,1.587-1.587l4.746,4.762V1.111A1.116,1.116,0,0,1,10.918,0a1.1,1.1,0,0,1,1.111,1.111v16.9Z" transform="translate(21.825 -3.126) rotate(90)"/></symbol><symbol viewBox="0 0 639.319 493.131" id="check"> <path d="M182.748,499.4a52.234,52.234,0,0,1-3.7-4.114L36.544,352.777a51.676,51.676,0,1,1,73.08-73.083L219.495,389.568,572.512,36.541a51.677,51.677,0,1,1,73.081,73.083L255.829,499.4a51.676,51.676,0,0,1-73.081,0Z" transform="translate(-21.408 -21.404)"/> </symbol><symbol viewBox="0 0 15.896 7.786" id="chevron-down"> <path d="M11065.021-2025.807a1,1,0,0,1-.7-.233l-6.895-5.786a1,1,0,0,1-.122-1.409,1,1,0,0,1,1.408-.122l6.3,5.29,6.3-5.29a1,1,0,0,1,1.409.122,1,1,0,0,1-.122,1.409l-6.895,5.786a.994.994,0,0,1-.643.234Z" transform="translate(-11057.072 2033.592)"/> </symbol><symbol viewBox="0 0 15.888 7.787" id="chevron-up"><path d="M11065-2033.593a1,1,0,0,0-.7.233l-6.895,5.786a1,1,0,0,0-.354.679,1,1,0,0,0,.23.73,1,1,0,0,0,1.409.121l6.3-5.29,6.3,5.291a1,1,0,0,0,1.41-.122,1,1,0,0,0-.123-1.41l-6.895-5.786a1,1,0,0,0-.644-.234Z" transform="translate(-11057.048 2033.596)"/></symbol><symbol viewBox="0 0 14.005 15.192" id="clock"> <path d="M384.861,14.559l1.611,1.344a.593.593,0,1,0,.76-.911l-1.611-1.344a.593.593,0,0,0-.76.912Z" transform="translate(-373.828 -13.108)"/> <path d="M33.639,16.041a.591.591,0,0,0,.38-.138l1.611-1.344a.593.593,0,1,0-.76-.912l-1.611,1.344a.593.593,0,0,0,.38,1.049Z" transform="translate(-32.658 -13.109)"/> <path d="M31.954,3.238A6.95,6.95,0,0,0,27.6,1.212V.593a.593.593,0,1,0-1.187,0v.619a7,7,0,0,0-4.358,11.929,7,7,0,0,0,9.1.689.593.593,0,1,0-.7-.955A5.808,5.808,0,1,1,32.1,10.989a.593.593,0,1,0,1.04.572,7.006,7.006,0,0,0-1.187-8.323Z" transform="translate(-20)"/> <path d="M220.078,151.28a.593.593,0,0,0-.835.088l-1.871,2.312a1.188,1.188,0,1,0,.922.747l1.871-2.312A.593.593,0,0,0,220.078,151.28Z" transform="translate(-210.184 -146.663)"/> </symbol><symbol viewBox="0 0 18 18" id="course"><g transform="translate(-10008.395 558.931)"><path d="M14.25,18H3.75A3.755,3.755,0,0,1,0,14.25V3.75A3.754,3.754,0,0,1,3.75,0h10.5A3.755,3.755,0,0,1,18,3.75v10.5A3.755,3.755,0,0,1,14.25,18ZM3.75,1.5A2.25,2.25,0,0,0,1.5,3.75v10.5A2.25,2.25,0,0,0,3.75,16.5h10.5a2.25,2.25,0,0,0,2.25-2.25V3.75A2.25,2.25,0,0,0,14.25,1.5ZM7.006,12.754a1.776,1.776,0,0,1-.89-.242A1.735,1.735,0,0,1,5.244,11V7A1.753,1.753,0,0,1,7.869,5.482l3.958,1.976a1.752,1.752,0,0,1,.037,3.063l-1.095.547L7.832,12.537A1.65,1.65,0,0,1,7.006,12.754Zm-.019-6a.235.235,0,0,0-.118.032A.245.245,0,0,0,6.744,7V11a.253.253,0,0,0,.375.22L11.151,9.2a.235.235,0,0,0,.09-.2.244.244,0,0,0-.127-.219L7.159,6.8a.347.347,0,0,0-.171-.051Z" transform="translate(10008.395 -558.931)"/><rect width="1.559" height="6.965" rx="0.78" transform="translate(10023.558 -544.799) rotate(90)" opacity="0.44"/></g></symbol><symbol viewBox="0 0 15 15" id="cross"> <path d="M-18361.621,13937.5l-4.6-4.6-4.6,4.6a1.5,1.5,0,0,1-2.121,0,1.5,1.5,0,0,1,0-2.121l4.6-4.6-4.6-4.595a1.5,1.5,0,0,1,0-2.121,1.5,1.5,0,0,1,2.123,0l4.594,4.595,4.6-4.595a1.5,1.5,0,0,1,2.121,0,1.5,1.5,0,0,1,0,2.121l-4.6,4.595,4.6,4.6a1.5,1.5,0,0,1,0,2.121,1.5,1.5,0,0,1-1.062.439A1.492,1.492,0,0,1-18361.621,13937.5Z" transform="translate(18373.381 -13923.621)"/> </symbol><symbol viewBox="0 0 18.078 18.078" id="dashboard"><g transform="translate(-266 -24)"><path d="M5.273,0H3.013A3.013,3.013,0,0,0,0,3.013V2.966A3.013,3.013,0,0,0,3.013,5.979h2.26A3.013,3.013,0,0,0,8.286,2.966v.047A3.013,3.013,0,0,0,5.273,0ZM6.779,2.966A1.507,1.507,0,0,1,5.273,4.473H3.013A1.507,1.507,0,0,1,1.506,2.966v.047A1.507,1.507,0,0,1,3.013,1.507h2.26A1.507,1.507,0,0,1,6.779,3.013ZM15.065,0h-2.26A3.013,3.013,0,0,0,9.792,3.013V7.63a3.013,3.013,0,0,0,3.013,3.013h2.26A3.013,3.013,0,0,0,18.078,7.63V3.013A3.013,3.013,0,0,0,15.065,0Zm1.507,7.63a1.507,1.507,0,0,1-1.507,1.507h-2.26A1.507,1.507,0,0,1,11.3,7.63V3.013a1.507,1.507,0,0,1,1.507-1.507h2.26a1.507,1.507,0,0,1,1.507,1.507Zm-11.3-.354H3.013A3.013,3.013,0,0,0,0,10.288v4.777a3.013,3.013,0,0,0,3.013,3.013h2.26a3.013,3.013,0,0,0,3.013-3.013V10.288A3.013,3.013,0,0,0,5.273,7.275Zm1.507,7.79a1.507,1.507,0,0,1-1.507,1.507H3.013a1.507,1.507,0,0,1-1.507-1.507V10.288A1.507,1.507,0,0,1,3.013,8.782h2.26a1.507,1.507,0,0,1,1.507,1.507Zm8.286-2.954h-2.26a3.013,3.013,0,0,0-3.013,3.013v-.059a3.013,3.013,0,0,0,3.013,3.013h2.26a3.013,3.013,0,0,0,3.013-3.013v.059A3.013,3.013,0,0,0,15.065,12.111Zm1.507,2.954a1.507,1.507,0,0,1-1.507,1.507h-2.26A1.507,1.507,0,0,1,11.3,15.065v.059a1.507,1.507,0,0,1,1.507-1.507h2.26a1.507,1.507,0,0,1,1.507,1.507Z" transform="translate(266 24)"/><rect width="1" height="4" rx="0.5" transform="translate(268.5 35.5)" opacity="0.44"/></g></symbol><symbol viewBox="0 0 18.656 15.547" id="download"><path d="M13.081,13.3h-.972V10.777a.777.777,0,0,0-1.555,0V13.3H9.583a.583.583,0,0,0-.412.995l1.749,1.749a.582.582,0,0,0,.824,0L13.493,14.3A.583.583,0,0,0,13.081,13.3Z" transform="translate(-2.004 -3.781)"/><path d="M13.219,21.109H8.555A1.556,1.556,0,0,1,7,19.555v-.777a.777.777,0,1,1,1.555,0v.777h4.664v-.777a.777.777,0,1,1,1.555,0v.777A1.556,1.556,0,0,1,13.219,21.109Z" transform="translate(-1.559 -5.563)"/><path d="M16.324,16.186H15.158a.777.777,0,0,1,0-1.555h1.166a.778.778,0,0,0,.777-.777V5.887a.778.778,0,0,0-.777-.777H7.968a.774.774,0,0,1-.55-.228L6.091,3.555H2.332a.778.778,0,0,0-.777.777v9.522a.778.778,0,0,0,.777.777H3.5a.777.777,0,0,1,0,1.555H2.332A2.335,2.335,0,0,1,0,13.854V4.332A2.335,2.335,0,0,1,2.332,2H6.413a.774.774,0,0,1,.55.228L8.29,3.555h8.035a2.335,2.335,0,0,1,2.332,2.332v7.968A2.335,2.335,0,0,1,16.324,16.186Z" transform="translate(0 -2)"/></symbol><symbol viewBox="0 0 19.472 19.471" id="exit-fullscreen"><path d="M2.059,136.163,5.9,132.325,7.177,133.6a1.206,1.206,0,0,0,2.059-.853v-4.265A1.206,1.206,0,0,0,8.03,127.28H3.764a1.206,1.206,0,0,0-.815,2.1l1.243,1.243L.353,134.457a1.206,1.206,0,0,0,1.706,1.706Z" transform="translate(0 -117.045)"/><path d="M128.489,9.236h4.265a1.206,1.206,0,0,0,.853-2.059l-1.28-1.28,3.838-3.838A1.206,1.206,0,1,0,134.459.353l-3.838,3.838-1.279-1.279a1.206,1.206,0,0,0-2.059.853V8.03A1.206,1.206,0,0,0,128.489,9.236Z" transform="translate(-117.047)"/></symbol><symbol viewBox="0 0 19.472 19.472" id="fullscreen"> <path d="M7.177,127.633l-3.838,3.838-1.279-1.279A1.206,1.206,0,0,0,0,131.045v4.265a1.206,1.206,0,0,0,1.206,1.206H5.473a1.206,1.206,0,0,0,.815-2.1l-1.243-1.243,3.838-3.838a1.206,1.206,0,0,0-1.706-1.706Z" transform="translate(0 -117.045)"/> <path d="M135.312,0h-4.265a1.206,1.206,0,0,0-.853,2.059l1.28,1.28-3.838,3.838a1.206,1.206,0,1,0,1.706,1.706l3.838-3.838,1.279,1.279a1.206,1.206,0,0,0,2.059-.853V1.206A1.206,1.206,0,0,0,135.312,0Z" transform="translate(-117.047)"/> </symbol><symbol viewBox="0 0 25.746 21.475" id="graduation"> <g transform="translate(0 -42.468)"> <path d="M25.243,46.787,13.124,42.511a.754.754,0,0,0-.5,0L.5,46.787a.754.754,0,0,0,0,1.422L12.62,52.517a.754.754,0,0,0,.505,0l12.119-4.308a.754.754,0,0,0,0-1.422Z"/> <path d="M433.117,204.313v-6.579l-1.509.536v6.043a1.514,1.514,0,0,0,0,2.627v3.707a.754.754,0,1,0,1.509,0V206.94a1.515,1.515,0,0,0,0-2.627Z" transform="translate(-409.183 -147.458)"/> <path d="M113.015,224.965a2.257,2.257,0,0,1-.758-.131l-6.813-2.422v3.319c0,.812.847,1.5,2.518,2.041a17.782,17.782,0,0,0,10.106,0c1.671-.542,2.518-1.229,2.518-2.041v-3.319l-6.813,2.422A2.258,2.258,0,0,1,113.015,224.965Z" transform="translate(-100.142 -170.895)"/> </g> </symbol><symbol viewBox="0 0 24.355 24.355" id="growing"> <path d="M3.668,401.664H2.624A2.627,2.627,0,0,0,0,404.288V406.2a.713.713,0,0,0,.714.714H3.791a2.127,2.127,0,0,1-.123-.714Zm0,0" transform="translate(0 -382.558)"/> <path d="M110.777,321.332h-1.044a2.627,2.627,0,0,0-2.624,2.624v5.732a.713.713,0,0,0,.714.714H110.9a2.132,2.132,0,0,1-.123-.714Zm0,0" transform="translate(-102.014 -306.047)"/> <path d="M279.254,7.167l-5.1-6.878a.714.714,0,0,0-1.147,0l-5.1,6.878a.714.714,0,0,0,.573,1.138h1.834V23.641a.713.713,0,0,0,.714.714h5.1a.713.713,0,0,0,.714-.714V8.306h1.834a.714.714,0,0,0,.573-1.138Zm0,0" transform="translate(-255.039)"/> <path d="M217.887,241h-1.044a2.627,2.627,0,0,0-2.624,2.624v9.553a.714.714,0,0,0,.714.714h3.077a2.132,2.132,0,0,1-.123-.714Zm0,0" transform="translate(-204.029 -229.536)"/> </symbol><symbol viewBox="0 0 100 100.004" id="instagram"> <path d="M50.986,100c-.331,0-.662,0-1,0-7.839.019-15.082-.18-22.125-.609a29.576,29.576,0,0,1-17.048-6.453A27.365,27.365,0,0,1,1.622,78.1C.255,72.737.183,67.477.113,62.388.063,58.737.011,54.411,0,50.012c.011-4.418.063-8.744.113-12.394C.183,32.53.255,27.27,1.622,21.91a27.365,27.365,0,0,1,9.2-14.845A29.576,29.576,0,0,1,27.866.611C34.91.183,42.154-.017,50.01,0c7.841-.017,15.082.181,22.125.609A29.576,29.576,0,0,1,89.183,7.065a27.361,27.361,0,0,1,9.2,14.845c1.367,5.359,1.44,10.621,1.509,15.708.05,3.651.1,7.977.113,12.376-.01,4.418-.063,8.744-.113,12.394a3.906,3.906,0,1,1-7.812-.107c.05-3.629.1-7.927.112-12.288-.01-4.342-.063-8.64-.112-12.269-.063-4.632-.129-9.422-1.267-13.883A19.725,19.725,0,0,0,84.246,13.12,21.52,21.52,0,0,0,71.661,8.41C64.782,7.992,57.7,7.8,50.01,7.815c-7.711-.018-14.792.177-21.67.6a21.526,21.526,0,0,0-12.585,4.709A19.724,19.724,0,0,0,9.192,23.842c-1.138,4.461-1.2,9.251-1.267,13.883-.05,3.629-.1,7.927-.112,12.288.011,4.342.063,8.64.112,12.269.063,4.632.129,9.422,1.267,13.883a19.725,19.725,0,0,0,6.562,10.722A21.521,21.521,0,0,0,28.34,91.6c6.878.418,13.961.613,21.652.594,7.711.018,14.791-.176,21.669-.594a21.521,21.521,0,0,0,12.585-4.71A18.77,18.77,0,0,0,89.609,79.7a3.907,3.907,0,0,1,7.17,3.105,26.5,26.5,0,0,1-7.6,10.135,29.571,29.571,0,0,1-17.048,6.453c-6.745.41-13.675.61-21.149.61ZM74.219,50A24.415,24.415,0,1,0,49.8,74.418,24.443,24.443,0,0,0,74.219,50Zm-7.813,0A16.6,16.6,0,1,1,49.8,33.4,16.621,16.621,0,0,1,66.407,50ZM76.954,17.775a5.86,5.86,0,1,0,5.86,5.86A5.86,5.86,0,0,0,76.954,17.775Zm0,0"/> </symbol><symbol viewBox="0 0 18.877 18.872" id="key"><path d="M18.673,6.182a10.758,10.758,0,0,0-2.32-3.647A10.509,10.509,0,0,0,12.733.262,2.964,2.964,0,0,0,9.589.928L6.693,3.81a2.951,2.951,0,0,0-.616,3.271c.152.342.317.676.494,1L.216,14.436A.737.737,0,0,0,0,14.957V18.2a.737.737,0,0,0,.737.737H3.982a.737.737,0,0,0,.737-.737V16.874H6.046a.737.737,0,0,0,.737-.737V14.81H8.111a.737.737,0,1,0,0-1.475H6.046a.737.737,0,0,0-.737.737V15.4H3.982a.737.737,0,0,0-.737.737v1.327H1.475v-2.2L8.014,8.724a.737.737,0,0,0,.109-.9,11.933,11.933,0,0,1-.7-1.338,1.468,1.468,0,0,1,.308-1.627l2.9-2.882a1.488,1.488,0,0,1,1.578-.334A9.028,9.028,0,0,1,15.313,3.58,9.277,9.277,0,0,1,17.3,6.721,1.464,1.464,0,0,1,16.97,8.3L14.04,11.212a1.485,1.485,0,0,1-1.623.316,9.571,9.571,0,0,1-1.327-.677.737.737,0,0,0-.771,1.257,11.052,11.052,0,0,0,1.532.782,2.955,2.955,0,0,0,3.23-.633L18.01,9.341A2.938,2.938,0,0,0,18.673,6.182Z" transform="translate(0 -0.067)"/></symbol><symbol viewBox="0 0 22.832 27.398" id="lock"> <g transform="translate(-42.667)"> <g transform="translate(42.667)"> <path class="a" d="M62.074,9.133V7.991a7.991,7.991,0,1,0-15.982,0V9.133a3.429,3.429,0,0,0-3.425,3.425V23.973A3.429,3.429,0,0,0,46.092,27.4H62.074A3.429,3.429,0,0,0,65.5,23.973V12.557A3.429,3.429,0,0,0,62.074,9.133Zm-13.7-1.142a5.708,5.708,0,0,1,11.416,0V9.133H48.375ZM63.216,23.973a1.143,1.143,0,0,1-1.142,1.142H46.092a1.143,1.143,0,0,1-1.142-1.142V12.557a1.143,1.143,0,0,1,1.142-1.142H62.074a1.143,1.143,0,0,1,1.142,1.142Z" transform="translate(-42.667)"/> </g> <g transform="translate(50.658 13.128)"> <path class="a" d="M195.425,245.333a3.416,3.416,0,0,0-1.142,6.639v1.922a1.142,1.142,0,1,0,2.283,0v-1.922a3.416,3.416,0,0,0-1.142-6.639Zm0,4.566a1.142,1.142,0,1,1,1.142-1.142A1.143,1.143,0,0,1,195.425,249.9Z" transform="translate(-192 -245.333)"/> </g> </g> </symbol><symbol viewBox="0 0 12.637 18.277" id="mobile"><path d="M11.209,11.856v-9A1.43,1.43,0,0,0,9.781,1.428H2.856A1.43,1.43,0,0,0,1.428,2.856V15.422a1.43,1.43,0,0,0,1.428,1.428H9.781a1.43,1.43,0,0,0,1.428-1.428.714.714,0,1,1,1.428,0,2.859,2.859,0,0,1-2.856,2.856H2.856A2.859,2.859,0,0,1,0,15.422V2.856A2.859,2.859,0,0,1,2.856,0H9.781a2.859,2.859,0,0,1,2.856,2.856v9a.714.714,0,1,1-1.428,0ZM5.6,15.033a.714.714,0,1,0,.714-.714A.714.714,0,0,0,5.6,15.033ZM7.032,3.967a.714.714,0,1,0,0-1.428H5.6a.714.714,0,1,0,0,1.428Z"/></symbol><symbol viewBox="0 0 18.078 18.078" id="panel"><g transform="translate(-266 -24)"><path d="M5.273,0H3.013A3.013,3.013,0,0,0,0,3.013v2.26A3.013,3.013,0,0,0,3.013,8.286h2.26A3.013,3.013,0,0,0,8.286,5.273V3.013A3.013,3.013,0,0,0,5.273,0ZM6.779,5.273A1.507,1.507,0,0,1,5.273,6.779H3.013A1.507,1.507,0,0,1,1.507,5.273V3.013A1.507,1.507,0,0,1,3.013,1.507h2.26A1.507,1.507,0,0,1,6.779,3.013ZM15.065,0h-2.26A3.013,3.013,0,0,0,9.792,3.013v2.26a3.013,3.013,0,0,0,3.013,3.013h2.26a3.013,3.013,0,0,0,3.013-3.013V3.013A3.013,3.013,0,0,0,15.065,0Zm1.507,5.273a1.507,1.507,0,0,1-1.507,1.507h-2.26A1.507,1.507,0,0,1,11.3,5.273V3.013a1.507,1.507,0,0,1,1.507-1.507h2.26a1.507,1.507,0,0,1,1.507,1.507Zm-11.3,4.52H3.013A3.013,3.013,0,0,0,0,12.805v2.26a3.013,3.013,0,0,0,3.013,3.013h2.26a3.013,3.013,0,0,0,3.013-3.013v-2.26A3.013,3.013,0,0,0,5.273,9.792Zm1.507,5.273a1.507,1.507,0,0,1-1.507,1.507H3.013a1.507,1.507,0,0,1-1.507-1.507v-2.26A1.507,1.507,0,0,1,3.013,11.3h2.26a1.507,1.507,0,0,1,1.507,1.507Zm8.286-5.273h-2.26a3.013,3.013,0,0,0-3.013,3.013v2.26a3.013,3.013,0,0,0,3.013,3.013h2.26a3.013,3.013,0,0,0,3.013-3.013v-2.26A3.013,3.013,0,0,0,15.065,9.792Zm1.507,5.273a1.507,1.507,0,0,1-1.507,1.507h-2.26A1.507,1.507,0,0,1,11.3,15.065v-2.26A1.507,1.507,0,0,1,12.805,11.3h2.26a1.507,1.507,0,0,1,1.507,1.507Z" transform="translate(266 24)"/><rect width="1" height="3" rx="0.5" transform="translate(281.5 38.5) rotate(90)" opacity="0.44"/></g></symbol><symbol viewBox="0 0 78 108" id="pause"><g transform="translate(-116 -1466)"><rect width="32" height="108" rx="16" transform="translate(116 1466)"/><rect width="32" height="108" rx="16" transform="translate(162 1466)"/></g></symbol><symbol viewBox="0 0 23.394 14.214" id="people"> <g transform="translate(8.366 2.246)"> <g transform="translate(0 0)"> <path d="M186.42,149.6a3.331,3.331,0,1,0,3.331,3.331A3.335,3.335,0,0,0,186.42,149.6Zm0,5.182a1.851,1.851,0,1,1,1.851-1.851A1.853,1.853,0,0,1,186.42,154.785Z" transform="translate(-183.089 -149.603)"/> </g> </g> <g transform="translate(6.737 7.403)"> <g transform="translate(0 0)"> <path d="M152.4,262.481a4.966,4.966,0,0,0-4.96,4.96v1.11a.74.74,0,0,0,1.481,0v-1.11a3.479,3.479,0,1,1,6.959,0v1.11a.74.74,0,0,0,1.481,0v-1.11A4.966,4.966,0,0,0,152.4,262.481Z" transform="translate(-147.443 -262.481)"/> </g> </g> <g transform="translate(15.102 0)"> <path d="M333.863,100.456a3.331,3.331,0,1,0,3.331,3.331A3.335,3.335,0,0,0,333.863,100.456Zm0,5.182a1.851,1.851,0,1,1,1.851-1.851A1.853,1.853,0,0,1,333.863,105.638Z" transform="translate(-330.532 -100.456)"/> </g> <g transform="translate(13.597 5.157)"> <g transform="translate(0 0)"> <path d="M302.424,213.333a4.97,4.97,0,0,0-4.813,3.74.74.74,0,1,0,1.434.368,3.483,3.483,0,0,1,6.859.852V219.4a.74.74,0,1,0,1.481,0v-1.111A4.966,4.966,0,0,0,302.424,213.333Z" transform="translate(-297.587 -213.333)"/> </g> </g> <g transform="translate(1.629 0)"> <path d="M38.977,100.456a3.331,3.331,0,1,0,3.331,3.331A3.335,3.335,0,0,0,38.977,100.456Zm0,5.182a1.851,1.851,0,1,1,1.851-1.851A1.853,1.853,0,0,1,38.977,105.638Z" transform="translate(-35.646 -100.456)"/> </g> <g transform="translate(0 5.158)"> <g transform="translate(0 0)"> <path d="M9.749,217.049A4.953,4.953,0,0,0,0,218.294v1.11a.74.74,0,0,0,1.481,0v-1.11a3.472,3.472,0,0,1,6.834-.877.74.74,0,0,0,1.434-.368Z" transform="translate(0 -213.334)"/> </g> </g> </symbol><symbol viewBox="0 0 276.525 276.525" id="phone-call"> <g transform="translate(0 -0.001)"> <g transform="translate(0 0.001)"> <path d="M258.8,42.695h.54a98.052,98.052,0,0,1,98.248,98.736,10.8,10.8,0,0,0,10.75,10.853h.052a10.8,10.8,0,0,0,10.8-10.75A119.654,119.654,0,0,0,259.344,21.09h-.594a10.8,10.8,0,0,0,.05,21.6Z" transform="translate(-114.058 -9.7)"/> <path d="M276.5,222.816a40.9,40.9,0,0,0-12.546-28.107c-15.085-14.546-27.724-22.944-39.775-26.426-16.608-4.8-31.987-.435-45.714,12.971l-.062.061-14.618,14.509c-9.079-5.1-26.73-16.325-46.034-35.63l-1.422-1.42a218.851,218.851,0,0,1-35.613-46.044l14.5-14.6.061-.062c13.406-13.726,17.77-29.107,12.971-45.713C104.76,40.3,96.363,27.659,81.816,12.574a41.1,41.1,0,0,0-57.045-2.057l-.31.279q-.216.194-.421.4C8.183,27.051-.129,49.249,0,75.39c.221,44.406,24.628,95.19,65.285,135.848l.1.1a263.605,263.605,0,0,0,25.8,22.45,10.8,10.8,0,0,0,13.145-17.144,241.537,241.537,0,0,1-23.766-20.683l-.1-.1C43.8,159.156,21.8,114.088,21.6,75.282,21.5,55.149,27.56,38.346,39.12,26.666l.083-.075a19.432,19.432,0,0,1,27.063.976c27.966,29,25.941,42.694,13.584,55.365L59.826,103.107a10.8,10.8,0,0,0-2.2,12c.508,1.142,12.8,28.315,43.431,58.941l1.422,1.42c30.622,30.623,57.8,42.919,58.937,43.428a10.8,10.8,0,0,0,12-2.2l20.17-20.02c12.674-12.359,26.366-14.387,55.369,13.581a19.431,19.431,0,0,1,.978,27.061l-.076.085c-11.585,11.466-28.209,17.517-48.123,17.517h-.493c-15.917-.079-34.349-4.443-53.3-12.618a10.8,10.8,0,1,0-8.557,19.837c21.907,9.449,42.683,14.289,61.75,14.384h.606c25.878,0,47.856-8.306,63.589-24.039.137-.137.27-.277.4-.421l.28-.312A40.907,40.907,0,0,0,276.5,222.816Z" transform="translate(0 -0.001)"/> <path d="M333.918,128.47a59.366,59.366,0,0,0-28.052-16.14,10.8,10.8,0,1,0-5.758,20.822,37.781,37.781,0,0,1,18.534,10.594,38.6,38.6,0,0,1,10.489,18.193l.156.529A10.8,10.8,0,1,0,350,156.336l-.146-.5A59.445,59.445,0,0,0,333.918,128.47Z" transform="translate(-134.378 -51.481)"/> </g> </g> </symbol><symbol viewBox="0 0 19.559 20.906" id="play"><path d="M9.765,6.263a4,4,0,0,1,6.987,0L23.2,17.822a4,4,0,0,1-3.493,5.949H6.811a4,4,0,0,1-3.493-5.949Z" transform="translate(23.77 -2.806) rotate(90)"/></symbol><symbol viewBox="0 0 150 150" id="search"> <g transform="translate(-21638 24437.146)"> <path d="M343.456,326.475,313.53,296.243a57.9,57.9,0,0,1-17.295,17.468l29.928,30.232a12.138,12.138,0,0,0,17.292,0A12.436,12.436,0,0,0,343.456,326.475Z" transform="translate(21440.961 -24634.709)" opacity="0.65"/> <path d="M115.2,57.3a57.6,57.6,0,1,0-57.6,57.3A57.452,57.452,0,0,0,115.2,57.3ZM57.6,100.271A42.973,42.973,0,1,1,100.8,57.3,43.132,43.132,0,0,1,57.6,100.271Z" transform="translate(21637.998 -24437.146)"/> <path d="M75.817,117.737H88.969c0-16.511,14.754-29.944,32.886-29.944V75.816C96.473,75.816,75.817,94.625,75.817,117.737Z" transform="translate(21585.334 -24489.344)" opacity="0.65"/> </g> </symbol><symbol viewBox="0 0 94.426 116.124" id="shopping-bag"> <g transform="translate(0 29.929)"> <path d="M141.014,133.343a4.488,4.488,0,0,0-3.243-1.384H52.324a4.49,4.49,0,0,0-4.486,4.669c.021.485,1.957,48.727,2.842,68.649a13.328,13.328,0,0,0,13.467,12.877H125.8a13.315,13.315,0,0,0,13.464-12.823l2.993-68.688A4.492,4.492,0,0,0,141.014,133.343ZM130.29,205a4.443,4.443,0,0,1-4.491,4.18H64.146a4.455,4.455,0,0,1-4.494-4.238c-.723-16.278-2.144-51.346-2.655-64h76.084Z" transform="translate(-47.834 -131.959)"/> </g> <g transform="translate(20.951)"> <path d="M166.4,0a26.218,26.218,0,0,0-26.188,26.188V59.558a4.489,4.489,0,0,0,8.979,0V26.188a17.209,17.209,0,0,1,34.418,0V59.558a4.489,4.489,0,1,0,8.979,0V26.188A26.218,26.218,0,0,0,166.4,0Z" transform="translate(-140.208)"/> <rect width="9.379" height="30.909" rx="4.69" transform="translate(27.274 92.221) rotate(90)" opacity="0.45"/> </g> </symbol><symbol viewBox="0 0 512 512" id="sms"><path d="m259 512h-139c-66.168 0-120-53.832-120-120v-272c0-66.168 53.832-120 120-120h6c11.046 0 20 8.954 20 20s-8.954 20-20 20h-6c-44.112 0-80 35.888-80 80v272c0 44.112 35.888 80 80 80h139c44.112 0 80-35.888 80-80v-33c0-11.046 8.954-20 20-20s20 8.954 20 20v33c0 66.168-53.832 120-120 120zm-78.858-217.858s9.858-11.195 24.142-11.195c4.914 0 9.875 1.048 14.483 3.342 18.274 9.098 38.014 13.711 58.668 13.71h.064 101.991.063c35.108 0 68.177-13.518 93.12-38.067 25.019-24.625 38.983-57.525 39.32-92.641 0-.064.001-.128.001-.192v-35.907c.316-35.603-13.235-69.067-38.166-94.238-24.879-25.12-58.202-38.954-93.828-38.954h-102c-35.384 0-68.659 13.922-93.696 39.2-25.014 25.255-38.613 58.631-38.299 93.993l-.005 146.807c0 8.089 4.873 15.382 12.346 18.478 2.475 1.025 5.072 1.523 7.649 1.523 5.205-.001 10.321-2.033 14.147-5.859zm97.304-34.142c-14.421 0-28.165-3.202-40.851-9.518-16.08-8.006-34.056-9.525-50.594-5.107 0 0 .003-112.403.003-112.467-.236-24.642 9.252-47.924 26.719-65.56 17.468-17.636 40.651-27.348 65.277-27.348h102c24.869 0 48.099 9.625 65.409 27.103 17.384 17.552 26.826 40.921 26.586 65.805 0 .064-.001 36.089-.001 36.089-.531 50.198-41.974 91.003-92.45 91.003-.013 0-.032 0-.044 0h-102.009c-.015 0-.03 0-.045 0zm122.554-124h-142c-11.046 0-20-8.954-20-20s8.954-20 20-20h142c11.046 0 20 8.954 20 20s-8.954 20-20 20zm-40 50c0-11.046-8.954-20-20-20h-82c-11.046 0-20 8.954-20 20s8.954 20 20 20h82c11.046 0 20-8.954 20-20zm-169 191c-13.807 0-25 11.193-25 25 0 13.807 11.193 25 25 25s25-11.193 25-25c0-13.807-11.193-25-25-25z"/></symbol><symbol viewBox="0 0 115 115" id="star"> <path d="M65.454,28.279a9.946,9.946,0,0,1,18.931,0l7.035,21.2a10,10,0,0,0,9.2,6.889l22.067.6c9.285.253,13.23,12.085,6,17.988l-18.329,14.96a10.192,10.192,0,0,0-3.345,10.625l6.395,22.94c2.573,9.229-7.795,16.565-15.464,10.943L80.774,121.844a9.883,9.883,0,0,0-11.708,0L51.9,134.425c-7.67,5.622-18.037-1.715-15.464-10.943l6.395-22.94a10.192,10.192,0,0,0-3.345-10.625L21.158,74.957c-7.233-5.9-3.288-17.735,6-17.988l22.067-.6a10,10,0,0,0,9.2-6.889Z" transform="translate(-17.42 -21.387)"/> </symbol><symbol viewBox="0 0 19.811 15.477" id="subtitle"><path d="M16.715,15.477H3.1a3.1,3.1,0,0,1-3.1-3.1V3.1A3.1,3.1,0,0,1,3.1,0h13.62a3.1,3.1,0,0,1,3.1,3.1V8.512a.774.774,0,1,1-1.548,0V3.1a1.55,1.55,0,0,0-1.548-1.548H3.1A1.55,1.55,0,0,0,1.548,3.1v9.286A1.55,1.55,0,0,0,3.1,13.929h13.62a1.55,1.55,0,0,0,1.548-1.548.774.774,0,1,1,1.548,0A3.1,3.1,0,0,1,16.715,15.477ZM8.21,8.977a.764.764,0,0,0-.715.509,1.471,1.471,0,0,1-2.851-.509V6.528a1.488,1.488,0,0,1,1.435-1.5A1.473,1.473,0,0,1,7.495,6a.761.761,0,0,0,.712.5h.04a.754.754,0,0,0,.714-1A3.023,3.023,0,0,0,6.084,3.482,3.066,3.066,0,0,0,3.1,6.539v2.4A3.018,3.018,0,0,0,8.959,9.982a.756.756,0,0,0-.715-1.005Zm7.584,0a.764.764,0,0,0-.715.509,1.471,1.471,0,0,1-2.851-.509V6.528a1.488,1.488,0,0,1,1.435-1.5A1.473,1.473,0,0,1,15.078,6a.761.761,0,0,0,.712.5h.04a.754.754,0,0,0,.714-1,3.023,3.023,0,0,0-2.877-2.015,3.066,3.066,0,0,0-2.988,3.056v2.4a3.018,3.018,0,0,0,5.864,1.044.756.756,0,0,0-.715-1.005Zm0,0"/></symbol><symbol viewBox="0 0 20.819 20.819" id="teacher"><path d="M6.506,11.264v8.742a.813.813,0,0,1-1.627,0V11.264a.813.813,0,0,1,1.627,0ZM8.742,3.253h7.2A1.628,1.628,0,0,1,17.566,4.88v3.66a.813.813,0,1,0,1.627,0V4.88A3.257,3.257,0,0,0,15.94,1.627h-7.2a.813.813,0,1,0,0,1.627ZM2.44,13.337a.814.814,0,0,1-.813-.813V8.092a.814.814,0,0,1,.813-.813h3.2a.812.812,0,0,1,.653.328l2.256,4.509A.813.813,0,1,0,10,11.388L7.716,6.826a.821.821,0,0,0-.051-.087A2.434,2.434,0,0,0,5.771,5.656c-.026,0-3.332,0-3.332,0A2.443,2.443,0,0,0,0,8.092v4.432a2.444,2.444,0,0,0,1.627,2.3v5.182a.813.813,0,0,0,1.627,0V14.151A.813.813,0,0,0,2.44,13.337ZM1.627,2.44a2.44,2.44,0,1,1,2.44,2.44A2.443,2.443,0,0,1,1.627,2.44Zm1.627,0a.813.813,0,1,0,.813-.813A.814.814,0,0,0,3.253,2.44ZM20.006,13.825h-.813v-1.22a.813.813,0,0,0-1.627,0v1.22H8.946a.813.813,0,0,0,0,1.627h11.06a.813.813,0,1,0,0-1.627Z"/></symbol><symbol viewBox="0 0 23.988 23.988" id="tutorial-video"> <path d="M0,372v3.982a2.58,2.58,0,0,0,2.577,2.577H21.412a2.58,2.58,0,0,0,2.577-2.577V372Zm20.428,3.982H14.571v.234a.7.7,0,1,1-1.406,0v-.234h-9.6a.7.7,0,0,1,0-1.406h9.6v-.234a.7.7,0,1,1,1.406,0v.234h5.857a.7.7,0,0,1,0,1.406Z" transform="translate(0 -354.571)"/> <path d="M139.16,107.245l5.474,1.61,5.474-1.61-5.474-1.61Z" transform="translate(-132.64 -100.686)"/> <path d="M174.982,181.777a.7.7,0,0,1-.2-.029L171,180.635v2.547h7.965v-2.547l-3.784,1.113A.7.7,0,0,1,174.982,181.777Z" transform="translate(-162.988 -172.172)"/> <path d="M21.412,0H2.577A2.58,2.58,0,0,0,0,2.577V16.023H23.988V2.577A2.58,2.58,0,0,0,21.412,0Zm-.75,10.776a.7.7,0,1,1-1.406,0V7.5l-1.874.551v3.663a.7.7,0,0,1-.7.7H7.309a.7.7,0,0,1-.7-.7V8.05L3.831,7.234a.7.7,0,0,1,0-1.349L11.8,3.542a.7.7,0,0,1,.4,0l7.965,2.343a.7.7,0,0,1,.5.674Z"/> </symbol><symbol viewBox="0 0 15.866 17.956" id="user-2"><path d="M8.8,9.536c.059,0,.119,0,.179,0s.111,0,.166,0a16.109,16.109,0,0,1,5.066,1.8.7.7,0,0,0,.954-.272c.188-.339-.272-.954-.272-.954s-2.514-1.339-3.059-1.518a4.77,4.77,0,1,0-5.709,0,9.121,9.121,0,0,0-6.079,6.8,2.131,2.131,0,0,0,2.083,2.57H15.163a.7.7,0,0,0,0-1.4H2.127a.713.713,0,0,1-.561-.267.733.733,0,0,1-.149-.614A7.75,7.75,0,0,1,8.8,9.536ZM5.61,4.77A3.367,3.367,0,1,1,9.144,8.133l-.167,0-.164,0A3.371,3.371,0,0,1,5.61,4.77Z" transform="translate(0.001 -0.001)"/></symbol><symbol viewBox="0 0 102.87 118.339" id="user"> <g transform="translate(0)"> <path d="M119.706,74.429a30.691,30.691,0,0,0,5.257-17.21V46.932c0-17.02-12.741-25.755-29.761-25.755S63.241,29.912,63.241,46.932V57.219A30.69,30.69,0,0,0,68.5,74.429a51.375,51.375,0,0,0-25.831,44.512v5.143A15.449,15.449,0,0,0,58.1,139.515h72.009a15.449,15.449,0,0,0,15.431-15.431v-5.143A51.375,51.375,0,0,0,119.706,74.429Zm-46.178-27.5c0-11.347,10.328-15.468,21.674-15.468s19.473,4.122,19.473,15.468V57.219c0,9.35-6.265,19.827-15.109,23.338A15.08,15.08,0,0,1,94.1,81.574c-11.346,0-20.574-13.008-20.574-24.355Zm61.722,77.153a5.152,5.152,0,0,1-5.143,5.143H58.1a5.152,5.152,0,0,1-5.143-5.143v-5.143A41.183,41.183,0,0,1,75.874,82.067c4.453,3.271,9.114,5.944,18.229,5.944a41.607,41.607,0,0,0,5.81-.376c5.185-.7,8.468-2.666,12.419-5.569a41.183,41.183,0,0,1,22.919,36.874v5.143Z" transform="translate(-42.667 -21.177)"/> <rect width="9.379" height="42.909" rx="4.69" transform="translate(58.896 91.146) rotate(90)" opacity="0.45"/> </g> </symbol><symbol viewBox="0 0 23.749 23.842" id="video-course"> <g transform="translate(-1)"> <path d="M243.522,105.054v2.653l1.929-1.318Z" transform="translate(-231.229 -100.162)"/> <path d="M81.695,10.478a2.187,2.187,0,0,1,2.074,2.887h3.3a2.189,2.189,0,1,1,4.147,0h3.3a2.187,2.187,0,0,1,2.772-2.772h0V2.1A2.1,2.1,0,0,0,95.2,0H83.092A2.1,2.1,0,0,0,81,2.1v8.5h0A2.177,2.177,0,0,1,81.695,10.478Zm5.473-6.055a1.151,1.151,0,0,1,1.806-.947l2.61,1.805h0a1.151,1.151,0,0,1-.005,1.9l-2.61,1.783a1.151,1.151,0,0,1-1.8-.95V4.423Z" transform="translate(-76.271)"/> <ellipse cx="1" cy="0.5" rx="1" ry="0.5" transform="translate(19 12)"/> <ellipse cx="1" cy="0.5" rx="1" ry="0.5" transform="translate(12 12)"/> <circle cx="0.5" cy="0.5" r="0.5" transform="translate(5 12)"/> <path d="M71,319.792v2.282h2.328v-2.282a.688.688,0,0,0-.285-.507,1.426,1.426,0,0,0-.879-.285C71.544,319,71,319.37,71,319.792Z" transform="translate(-66.74 -304.145)"/> <path d="M22.886,385.013v.685a.7.7,0,0,1-.7.7H18.463a.7.7,0,0,1-.7-.7V385H15.436v.7a.7.7,0,0,1-.7.7H11.012a.7.7,0,0,1-.7-.7V385H7.985v.7a.7.7,0,0,1-.7.7H3.561a.7.7,0,0,1-.7-.7v-.685A2.1,2.1,0,0,0,1,387.1v1.723a2.1,2.1,0,0,0,2.1,2.1H22.654a2.1,2.1,0,0,0,2.1-2.1V387.1A2.1,2.1,0,0,0,22.886,385.013Z" transform="translate(0 -367.072)"/> <path d="M231,319.792v2.282h2.328v-2.282a.688.688,0,0,0-.285-.507,1.426,1.426,0,0,0-.879-.285C231.544,319,231,319.37,231,319.792Z" transform="translate(-219.29 -304.145)"/> <path d="M391,319.792v2.282h2.328v-2.282a.688.688,0,0,0-.285-.507,1.426,1.426,0,0,0-.879-.285C391.544,319,391,319.37,391,319.792Z" transform="translate(-371.839 -304.145)"/> </g> </symbol><symbol viewBox="0 0 100 99.209" id="whatsapp"> <path d="M50,99.208h-.02A50.093,50.093,0,0,1,27.51,93.869L6.142,98.73A3.907,3.907,0,0,1,1.46,94.082l4.63-21.046A49.376,49.376,0,0,1,0,49.665c0-.027,0-.055,0-.082A49.045,49.045,0,0,1,14.721,14.524a50.026,50.026,0,0,1,70.5.012A49.019,49.019,0,0,1,91.4,77.349a3.906,3.906,0,0,1-6.448-4.412A41.207,41.207,0,0,0,79.71,20.07a42.173,42.173,0,0,0-71.9,29.443c0,.025,0,.05,0,.074A41.751,41.751,0,0,0,13.6,70.463a3.9,3.9,0,0,1,.436,2.8L10.414,89.746l16.766-3.814a3.914,3.914,0,0,1,2.731.376A42.227,42.227,0,0,0,49.981,91.4H50A42.264,42.264,0,0,0,71.634,85.44a3.906,3.906,0,0,1,4,6.71A50.079,50.079,0,0,1,50,99.209ZM38.967,29.73c-.857-1.9-1.759-1.963-2.573-2H34.2a4.206,4.206,0,0,0-3.049,1.426,12.761,12.761,0,0,0-4,9.506c0,5.608,4.1,11.028,4.67,11.79s7.912,12.637,19.537,17.206c9.661,3.8,11.627,3.042,13.724,2.851s6.767-2.756,7.719-5.418.954-4.942.668-5.419-1.048-.76-2.192-1.33-6.75-3.375-7.8-3.755-1.81-.57-2.573.571-3.009,3.776-3.677,4.536-1.334.857-2.478.287a31.633,31.633,0,0,1-9.159-5.679,35.037,35.037,0,0,1-6.427-8.016c-.668-1.14-.072-1.758.5-2.326.513-.51,1.208-1.208,1.781-1.874a7.672,7.672,0,0,0,1.115-1.9,2.093,2.093,0,0,0-.095-2c-.286-.57-2.482-6.207-3.5-8.461"/> </symbol><symbol viewBox="0 0 136.786 78.975" id="empty-cart">  <g transform="translate(-255.998 -435.5)"> <path d="M12.253,66.858a4.775,4.775,0,1,1,0-9.551h95.88a4.775,4.775,0,1,1,0,9.551Zm10.673-9.551a4.776,4.776,0,0,1,0-9.552h93.656a4.776,4.776,0,0,1,0,9.552ZM4.775,47.756a4.775,4.775,0,1,1,0-9.551h25.85a4.776,4.776,0,0,0,.083-9.551H23.273a4.776,4.776,0,0,1,0-9.552h90.308a4.743,4.743,0,0,1,1.84.367h-4.466a4.777,4.777,0,0,0-1.844,9.183h22.9a4.776,4.776,0,0,1,0,9.552H94.665a4.777,4.777,0,0,0,0,9.549v0ZM12.253,19.1a4.776,4.776,0,0,1,0-9.552H116.582a4.776,4.776,0,1,1,0,9.552Zm11.02-9.552a4.775,4.775,0,1,1,0-9.551h101.39a4.775,4.775,0,0,1,0,9.551Z" transform="translate(255.998 447.616)" fill="#e7f6ea"/> <g transform="translate(281.859 449.967)"> <line y2="1.864" transform="translate(4.473 2.236) rotate(90)" stroke="#50b59a" stroke-width="1" fill="none"/> <line y2="1.864" transform="translate(2.236)" stroke="#50b59a" stroke-width="1" fill="none"/> <line y2="1.864" transform="translate(2.236 2.609)" stroke="#50b59a" stroke-width="1" fill="none"/> <line y2="1.864" transform="translate(1.864 2.236) rotate(90)" stroke="#50b59a" stroke-width="1" fill="none"/> </g> <g transform="translate(297.591 437.489)"> <circle cx="0.61" cy="0.61" r="0.61" transform="translate(2.438 0)" fill="#6eca3d"/> <circle cx="0.61" cy="0.61" r="0.61" transform="translate(2.438 4.877)" fill="#6eca3d"/> <circle cx="0.61" cy="0.61" r="0.61" transform="translate(4.877 2.438)" fill="#6eca3d"/> <circle cx="0.61" cy="0.61" r="0.61" transform="translate(0 2.438)" fill="#6eca3d"/> </g> <g transform="translate(356.114 451.888)"> <circle cx="0.543" cy="0.543" r="0.543" transform="matrix(0.914, -0.407, 0.407, 0.914, 1.906, 1.247)" fill="#c5e8cb"/> <circle cx="0.543" cy="0.543" r="0.543" transform="matrix(0.914, -0.407, 0.407, 0.914, 3.671, 5.212)" fill="#c5e8cb"/> <circle cx="0.543" cy="0.543" r="0.543" transform="matrix(0.914, -0.407, 0.407, 0.914, 4.771, 2.347)" fill="#c5e8cb"/> <circle cx="0.543" cy="0.543" r="0.543" transform="matrix(0.914, -0.407, 0.407, 0.914, 0.806, 4.112)" fill="#c5e8cb"/> <g transform="translate(0 5.065) rotate(-69)"> <circle cx="0.543" cy="0.543" r="0.543" transform="translate(2.17 0)" fill="#c5e8cb"/> <circle cx="0.543" cy="0.543" r="0.543" transform="translate(2.17 4.34)" fill="#c5e8cb"/> <circle cx="0.543" cy="0.543" r="0.543" transform="translate(4.34 2.17)" fill="#c5e8cb"/> <circle cx="0.543" cy="0.543" r="0.543" transform="translate(0 2.17)" fill="#c5e8cb"/> </g> </g> <g transform="translate(281.859 435.5)"> <line y2="3.218" transform="translate(7.723 3.862) rotate(90)" stroke="#3591ea" stroke-width="1" fill="none"/> <line y2="3.218" transform="translate(3.862)" stroke="#3591ea" stroke-width="1" fill="none"/> <line y2="3.218" transform="translate(3.862 4.505)" stroke="#3591ea" stroke-width="1" fill="none"/> <line y2="3.218" transform="translate(3.218 3.862) rotate(90)" stroke="#3591ea" stroke-width="1" fill="none"/> </g> <line y1="11.935" x2="8.68" transform="translate(334.663 442.01)" stroke="#9fd9a9" stroke-linecap="round" stroke-width="2" fill="none"/> <line y1="3.617" x2="4.34" transform="translate(341.173 452.86)" stroke="#9fd9a9" stroke-linecap="round" stroke-width="2" fill="none"/> <line x1="0.362" y1="3.978" transform="translate(327.43 443.095)" stroke="#9fd9a9" stroke-linecap="round" stroke-width="2" fill="none"/> <line x1="3.255" y1="4.34" transform="translate(316.579 449.605)" stroke="#9fd9a9" stroke-linecap="round" stroke-width="2" fill="none"/> <line x1="1.77" y1="2.207" transform="translate(312.601 444.904)" stroke="#9fd9a9" stroke-linecap="round" stroke-width="2" fill="none"/> <g transform="translate(327.249 451.595)" stroke="#9fd9a9" stroke-width="2" fill="#fff"> <circle cx="0.904" cy="0.904" r="0.904" stroke="none"/> <circle cx="0.904" cy="0.904" r="0.096" fill="none"/> </g> <g transform="translate(297.591 458.897)" clip-path="url(#empty-cart-a)"> <path d="M16.214,29.487H42.953a1.475,1.475,0,0,0,1.418-1.069l5.9-20.641A1.474,1.474,0,0,0,48.85,5.9H12.814L11.76,1.155A1.475,1.475,0,0,0,10.32,0H1.474a1.474,1.474,0,1,0,0,2.949H9.138L14.461,26.9a4.423,4.423,0,0,0,1.757,8.481H42.953a1.474,1.474,0,0,0,0-2.949H16.218a1.474,1.474,0,0,1,0-2.948ZM46.9,8.846,41.84,26.538H17.4L13.469,8.846Zm0,0" transform="translate(0 0)" fill="#57c06d"/> <path d="M150,364.423A4.423,4.423,0,1,0,154.423,360,4.428,4.428,0,0,0,150,364.423Zm4.423-1.474a1.474,1.474,0,1,1-1.474,1.474A1.476,1.476,0,0,1,154.423,362.949Zm0,0" transform="translate(-135.256 -324.616)" fill="#57c06d"/> <path d="M362,364.423A4.423,4.423,0,1,0,366.423,360,4.428,4.428,0,0,0,362,364.423Zm4.423-1.474a1.474,1.474,0,1,1-1.474,1.474A1.476,1.476,0,0,1,366.423,362.949Zm0,0" transform="translate(-326.419 -324.616)" fill="#57c06d"/> </g> <line x2="4.34" transform="translate(302.112 474.199)" stroke="#57c06d" stroke-linecap="round" stroke-width="3" fill="none"/> <line x2="13.382" transform="translate(294.517 481.681)" stroke="#57c06d" stroke-linecap="round" stroke-width="3" fill="none"/> <line x2="6.872" transform="translate(299.581 488.332)" stroke="#57c06d" stroke-linecap="round" stroke-width="3" fill="none"/> <g transform="translate(351.3 439.478)"> <g transform="translate(0 0)"> <line y2="1.864" transform="translate(4.473 2.236) rotate(90)" stroke="#3591ea" stroke-width="1" fill="none"/> <line y2="1.864" transform="translate(2.236)" stroke="#3591ea" stroke-width="1" fill="none"/> <line y2="1.864" transform="translate(2.236 2.609)" stroke="#3591ea" stroke-width="1" fill="none"/> <line y2="1.864" transform="translate(1.864 2.236) rotate(90)" stroke="#3591ea" stroke-width="1" fill="none"/> </g> </g> <path d="M2.559,2.558A2.562,2.562,0,0,1,0,0H5.117A2.561,2.561,0,0,1,2.559,2.558Z" transform="translate(324.717 477.608)" fill="#57c06d"/> <g transform="translate(330.142 474.742)" stroke="#57c06d" stroke-width="2" fill="#57c06d"> <circle cx="1.447" cy="1.447" r="1.447" stroke="none"/> <circle cx="1.447" cy="1.447" r="0.447" fill="none"/> </g> <rect width="3.617" height="1.447" transform="translate(329.781 476.189)" fill="#e7f6ea"/> <g transform="translate(321.1 474.742)"> <g transform="translate(0.362)" stroke="#57c06d" stroke-width="2" fill="#57c06d"> <circle cx="1.447" cy="1.447" r="1.447" stroke="none"/> <circle cx="1.447" cy="1.447" r="0.447" fill="none"/> </g> <rect width="3.617" height="1.447" transform="translate(0 1.447)" fill="#e7f6ea"/> </g> </g> </symbol><symbol viewBox="0 0 136.786 78.975" id="no-courses"> <g transform="translate(-255.998 -435.5)"> <path d="M12.253,66.858a4.775,4.775,0,1,1,0-9.551h95.88a4.775,4.775,0,1,1,0,9.551Zm10.673-9.551a4.776,4.776,0,0,1,0-9.552h93.656a4.776,4.776,0,0,1,0,9.552ZM4.775,47.756a4.775,4.775,0,1,1,0-9.551h25.85a4.776,4.776,0,0,0,.083-9.551H23.273a4.776,4.776,0,0,1,0-9.552h90.308a4.743,4.743,0,0,1,1.84.367h-4.466a4.777,4.777,0,0,0-1.844,9.183h22.9a4.776,4.776,0,0,1,0,9.552H94.665a4.777,4.777,0,0,0,0,9.549v0ZM12.253,19.1a4.776,4.776,0,0,1,0-9.552H116.582a4.776,4.776,0,1,1,0,9.552Zm11.02-9.552a4.775,4.775,0,1,1,0-9.551h101.39a4.775,4.775,0,0,1,0,9.551Z" transform="translate(255.998 447.616)" fill="#e7f6ea"/> <g transform="translate(281.859 449.967)"> <line y2="1.864" transform="translate(4.473 2.236) rotate(90)" stroke="#50b59a" stroke-width="1" fill="none"/> <line y2="1.864" transform="translate(2.236)" stroke="#50b59a" stroke-width="1" fill="none"/> <line y2="1.864" transform="translate(2.236 2.609)" stroke="#50b59a" stroke-width="1" fill="none"/> <line y2="1.864" transform="translate(1.864 2.236) rotate(90)" stroke="#50b59a" stroke-width="1" fill="none"/> </g> <g transform="translate(297.591 437.489)"> <circle cx="0.61" cy="0.61" r="0.61" transform="translate(2.438 0)" fill="#6eca3d"/> <circle cx="0.61" cy="0.61" r="0.61" transform="translate(2.438 4.877)" fill="#6eca3d"/> <circle cx="0.61" cy="0.61" r="0.61" transform="translate(4.877 2.438)" fill="#6eca3d"/> <circle cx="0.61" cy="0.61" r="0.61" transform="translate(0 2.438)" fill="#6eca3d"/> </g> <g transform="translate(356.114 451.888)"> <circle cx="0.543" cy="0.543" r="0.543" transform="matrix(0.914, -0.407, 0.407, 0.914, 1.906, 1.247)" fill="#c5e8cb"/> <circle cx="0.543" cy="0.543" r="0.543" transform="matrix(0.914, -0.407, 0.407, 0.914, 3.671, 5.212)" fill="#c5e8cb"/> <circle cx="0.543" cy="0.543" r="0.543" transform="matrix(0.914, -0.407, 0.407, 0.914, 4.771, 2.347)" fill="#c5e8cb"/> <circle cx="0.543" cy="0.543" r="0.543" transform="matrix(0.914, -0.407, 0.407, 0.914, 0.806, 4.112)" fill="#c5e8cb"/> <g transform="translate(0 5.065) rotate(-69)"> <circle cx="0.543" cy="0.543" r="0.543" transform="translate(2.17 0)" fill="#c5e8cb"/> <circle cx="0.543" cy="0.543" r="0.543" transform="translate(2.17 4.34)" fill="#c5e8cb"/> <circle cx="0.543" cy="0.543" r="0.543" transform="translate(4.34 2.17)" fill="#c5e8cb"/> <circle cx="0.543" cy="0.543" r="0.543" transform="translate(0 2.17)" fill="#c5e8cb"/> </g> </g> <g transform="translate(281.859 435.5)"> <line y2="3.218" transform="translate(7.723 3.862) rotate(90)" stroke="#3591ea" stroke-width="1" fill="none"/> <line y2="3.218" transform="translate(3.862)" stroke="#3591ea" stroke-width="1" fill="none"/> <line y2="3.218" transform="translate(3.862 4.505)" stroke="#3591ea" stroke-width="1" fill="none"/> <line y2="3.218" transform="translate(3.218 3.862) rotate(90)" stroke="#3591ea" stroke-width="1" fill="none"/> </g> <line y1="11.935" x2="8.68" transform="translate(334.663 442.01)" stroke="#9fd9a9" stroke-linecap="round" stroke-width="2" fill="none"/> <line y1="3.617" x2="4.34" transform="translate(341.173 452.86)" stroke="#9fd9a9" stroke-linecap="round" stroke-width="2" fill="none"/> <line x1="0.362" y1="3.978" transform="translate(327.43 443.095)" stroke="#9fd9a9" stroke-linecap="round" stroke-width="2" fill="none"/> <line x1="3.255" y1="4.34" transform="translate(316.579 449.605)" stroke="#9fd9a9" stroke-linecap="round" stroke-width="2" fill="none"/> <line x1="1.77" y1="2.207" transform="translate(312.601 444.904)" stroke="#9fd9a9" stroke-linecap="round" stroke-width="2" fill="none"/> <g transform="translate(327.249 451.595)" stroke="#9fd9a9" stroke-width="2" fill="#fff"> <circle cx="0.904" cy="0.904" r="0.904" stroke="none"/> <circle cx="0.904" cy="0.904" r="0.096" fill="none"/> </g> <line x2="4.34" transform="translate(302.112 474.199)" stroke="#57c06d" stroke-linecap="round" stroke-width="2" fill="none"/> <line x2="13.382" transform="translate(294.517 481.681)" stroke="#57c06d" stroke-linecap="round" stroke-width="2" fill="none"/> <line x2="6.872" transform="translate(299.581 488.332)" stroke="#57c06d" stroke-linecap="round" stroke-width="2" fill="none"/> <g transform="translate(351.3 439.478)"> <g transform="translate(0 0)"> <line y2="1.864" transform="translate(4.473 2.236) rotate(90)" stroke="#3591ea" stroke-width="1" fill="none"/> <line y2="1.864" transform="translate(2.236)" stroke="#3591ea" stroke-width="1" fill="none"/> <line y2="1.864" transform="translate(2.236 2.609)" stroke="#3591ea" stroke-width="1" fill="none"/> <line y2="1.864" transform="translate(1.864 2.236) rotate(90)" stroke="#3591ea" stroke-width="1" fill="none"/> </g> </g> <g transform="translate(310.998 464.487)"> <path d="M28.871,0H3.475A3.479,3.479,0,0,0,0,3.475v25.4a3.479,3.479,0,0,0,3.475,3.475h25.4a3.479,3.479,0,0,0,3.475-3.475V3.475A3.479,3.479,0,0,0,28.871,0ZM1.9,3.475A1.581,1.581,0,0,1,3.475,1.9h25.4A1.581,1.581,0,0,1,30.45,3.475V21.606H1.9Zm28.555,25.4a1.581,1.581,0,0,1-1.579,1.579H3.475A1.581,1.581,0,0,1,1.9,28.871V23.5H30.45Z" fill="#57c06d"/> <path d="M61.948,395.159H74.9v.316a.948.948,0,0,0,1.9,0v-.316h7.9a.948.948,0,1,0,0-1.9h-7.9v-.316a.948.948,0,1,0-1.9,0v.316H61.948a.948.948,0,1,0,0,1.9Z" transform="translate(-57.146 -367.235)" fill="#57c06d"/> <path d="M93.695,83.2l-10.74-3.159a.947.947,0,0,0-.535,0L71.68,83.2a.948.948,0,0,0,0,1.818l3.742,1.1v4.94A.948.948,0,0,0,76.37,92H89a.948.948,0,0,0,.948-.948v-4.94l2.527-.743v4.419a.948.948,0,0,0,1.9,0V84.106A.948.948,0,0,0,93.695,83.2Zm-5.637,6.911H77.318V86.673l5.1,1.5a.948.948,0,0,0,.535,0l5.1-1.5Zm-5.37-3.831-7.381-2.171,7.381-2.171,7.381,2.171Z" transform="translate(-66.515 -74.945)" fill="#57c06d"/> </g> </g> </symbol><symbol viewBox="0 0 567 88.788" id="logotype"> <g transform="translate(0.014 9.771)"> <g transform="translate(-0.014 -9.771)" fill="#222"> <path d="M257.156,68.208l19.381-23.327L258.069,22.658l-.4-.534a5.229,5.229,0,1,1,8.339-6.305L290.13,44.881,266.011,73.787a5.289,5.289,0,0,1-4.394,2.4,5.176,5.176,0,0,1-4.41-7.873Z" transform="translate(257.42 11.549)" opacity="0.55"/> <path d="M292.038,12.85a5.307,5.307,0,0,0-4.393,2.327L273.38,32.4l6.891,8.288L296.1,21.569a5.17,5.17,0,0,0,1.24-3.359,5.307,5.307,0,0,0-5.307-5.357Z" transform="translate(269.656 10.985)"/> <path d="M107.939,13.581h-2.067A30.063,30.063,0,0,0,83.8,22.7,28.96,28.96,0,0,0,75,43.937v2.084a29.012,29.012,0,0,0,8.855,21.259,30.114,30.114,0,0,0,22.017,9.045,36.592,36.592,0,0,0,14.3-2.481,5.169,5.169,0,0,0,2.877-2.687,4.41,4.41,0,0,0-.155-3.842,5.444,5.444,0,0,0-3.2-2.636,6.1,6.1,0,0,0-4.238.241,26.152,26.152,0,0,1-9.578,1.43A18.727,18.727,0,0,1,92.088,60.6a19.8,19.8,0,0,1-5.993-14.538V43.937a19.812,19.812,0,0,1,6-14.541,18.8,18.8,0,0,1,13.782-5.754h2.067A19.071,19.071,0,0,1,121.722,29.4a19.812,19.812,0,0,1,6,14.541v27.41a4.807,4.807,0,0,0,1.585,3.6,5.943,5.943,0,0,0,4,1.447,5.823,5.823,0,0,0,3.93-1.447,4.755,4.755,0,0,0,1.585-3.6V43.937a28.96,28.96,0,0,0-8.855-21.242,30.063,30.063,0,0,0-22.017-9.113Z" transform="translate(112.482 11.511)"/> <path d="M107.939,66.7h-2.067A30.063,30.063,0,0,1,83.8,57.589,28.959,28.959,0,0,1,75,36.348V34.263A29.011,29.011,0,0,1,83.852,13,30.114,30.114,0,0,1,105.869,3.96a36.592,36.592,0,0,1,14.3,2.481,5.168,5.168,0,0,1,2.877,2.687,4.41,4.41,0,0,1-.155,3.842,5.444,5.444,0,0,1-3.2,2.636,6.1,6.1,0,0,1-4.238-.241,26.153,26.153,0,0,0-9.578-1.43,18.727,18.727,0,0,0-13.782,5.754,19.8,19.8,0,0,0-5.993,14.538v2.121a19.811,19.811,0,0,0,6,14.54,18.8,18.8,0,0,0,13.782,5.754h2.067a19.071,19.071,0,0,0,13.782-5.754,19.811,19.811,0,0,0,6-14.54v-52.5a4.807,4.807,0,0,1,1.585-3.6,5.944,5.944,0,0,1,4-1.447,5.823,5.823,0,0,1,3.93,1.447,4.755,4.755,0,0,1,1.585,3.6v52.5a28.96,28.96,0,0,1-8.855,21.242A30.063,30.063,0,0,1,107.941,66.7Z" transform="translate(186.433 21.198)"/> <path d="M263.726,13.58h-1.6q-11.026,0-18.453,9.578l-1.12,1.6-1.12-1.6q-7.443-9.6-18.38-9.578h-1.723q-10.923,0-18.365,9.578a33.044,33.044,0,0,0-6.719,20.777v27.41a4.772,4.772,0,0,0,1.6,3.6,5.909,5.909,0,0,0,4,1.447,5.634,5.634,0,0,0,3.911-1.447,4.772,4.772,0,0,0,1.6-3.6V43.936a23.687,23.687,0,0,1,4.789-15.023c2.722-3.445,5.771-5.272,9.183-5.272h1.723q5.169,0,9.183,5.272a23.757,23.757,0,0,1,4.72,15.023v27.41a4.669,4.669,0,0,0,1.723,3.6,6.03,6.03,0,0,0,7.838,0,4.669,4.669,0,0,0,1.723-3.6V43.936a23.843,23.843,0,0,1,4.72-15.023q4.083-5.272,9.269-5.272h1.6q5.168,0,9.183,5.272a23.706,23.706,0,0,1,4.808,15.023v27.41a4.754,4.754,0,0,0,1.585,3.6,5.823,5.823,0,0,0,3.928,1.447,5.944,5.944,0,0,0,4-1.447,4.824,4.824,0,0,0,1.6-3.6V43.936a33.044,33.044,0,0,0-6.719-20.777Q274.665,13.58,263.726,13.58Z" transform="translate(-111.121 11.513)"/> <path d="M263.726,13.58h-1.6q-11.026,0-18.453,9.578l-1.12,1.6-1.12-1.6q-7.443-9.6-18.38-9.578h-1.723q-10.923,0-18.365,9.578a33.044,33.044,0,0,0-6.719,20.777v27.41a4.772,4.772,0,0,0,1.6,3.6,5.909,5.909,0,0,0,4,1.447,5.634,5.634,0,0,0,3.911-1.447,4.772,4.772,0,0,0,1.6-3.6V43.936a23.687,23.687,0,0,1,4.789-15.023c2.722-3.445,5.771-5.272,9.183-5.272h1.723q5.169,0,9.183,5.272a23.757,23.757,0,0,1,4.72,15.023v27.41a4.669,4.669,0,0,0,1.723,3.6,6.03,6.03,0,0,0,7.838,0,4.669,4.669,0,0,0,1.723-3.6V43.936a23.843,23.843,0,0,1,4.72-15.023q4.083-5.272,9.269-5.272h1.6q5.168,0,9.183,5.272a23.706,23.706,0,0,1,4.808,15.023v27.41a4.754,4.754,0,0,0,1.585,3.6,5.823,5.823,0,0,0,3.928,1.447,5.944,5.944,0,0,0,4-1.447,4.824,4.824,0,0,0,1.6-3.6V43.936a33.044,33.044,0,0,0-6.719-20.777Q274.665,13.58,263.726,13.58Z" transform="translate(211.833 11.513)"/> <path d="M19.942,12.29l.207,65.466h-9.3A12.059,12.059,0,0,1,.01,65.714V65.2a3.6,3.6,0,0,1,.172-1.585h0a12.369,12.369,0,0,1,.862-2.739Z" transform="translate(0.014 10.58)" opacity="0.55"/> <path d="M28.664,42.8l6.185,12.835h-23Z" transform="translate(8.589 32.632)"/> <path d="M62.909,62.037,11.57,21.209,15.98,9.942A13.874,13.874,0,0,1,37.739,2.931a14.248,14.248,0,0,1,4.772,7.012Z" transform="translate(8.386 1.678)"/> <path d="M54.453,48.519A12.06,12.06,0,0,1,42.48,60.578H37.934L28.87,41.662,50.457,36.08,53.4,43.591a12.646,12.646,0,0,1,.866,2.774h0a3.6,3.6,0,0,1,.172,1.585C54.436,48.174,54.453,48.329,54.453,48.519Z" transform="translate(20.891 27.776)" opacity="0.55"/> <path d="M185.2,13.582h-2.054A29.339,29.339,0,0,0,161.422,22.7a29.14,29.14,0,0,0-8.745,21.242v2.084a29.176,29.176,0,0,0,8.745,21.259,29.4,29.4,0,0,0,21.729,9.045,35.485,35.485,0,0,0,14.09-2.481,5.124,5.124,0,0,0,2.835-2.687,4.469,4.469,0,0,0-.153-3.842,5.383,5.383,0,0,0-3.157-2.636,5.878,5.878,0,0,0-4.159.241,25.59,25.59,0,0,1-9.456,1.43A18.353,18.353,0,0,1,169.57,60.6a19.945,19.945,0,0,1-5.908-14.54v-2.12A19.962,19.962,0,0,1,169.57,29.4a18.423,18.423,0,0,1,13.581-5.754H185.2A18.656,18.656,0,0,1,198.786,29.4a20.093,20.093,0,0,1,5.364,9.51H176.819a5.471,5.471,0,0,0-3.854,1.447,4.786,4.786,0,0,0-1.579,3.583,4.6,4.6,0,0,0,1.579,3.531,5.389,5.389,0,0,0,3.854,1.515H210.3a5.405,5.405,0,0,0,3.854-1.515,4.6,4.6,0,0,0,1.579-3.531A29.192,29.192,0,0,0,206.983,22.7a29.355,29.355,0,0,0-21.78-9.113Z" transform="translate(182.887 12.447)"/> </g> </g> </symbol><symbol viewBox="0 0 150 150" id="female-default-avatar"> <g id="female-default-avatar-a" clip-path="url(#b)"> <rect width="150" height="150" fill="#eee"/> <path d="M1.426,123.946v-3.5a23.344,23.344,0,0,1,10.611-19.607A32.248,32.248,0,0,1,5.415,57.83,26.807,26.807,0,0,0,9.934,42.917V30.631A30.664,30.664,0,0,1,40.559,0H54.17A30.66,30.66,0,0,1,84.791,30.631V42.917a26.631,26.631,0,0,0,4.49,14.873,32.233,32.233,0,0,1-.265,36.235,2.264,2.264,0,1,1-3.729-2.57,27.731,27.731,0,0,0,.221-31.142,31.157,31.157,0,0,1-5.251-17.394V30.631A26.119,26.119,0,0,0,54.17,4.543H40.559A26.12,26.12,0,0,0,14.468,30.631V42.917A31.32,31.32,0,0,1,9.2,60.345,27.7,27.7,0,0,0,15,97.41l1.461,1.166a23.439,23.439,0,0,1,8.375-1.541,9.459,9.459,0,0,0,9.475-9.461v-.6a30.377,30.377,0,0,1-17.293-27.39V43.675a2.269,2.269,0,0,1,4.537,0v15.91a25.805,25.805,0,1,0,51.61,0V46.007c-5.548-.319-10.245-3.808-11.911-10.083a77.325,77.325,0,0,1-15.39,7.607A74.463,74.463,0,0,1,29.8,47.474a2.271,2.271,0,0,1-.312-4.519A73.067,73.067,0,0,0,61.649,30.191a2.27,2.27,0,0,1,3.577,1.868c0,.056.025,5.684,4.287,8.247A9.306,9.306,0,0,0,75.438,41.4,2.273,2.273,0,0,1,77.7,43.532c.007.176.007,15.879.007,16.054A30.346,30.346,0,0,1,38.808,88.7a13.91,13.91,0,0,1-5.2,9.8l13.763,10.649,8.085-6.267a2.271,2.271,0,1,1,2.779,3.593l-9.484,7.337a2.279,2.279,0,0,1-2.779,0L29.256,100.859a14.079,14.079,0,0,1-4.417.71,18.872,18.872,0,0,0-18.88,18.88v5.926Q3.66,125.223,1.426,123.946Zm87.337-3.5A18.866,18.866,0,0,0,69.89,101.57a13.915,13.915,0,0,1-11.984-6.73,2.267,2.267,0,1,1,3.87-2.363,9.439,9.439,0,0,0,8.114,4.558c8.483,0,15.909,4.5,20.46,12.007A22.643,22.643,0,0,1,93.3,120.45v3.456q-2.234,1.279-4.541,2.438Z" transform="translate(28.107 30.225)" fill="rgba(0,0,0,0.15)"/> </g> </symbol><symbol viewBox="0 0 150 150" id="male-default-avatar"> <g id="male-default-avatar-a" clip-path="url(#b)"> <rect width="150" height="150" fill="#eee"/> <path d="M171.672,123.448v13.733a2.312,2.312,0,1,1-4.624,0V123.448a19.282,19.282,0,0,0-19.24-19.345,14.18,14.18,0,0,1-12.213-6.9,2.332,2.332,0,0,1,.772-3.195,2.3,2.3,0,0,1,3.177.776,9.594,9.594,0,0,0,8.264,4.664,23.916,23.916,0,0,1,23.864,24Zm-40.347-23.3a2.325,2.325,0,0,1-1.767,2.766,22.031,22.031,0,0,1-17.2-3.383A13.977,13.977,0,0,1,101.9,104.1a19.282,19.282,0,0,0-19.24,19.345v13.733a2.312,2.312,0,1,1-4.624,0V123.448a23.916,23.916,0,0,1,23.864-24,9.666,9.666,0,0,0,9.661-9.689v-.612A31.15,31.15,0,0,1,93.951,62.23,9.476,9.476,0,0,1,86.7,53.041V40.989c-.126-5.9.745-20.674,11.459-31.058,13.229-12.823,34.445-12.008,50.045-4.457a2.337,2.337,0,0,1,.489,3.872,31.214,31.214,0,0,1,19.1,13.814,2.577,2.577,0,0,1,.532,1.827,2.357,2.357,0,0,1-.663,1.475,15.222,15.222,0,0,0-4.37,10.722V53.042a2.312,2.312,0,1,1-4.624,0V37.184a19.856,19.856,0,0,1,4.492-12.637A26.681,26.681,0,0,0,143.988,13.23l-4.064-.438a2.33,2.33,0,0,1-.634-4.461l1.848-.765c-24.07-8.438-49.811.937-49.811,33.4V53.041a4.8,4.8,0,0,0,2.6,4.253V42.223a16.248,16.248,0,0,1,16.185-16.274h29.479a16.247,16.247,0,0,1,16.185,16.273V61.257c0,20.218-19.649,35.575-39.643,29.656a14.277,14.277,0,0,1-1.21,4.747,17.431,17.431,0,0,0,13.65,2.707,2.312,2.312,0,0,1,2.751,1.777Zm-6.472-12.619a26.4,26.4,0,0,0,26.3-26.444V42.222A11.605,11.605,0,0,0,139.592,30.6H110.113a11.605,11.605,0,0,0-11.56,11.624V61.081A26.4,26.4,0,0,0,124.852,87.525Zm23.41,40.066h-6.936a2.325,2.325,0,0,0,0,4.65h6.936a2.325,2.325,0,0,0,0-4.65Z" transform="translate(-50.352 30.012)" fill="rgba(0,0,0,0.15)"/> </g> </symbol></svg>