<svg xmlns="http://www.w3.org/2000/svg" viewBox="0 0 150 150">
    <g id="a" clip-path="url(#b)">
        <rect width="150" height="150" preserve--fill="#eee" />
        <path
            d="M1.426,123.946v-3.5a23.344,23.344,0,0,1,10.611-19.607A32.248,32.248,0,0,1,5.415,57.83,26.807,26.807,0,0,0,9.934,42.917V30.631A30.664,30.664,0,0,1,40.559,0H54.17A30.66,30.66,0,0,1,84.791,30.631V42.917a26.631,26.631,0,0,0,4.49,14.873,32.233,32.233,0,0,1-.265,36.235,2.264,2.264,0,1,1-3.729-2.57,27.731,27.731,0,0,0,.221-31.142,31.157,31.157,0,0,1-5.251-17.394V30.631A26.119,26.119,0,0,0,54.17,4.543H40.559A26.12,26.12,0,0,0,14.468,30.631V42.917A31.32,31.32,0,0,1,9.2,60.345,27.7,27.7,0,0,0,15,97.41l1.461,1.166a23.439,23.439,0,0,1,8.375-1.541,9.459,9.459,0,0,0,9.475-9.461v-.6a30.377,30.377,0,0,1-17.293-27.39V43.675a2.269,2.269,0,0,1,4.537,0v15.91a25.805,25.805,0,1,0,51.61,0V46.007c-5.548-.319-10.245-3.808-11.911-10.083a77.325,77.325,0,0,1-15.39,7.607A74.463,74.463,0,0,1,29.8,47.474a2.271,2.271,0,0,1-.312-4.519A73.067,73.067,0,0,0,61.649,30.191a2.27,2.27,0,0,1,3.577,1.868c0,.056.025,5.684,4.287,8.247A9.306,9.306,0,0,0,75.438,41.4,2.273,2.273,0,0,1,77.7,43.532c.007.176.007,15.879.007,16.054A30.346,30.346,0,0,1,38.808,88.7a13.91,13.91,0,0,1-5.2,9.8l13.763,10.649,8.085-6.267a2.271,2.271,0,1,1,2.779,3.593l-9.484,7.337a2.279,2.279,0,0,1-2.779,0L29.256,100.859a14.079,14.079,0,0,1-4.417.71,18.872,18.872,0,0,0-18.88,18.88v5.926Q3.66,125.223,1.426,123.946Zm87.337-3.5A18.866,18.866,0,0,0,69.89,101.57a13.915,13.915,0,0,1-11.984-6.73,2.267,2.267,0,1,1,3.87-2.363,9.439,9.439,0,0,0,8.114,4.558c8.483,0,15.909,4.5,20.46,12.007A22.643,22.643,0,0,1,93.3,120.45v3.456q-2.234,1.279-4.541,2.438Z"
            transform="translate(28.107 30.225)" preserve--fill="rgba(0,0,0,0.15)" />
    </g>
</svg>