<svg xmlns="http://www.w3.org/2000/svg" viewBox="0 0 150 150">
    <g id="a" clip-path="url(#b)">
        <rect width="150" height="150" preserve--fill="#eee" />
        <path
            d="M171.672,123.448v13.733a2.312,2.312,0,1,1-4.624,0V123.448a19.282,19.282,0,0,0-19.24-19.345,14.18,14.18,0,0,1-12.213-6.9,2.332,2.332,0,0,1,.772-3.195,2.3,2.3,0,0,1,3.177.776,9.594,9.594,0,0,0,8.264,4.664,23.916,23.916,0,0,1,23.864,24Zm-40.347-23.3a2.325,2.325,0,0,1-1.767,2.766,22.031,22.031,0,0,1-17.2-3.383A13.977,13.977,0,0,1,101.9,104.1a19.282,19.282,0,0,0-19.24,19.345v13.733a2.312,2.312,0,1,1-4.624,0V123.448a23.916,23.916,0,0,1,23.864-24,9.666,9.666,0,0,0,9.661-9.689v-.612A31.15,31.15,0,0,1,93.951,62.23,9.476,9.476,0,0,1,86.7,53.041V40.989c-.126-5.9.745-20.674,11.459-31.058,13.229-12.823,34.445-12.008,50.045-4.457a2.337,2.337,0,0,1,.489,3.872,31.214,31.214,0,0,1,19.1,13.814,2.577,2.577,0,0,1,.532,1.827,2.357,2.357,0,0,1-.663,1.475,15.222,15.222,0,0,0-4.37,10.722V53.042a2.312,2.312,0,1,1-4.624,0V37.184a19.856,19.856,0,0,1,4.492-12.637A26.681,26.681,0,0,0,143.988,13.23l-4.064-.438a2.33,2.33,0,0,1-.634-4.461l1.848-.765c-24.07-8.438-49.811.937-49.811,33.4V53.041a4.8,4.8,0,0,0,2.6,4.253V42.223a16.248,16.248,0,0,1,16.185-16.274h29.479a16.247,16.247,0,0,1,16.185,16.273V61.257c0,20.218-19.649,35.575-39.643,29.656a14.277,14.277,0,0,1-1.21,4.747,17.431,17.431,0,0,0,13.65,2.707,2.312,2.312,0,0,1,2.751,1.777Zm-6.472-12.619a26.4,26.4,0,0,0,26.3-26.444V42.222A11.605,11.605,0,0,0,139.592,30.6H110.113a11.605,11.605,0,0,0-11.56,11.624V61.081A26.4,26.4,0,0,0,124.852,87.525Zm23.41,40.066h-6.936a2.325,2.325,0,0,0,0,4.65h6.936a2.325,2.325,0,0,0,0-4.65Z"
            transform="translate(-50.352 30.012)" preserve--fill="rgba(0,0,0,0.15)" />
    </g>
</svg>