<svg xmlns="http://www.w3.org/2000/svg" xmlns:xlink="http://www.w3.org/1999/xlink" width="104" height="48" viewBox="0 0 104 48"><defs><clipPath id="b"><rect width="104" height="48"/></clipPath></defs><g id="a" clip-path="url(#b)"><path d="M-38.193-4.391A10.6,10.6,0,0,1-42.5-5.277a11.294,11.294,0,0,1-3.518-2.4,11.342,11.342,0,0,1-2.373-3.545,10.836,10.836,0,0,1-.873-4.323,10.739,10.739,0,0,1,.873-4.309,11.219,11.219,0,0,1,2.373-3.518A11.219,11.219,0,0,1-42.5-25.745a10.739,10.739,0,0,1,4.309-.873,10.836,10.836,0,0,1,4.323.873,11.342,11.342,0,0,1,3.545,2.373,11.294,11.294,0,0,1,2.4,3.518,10.6,10.6,0,0,1,.886,4.309,10.693,10.693,0,0,1-.886,4.323,11.416,11.416,0,0,1-2.4,3.545,11.416,11.416,0,0,1-3.545,2.4A10.693,10.693,0,0,1-38.193-4.391Zm0-15.627a4.246,4.246,0,0,0-1.732.355,4.574,4.574,0,0,0-1.4.955,4.53,4.53,0,0,0-.955,1.418,4.342,4.342,0,0,0-.355,1.745,4.44,4.44,0,0,0,.355,1.759,4.655,4.655,0,0,0,.955,1.445,4.458,4.458,0,0,0,1.4.968,4.246,4.246,0,0,0,1.732.355,4.44,4.44,0,0,0,1.759-.355,4.536,4.536,0,0,0,1.445-.968,4.728,4.728,0,0,0,.982-1.445,4.3,4.3,0,0,0,.368-1.759,4.2,4.2,0,0,0-.368-1.745,4.6,4.6,0,0,0-.982-1.418,4.655,4.655,0,0,0-1.445-.955A4.44,4.44,0,0,0-38.193-20.018Zm26.373-3.3H-7.13L-20.575,6.245H-25.32ZM10.734-41.836q.164.136,1.1.886t2.386,2.018q1.445,1.268,3.218,3.014t3.614,3.859Q22.9-29.945,24.63-27.5a41.639,41.639,0,0,1,3.1,5.1,30.611,30.611,0,0,1,2.182,5.5,20.664,20.664,0,0,1,.818,5.755,14.566,14.566,0,0,1-.355,3.368,12.415,12.415,0,0,1-.914,2.618A9.123,9.123,0,0,1,28.2-3.232a11.8,11.8,0,0,1-1.35,1.35,9.679,9.679,0,0,1-3.1,1.718,10.931,10.931,0,0,1-3.5.573,11.069,11.069,0,0,1-3.3-.491A8.969,8.969,0,0,1,13.98-1.691,9.858,9.858,0,0,1,11.048-.1,9.87,9.87,0,0,1,7.816.464,11.2,11.2,0,0,1,5.2.15,10.6,10.6,0,0,1,2.7-.791a10.462,10.462,0,0,1-2.2-1.555A9.642,9.642,0,0,1-1.239-4.5,11.372,11.372,0,0,1-2.261-6.668a15.1,15.1,0,0,1-.545-1.991,14.673,14.673,0,0,1-.232-1.6q-.055-.682-.055-1.009a21.179,21.179,0,0,1,.586-4.991A29.978,29.978,0,0,1-.966-20.932a32.713,32.713,0,0,1,2.2-4.282Q2.47-27.245,3.766-29t2.564-3.2Q7.6-33.655,8.607-34.718L6.589-36.382ZM22.543-7.145a5.161,5.161,0,0,0,1.241-1.623,5.224,5.224,0,0,0,.5-2.386,13.237,13.237,0,0,0-.477-3.477,21.876,21.876,0,0,0-1.282-3.491,27.516,27.516,0,0,0-1.9-3.409q-1.091-1.677-2.3-3.259t-2.482-3.041q-1.268-1.459-2.468-2.741-.873.982-1.964,2.25T9.207-25.541q-1.118,1.514-2.168,3.232A32.017,32.017,0,0,0,5.17-18.777a23.871,23.871,0,0,0-1.323,3.723,14.787,14.787,0,0,0-.5,3.791,5.478,5.478,0,0,0,.314,1.841,5.733,5.733,0,0,0,.859,1.6A4.212,4.212,0,0,0,5.825-6.7a3.326,3.326,0,0,0,1.636.423,5.407,5.407,0,0,0,1.255-.164A2.981,2.981,0,0,0,9.97-7.091a2.712,2.712,0,0,0,.777-1.227,5.5,5.5,0,0,0,.245-1.568,11.347,11.347,0,0,0-.1-1.664q-.109-.832-.245-1.514l6.6-1.255a1.361,1.361,0,0,0,.027.164q.027.136.068.491t.082.955q.041.6.1,1.582v.436q0,.464-.041,1.077a10.862,10.862,0,0,1-.177,1.323,2.7,2.7,0,0,0,1.241,1.473,3.681,3.681,0,0,0,1.732.436,3.81,3.81,0,0,0,1.186-.191A3.515,3.515,0,0,0,22.543-7.145ZM42.78-13.754l4.808-7.9h4.324l-7.082,10.7L52.135,0H47.849L42.854-8.107,37.841,0H33.536l7.305-10.958-7.082-10.7h4.286Z" transform="translate(51 41)"/></g></svg>