<svg xmlns="http://www.w3.org/2000/svg" xmlns:xlink="http://www.w3.org/1999/xlink" width="92" height="48" viewBox="0 0 92 48"><defs><clipPath id="b"><rect width="92" height="48"/></clipPath></defs><g id="a" clip-path="url(#b)"><path d="M-40.607.382v-2.4q0-.682.014-1.336t.041-1.2v.027q.027-1.309.041-2.714T-40.5-10.2q0-3-.068-6.218t-.4-6.7q-.327-3.477-1.009-7.2a65.378,65.378,0,0,0-1.936-7.732l6.355-2.073A76.736,76.736,0,0,1-35.384-31.6q.777,4.077,1.145,7.8t.45,7.132q.082,3.409.082,6.545,0,1.555-.014,2.986t-.041,2.741q-.027.545-.041,1.186t-.014,1.3V.382Zm22.527-23.7h4.691L-26.834,6.245H-31.58ZM4.475-41.836q.164.136,1.1.886t2.386,2.018q1.445,1.268,3.218,3.014T14.8-32.059q1.841,2.114,3.573,4.555a41.639,41.639,0,0,1,3.1,5.1,30.611,30.611,0,0,1,2.182,5.5,20.664,20.664,0,0,1,.818,5.755,14.566,14.566,0,0,1-.355,3.368A12.415,12.415,0,0,1,23.2-5.168a9.123,9.123,0,0,1-1.255,1.936,11.8,11.8,0,0,1-1.35,1.35A9.679,9.679,0,0,1,17.5-.164a10.931,10.931,0,0,1-3.5.573,11.069,11.069,0,0,1-3.3-.491A8.969,8.969,0,0,1,7.72-1.691,9.858,9.858,0,0,1,4.789-.1,9.87,9.87,0,0,1,1.557.464,11.2,11.2,0,0,1-1.061.15a10.6,10.6,0,0,1-2.5-.941,10.462,10.462,0,0,1-2.2-1.555A9.642,9.642,0,0,1-7.5-4.5,11.372,11.372,0,0,1-8.52-6.668a15.1,15.1,0,0,1-.545-1.991,14.673,14.673,0,0,1-.232-1.6q-.055-.682-.055-1.009a21.179,21.179,0,0,1,.586-4.991,29.977,29.977,0,0,1,1.541-4.677,32.713,32.713,0,0,1,2.2-4.282Q-3.789-27.245-2.493-29t2.564-3.2q1.268-1.445,2.277-2.509L.33-36.382ZM16.284-7.145a5.161,5.161,0,0,0,1.241-1.623,5.224,5.224,0,0,0,.5-2.386,13.237,13.237,0,0,0-.477-3.477,21.876,21.876,0,0,0-1.282-3.491,27.516,27.516,0,0,0-1.9-3.409q-1.091-1.677-2.3-3.259T9.589-27.832Q8.32-29.291,7.12-30.573q-.873.982-1.964,2.25T2.948-25.541Q1.83-24.027.78-22.309a32.017,32.017,0,0,0-1.868,3.532,23.871,23.871,0,0,0-1.323,3.723,14.787,14.787,0,0,0-.5,3.791A5.478,5.478,0,0,0-2.6-9.423a5.733,5.733,0,0,0,.859,1.6A4.212,4.212,0,0,0-.434-6.7,3.326,3.326,0,0,0,1.2-6.273a5.407,5.407,0,0,0,1.255-.164,2.981,2.981,0,0,0,1.255-.655,2.712,2.712,0,0,0,.777-1.227,5.5,5.5,0,0,0,.245-1.568,11.347,11.347,0,0,0-.1-1.664q-.109-.832-.245-1.514l6.6-1.255a1.361,1.361,0,0,0,.027.164q.027.136.068.491t.082.955q.041.6.1,1.582v.436q0,.464-.041,1.077a10.862,10.862,0,0,1-.177,1.323,2.7,2.7,0,0,0,1.241,1.473,3.681,3.681,0,0,0,1.732.436,3.81,3.81,0,0,0,1.186-.191A3.515,3.515,0,0,0,16.284-7.145ZM36.52-13.754l4.808-7.9h4.324l-7.082,10.7L45.876,0H41.59L36.6-8.107,31.582,0H27.277l7.305-10.958L27.5-21.655h4.286Z" transform="translate(45 41)"/></g></svg>