<svg xmlns="http://www.w3.org/2000/svg" xmlns:xlink="http://www.w3.org/1999/xlink" width="40" height="48" viewBox="0 0 40 48"><defs><clipPath id="b"><rect width="40" height="48"/></clipPath></defs><g id="a" clip-path="url(#b)"><path d="M-14.015.426v-2.68q0-.761.015-1.492t.046-1.34v.03q.03-1.462.046-3.03t.015-3.3q0-3.35-.076-6.944t-.442-7.477q-.365-3.883-1.127-8.04A73,73,0,0,0-17.7-42.484l7.1-2.315a85.688,85.688,0,0,1,2.421,9.517q.868,4.553,1.279,8.71t.5,7.964Q-6.31-14.8-6.31-11.3q0,1.736-.015,3.335T-6.37-4.9q-.03.609-.046,1.325t-.015,1.447V.426ZM9.4-15.431,14.792-24.3h4.851l-7.945,12L19.894,0H15.085l-5.6-9.1L3.856,0H-.974l8.2-12.295-7.945-12H4.086Z" transform="translate(19 47)"/></g></svg>