<svg xmlns="http://www.w3.org/2000/svg" xmlns:xlink="http://www.w3.org/1999/xlink" width="54" height="48" viewBox="0 0 54 48"><defs><clipPath id="b"><rect width="54" height="48"/></clipPath></defs><g id="a" clip-path="url(#b)"><path d="M1.6-41.952q.086.258.372,1.231t.573,2.334q.286,1.36.515,2.921a20.619,20.619,0,0,1,.229,2.993,12.465,12.465,0,0,1-.974,5.126A10.75,10.75,0,0,1-.2-23.754a10.069,10.069,0,0,1-3.508,2.1,11.839,11.839,0,0,1-3.937.687,12.686,12.686,0,0,1-3.565-.472,13.941,13.941,0,0,1-3.021-1.274q.258,2.491.4,4.954t.2,5.2q.057,2.735.072,5.913t-.014,7.1h-7.045v-6.93q0-3.379-.1-7.145t-.53-7.918q-.43-4.152-1.317-8.705a85.391,85.391,0,0,0-2.463-9.507l6.787-2.176,1.174,3.494q.143.43.472,1.36t.873,2.09a22.847,22.847,0,0,0,1.3,2.377,12.872,12.872,0,0,0,1.761,2.234,8.851,8.851,0,0,0,2.248,1.661,5.924,5.924,0,0,0,2.763.644,6.105,6.105,0,0,0,.988-.115,3.3,3.3,0,0,0,1.289-.558,3.781,3.781,0,0,0,1.131-1.332,5.022,5.022,0,0,0,.487-2.405A14.312,14.312,0,0,0-3.9-34.407q-.143-1.045-.358-2.033T-4.715-38.3q-.243-.873-.444-1.475ZM16.352-14.76l5.16-8.48h4.64l-7.6,11.48L26.392,0h-4.6l-5.36-8.7L11.052,0H6.432l7.84-11.76-7.6-11.48h4.6Z" transform="translate(26 47)"/></g></svg>