<svg xmlns="http://www.w3.org/2000/svg" xmlns:xlink="http://www.w3.org/1999/xlink" width="113" height="48"
    viewBox="0 0 113 48">
    <defs>
        <clipPath id="b">
            <rect width="113" height="48" />
        </clipPath>
    </defs>
    <g id="a" clip-path="url(#b)">
        <path
            d="M-24.268-36.625q.2.875.437,1.925t.425,2.212q.187,1.163.312,2.4a24.736,24.736,0,0,1,.125,2.488,13.531,13.531,0,0,1-.45,3.525,8.5,8.5,0,0,1-1.413,2.95A6.9,6.9,0,0,1-27.293-19.1a7.973,7.973,0,0,1-3.6.75,9.442,9.442,0,0,1-1.612-.15,8.214,8.214,0,0,1-1.737-.513,8.876,8.876,0,0,1-1.738-.975,8.436,8.436,0,0,1-1.637-1.562,8.042,8.042,0,0,1-2.537,2.15,11.623,11.623,0,0,1-2.638,1h.025a4.73,4.73,0,0,1-.825.137q-.45.037-.9.038a7.975,7.975,0,0,1-1.15-.087,6.535,6.535,0,0,1-1.125-.263q.325,3.85.388,7.263t.063,6.213V.35h-6.2V-4.6q0-2.95-.062-6.625t-.425-7.663q-.362-3.987-1.1-8.05a47.947,47.947,0,0,0-2.088-7.787l5.875-1.95q.25.85.475,1.55t.425,1.425q.2.725.412,1.525t.462,1.85a16.013,16.013,0,0,0,.675,1.988,10.889,10.889,0,0,0,.987,1.888,5.763,5.763,0,0,0,1.275,1.4,2.5,2.5,0,0,0,1.562.55,2.485,2.485,0,0,0,1.075-.475,3.077,3.077,0,0,0,.875-1.15,7.642,7.642,0,0,0,.587-1.975,17.284,17.284,0,0,0,.212-2.95v-.987q0-.438-.012-.9t-.062-1.037q-.05-.575-.125-1.425l6.15-.55q.3,3.05.6,5.213a22.615,22.615,0,0,0,.725,3.525,4.573,4.573,0,0,0,1.088,1.987,2.361,2.361,0,0,0,1.688.625,1.848,1.848,0,0,0,1.45-.75,3.189,3.189,0,0,0,.625-2.1,17.974,17.974,0,0,0-.125-2.075q-.125-1.075-.3-2.075t-.375-1.85q-.2-.85-.375-1.4ZM6.107-24.5l-1.85,1.95A17.978,17.978,0,0,0,3.044-21.2Q2.182-20.175.957-18.587T-1.756-14.9q-1.487,2.1-3.05,4.625t-3.112,5.4q-1.55,2.875-2.9,6l-5.7-2.5q.925-2.125,2.05-4.213t2.325-4.05q1.2-1.963,2.388-3.763t2.212-3.35a16.742,16.742,0,0,1-2.187-.15,14.079,14.079,0,0,1-2.25-.488,10.847,10.847,0,0,1-2.125-.9,7.3,7.3,0,0,1-1.787-1.388,9.34,9.34,0,0,1-1.887-3.05,9.764,9.764,0,0,1-.612-3.425,10.739,10.739,0,0,1,.813-4.075,11,11,0,0,1,2.387-3.6,10.958,10.958,0,0,1,1.813-1.312,12.14,12.14,0,0,1,2.05-.925,19.6,19.6,0,0,1,2.425-.663q1.312-.275,2.913-.5l1.225,5.8a14.221,14.221,0,0,0-1.825.275,16.684,16.684,0,0,0-1.75.475,9.55,9.55,0,0,0-1.5.638,5.168,5.168,0,0,0-1.1.762,4.23,4.23,0,0,0-.875,1.213,4.724,4.724,0,0,0-.45,1.487,4.269,4.269,0,0,0-.05.65,5.418,5.418,0,0,0,.125,1.062,2.674,2.674,0,0,0,.65,1.213,3.234,3.234,0,0,0,1.325.8,4.785,4.785,0,0,0,1.7.275q.325,0,.675-.025a8.227,8.227,0,0,0,3.65-1.25,24.463,24.463,0,0,0,4.15-3.2l1.95-2.025ZM21.282-4.025a9.714,9.714,0,0,1-3.95-.813,10.353,10.353,0,0,1-3.225-2.2,10.4,10.4,0,0,1-2.175-3.25,9.933,9.933,0,0,1-.8-3.962,9.844,9.844,0,0,1,.8-3.95,10.284,10.284,0,0,1,2.175-3.225A10.284,10.284,0,0,1,17.332-23.6a9.844,9.844,0,0,1,3.95-.8,9.933,9.933,0,0,1,3.962.8,10.4,10.4,0,0,1,3.25,2.175,10.353,10.353,0,0,1,2.2,3.225,9.714,9.714,0,0,1,.813,3.95,9.8,9.8,0,0,1-.813,3.962,10.465,10.465,0,0,1-2.2,3.25,10.465,10.465,0,0,1-3.25,2.2A9.8,9.8,0,0,1,21.282-4.025Zm0-14.325a3.892,3.892,0,0,0-1.587.325,4.193,4.193,0,0,0-1.288.875,4.152,4.152,0,0,0-.875,1.3,3.98,3.98,0,0,0-.325,1.6,4.07,4.07,0,0,0,.325,1.613,4.267,4.267,0,0,0,.875,1.325,4.087,4.087,0,0,0,1.288.887,3.892,3.892,0,0,0,1.587.325,4.07,4.07,0,0,0,1.613-.325,4.158,4.158,0,0,0,1.325-.887,4.334,4.334,0,0,0,.9-1.325,3.94,3.94,0,0,0,.337-1.613,3.854,3.854,0,0,0-.337-1.6,4.22,4.22,0,0,0-.9-1.3,4.267,4.267,0,0,0-1.325-.875A4.07,4.07,0,0,0,21.282-18.35Zm34.057,8.023A12.618,12.618,0,0,1,53.13-2.564,7.076,7.076,0,0,1,47.157.382,7.779,7.779,0,0,1,41.1-2.055V8.127H37.484V-21.127h3.309l.182,2.345A7.413,7.413,0,0,1,47.1-21.527a7.2,7.2,0,0,1,6.018,2.873q2.218,2.873,2.218,7.982Zm-3.618-.418A9.352,9.352,0,0,0,50.2-16.382a4.89,4.89,0,0,0-4.173-2.073A5.31,5.31,0,0,0,41.1-15.545V-5.455a5.32,5.32,0,0,0,4.964,2.891,4.876,4.876,0,0,0,4.127-2.055Q51.72-6.673,51.72-10.745Z"
            transform="translate(57 39)" />
    </g>
</svg>