<svg xmlns="http://www.w3.org/2000/svg" xmlns:xlink="http://www.w3.org/1999/xlink" width="117" height="48" viewBox="0 0 117 48"><defs><clipPath id="b"><rect width="117" height="48"/></clipPath></defs><g id="a" clip-path="url(#b)"><path d="M-34.306-23.125q.7,0,1.375-.013t1.35-.062q.675-.05,1.412-.138t1.588-.237l1.4,5.625q-1.3.375-2.5.638t-2.475.425q-1.275.163-2.712.25t-3.238.087a35.885,35.885,0,0,1-5.287-.4,20.346,20.346,0,0,1-5.113-1.45q.15,2.025.263,3.7t.162,3.175q.05,1.5.075,2.925t.025,2.95q0,1.05-.012,2.138t-.013,2.362V.4h-6.2V-1.175q0-3.675-.038-6.875t-.175-6.05q-.138-2.85-.388-5.45t-.675-5.1q-.425-2.5-1.05-4.975t-1.5-5.075l6-1.9q.4,1.3.737,2.575t.663,2.6q.2.725.362,1.487t.362,1.513a6.947,6.947,0,0,0,1.412,2.887A6.315,6.315,0,0,0-46.406-23.9q-.15-.375-.325-.8a7.265,7.265,0,0,1-.312-.963,10.415,10.415,0,0,1-.225-1.187,10.932,10.932,0,0,1-.088-1.45,9.014,9.014,0,0,1,.888-4.062,9.532,9.532,0,0,1,2.325-3.025,10.043,10.043,0,0,1,3.25-1.875,10.9,10.9,0,0,1,3.637-.638,10.187,10.187,0,0,1,2.688.338,13.127,13.127,0,0,1,2.313.862,17.945,17.945,0,0,1,2.037,1.163q.962.638,1.888,1.237l-2.95,5.275q-.875-.625-1.65-1.112a12.22,12.22,0,0,0-1.5-.812,9.7,9.7,0,0,0-1.413-.512,6.156,6.156,0,0,0-1.413-.212h-.15a4.889,4.889,0,0,0-1.4.225,4.6,4.6,0,0,0-1.4.7,4.256,4.256,0,0,0-1.088,1.162,2.848,2.848,0,0,0-.437,1.563,4,4,0,0,0,.675,2.375,4.921,4.921,0,0,0,1.737,1.512,7.891,7.891,0,0,0,2.388.788A15.657,15.657,0,0,0-34.306-23.125Zm32.7,3.1A68.99,68.99,0,0,0,2.732-9.963,47.616,47.616,0,0,0,7.944-2.025l-4.825,4A35.866,35.866,0,0,1,.157-2.275Q-1.306-4.7-2.731-7.662t-2.8-6.412q-1.375-3.45-2.725-7.325-1.05,3.125-2.325,6.425t-2.737,6.413q-1.463,3.113-3.038,5.825a32.411,32.411,0,0,1-3.225,4.662l-4.875-3.95a31.51,31.51,0,0,0,2.625-3.6q1.3-2.05,2.525-4.388t2.337-4.887q1.113-2.55,2.062-5.125.7-2.175,1.35-4.375t1.125-4.25q.475-2.05.762-3.863a20.9,20.9,0,0,0,.288-3.237h6.2a22.649,22.649,0,0,0,.263,3.3q.262,1.775.725,3.775T-3.068-24.5Q-2.406-22.325-1.606-20.025Zm24.725,16a9.714,9.714,0,0,1-3.95-.813,10.353,10.353,0,0,1-3.225-2.2,10.4,10.4,0,0,1-2.175-3.25,9.933,9.933,0,0,1-.8-3.962,9.844,9.844,0,0,1,.8-3.95,10.284,10.284,0,0,1,2.175-3.225A10.284,10.284,0,0,1,19.169-23.6a9.844,9.844,0,0,1,3.95-.8,9.933,9.933,0,0,1,3.962.8,10.4,10.4,0,0,1,3.25,2.175,10.353,10.353,0,0,1,2.2,3.225,9.714,9.714,0,0,1,.813,3.95,9.8,9.8,0,0,1-.812,3.962,10.465,10.465,0,0,1-2.2,3.25,10.465,10.465,0,0,1-3.25,2.2A9.8,9.8,0,0,1,23.119-4.025Zm0-14.325a3.892,3.892,0,0,0-1.587.325,4.193,4.193,0,0,0-1.288.875,4.152,4.152,0,0,0-.875,1.3,3.98,3.98,0,0,0-.325,1.6,4.07,4.07,0,0,0,.325,1.613,4.267,4.267,0,0,0,.875,1.325,4.087,4.087,0,0,0,1.288.887,3.892,3.892,0,0,0,1.587.325,4.07,4.07,0,0,0,1.613-.325,4.158,4.158,0,0,0,1.325-.887,4.334,4.334,0,0,0,.9-1.325,3.94,3.94,0,0,0,.337-1.613,3.854,3.854,0,0,0-.337-1.6,4.22,4.22,0,0,0-.9-1.3,4.267,4.267,0,0,0-1.325-.875A4.07,4.07,0,0,0,23.119-18.35Zm34.057,8.023a12.618,12.618,0,0,1-2.209,7.764A7.076,7.076,0,0,1,48.994.382,7.779,7.779,0,0,1,42.94-2.055V8.127H39.322V-21.127h3.309l.182,2.345a7.413,7.413,0,0,1,6.127-2.745,7.2,7.2,0,0,1,6.018,2.873q2.218,2.873,2.218,7.982Zm-3.618-.418a9.352,9.352,0,0,0-1.518-5.636,4.89,4.89,0,0,0-4.173-2.073,5.31,5.31,0,0,0-4.927,2.909V-5.455A5.32,5.32,0,0,0,47.9-2.564a4.876,4.876,0,0,0,4.127-2.055Q53.558-6.673,53.558-10.745Z" transform="translate(59 39)"/></g></svg>