<svg xmlns="http://www.w3.org/2000/svg" xmlns:xlink="http://www.w3.org/1999/xlink" width="111" height="48"
    viewBox="0 0 111 48">
    <defs>
        <clipPath id="b">
            <rect width="111" height="48" />
        </clipPath>
    </defs>
    <g id="a" clip-path="url(#b)">
        <path
            d="M-23.943-33.5a38.371,38.371,0,0,0-4.888,7.462,78.014,78.014,0,0,0-4.037,9.688q-.8,2.3-1.45,4.637t-1.112,4.525q-.463,2.187-.713,4.15a27.785,27.785,0,0,0-.25,3.462h-6.2a26.343,26.343,0,0,0-.263-3.438q-.263-1.963-.737-4.175t-1.125-4.563q-.65-2.35-1.4-4.6a75.4,75.4,0,0,0-4.1-9.55,43.145,43.145,0,0,0-4.875-7.5l4.825-4.075a33.017,33.017,0,0,1,3.125,4.525q1.5,2.575,2.85,5.513t2.55,6.087q1.2,3.15,2.25,6.25,1.025-3.075,2.213-6.212t2.537-6.087q1.35-2.95,2.85-5.538A31.325,31.325,0,0,1-28.718-37.5ZM3.232-36.625q.075.225.325,1.075t.5,2.037q.25,1.188.45,2.55a18,18,0,0,1,.2,2.613,10.882,10.882,0,0,1-.85,4.475,9.385,9.385,0,0,1-2.2,3.138A8.791,8.791,0,0,1-1.406-18.9a10.336,10.336,0,0,1-3.437.6,11.075,11.075,0,0,1-3.113-.412,12.17,12.17,0,0,1-2.637-1.113q.225,2.175.35,4.325t.175,4.537q.05,2.388.063,5.163T-10.018.4h-6.15V-5.65q0-2.95-.087-6.237t-.462-6.912q-.375-3.625-1.15-7.6a74.548,74.548,0,0,0-2.15-8.3l5.925-1.9,1.025,3.05q.125.375.412,1.188t.763,1.825a19.945,19.945,0,0,0,1.137,2.075,11.237,11.237,0,0,0,1.538,1.95,7.727,7.727,0,0,0,1.963,1.45,5.172,5.172,0,0,0,2.413.563,5.33,5.33,0,0,0,.862-.1,2.876,2.876,0,0,0,1.125-.488,3.3,3.3,0,0,0,.988-1.162,4.385,4.385,0,0,0,.425-2.1,12.494,12.494,0,0,0-.125-1.688q-.125-.913-.312-1.775t-.4-1.625q-.213-.763-.388-1.287Zm17.05,32.6a9.714,9.714,0,0,1-3.95-.813,10.353,10.353,0,0,1-3.225-2.2,10.4,10.4,0,0,1-2.175-3.25,9.933,9.933,0,0,1-.8-3.962,9.844,9.844,0,0,1,.8-3.95,10.284,10.284,0,0,1,2.175-3.225A10.284,10.284,0,0,1,16.332-23.6a9.844,9.844,0,0,1,3.95-.8,9.933,9.933,0,0,1,3.962.8,10.4,10.4,0,0,1,3.25,2.175,10.353,10.353,0,0,1,2.2,3.225,9.714,9.714,0,0,1,.813,3.95,9.8,9.8,0,0,1-.813,3.962,10.465,10.465,0,0,1-2.2,3.25,10.465,10.465,0,0,1-3.25,2.2A9.8,9.8,0,0,1,20.282-4.025Zm0-14.325a3.892,3.892,0,0,0-1.587.325,4.193,4.193,0,0,0-1.288.875,4.152,4.152,0,0,0-.875,1.3,3.98,3.98,0,0,0-.325,1.6,4.07,4.07,0,0,0,.325,1.613,4.267,4.267,0,0,0,.875,1.325,4.087,4.087,0,0,0,1.288.887,3.892,3.892,0,0,0,1.587.325,4.07,4.07,0,0,0,1.613-.325,4.158,4.158,0,0,0,1.325-.887,4.334,4.334,0,0,0,.9-1.325,3.94,3.94,0,0,0,.337-1.613,3.854,3.854,0,0,0-.337-1.6,4.22,4.22,0,0,0-.9-1.3,4.267,4.267,0,0,0-1.325-.875A4.07,4.07,0,0,0,20.282-18.35Zm34.057,8.023A12.618,12.618,0,0,1,52.13-2.564,7.076,7.076,0,0,1,46.157.382,7.779,7.779,0,0,1,40.1-2.055V8.127H36.484V-21.127h3.309l.182,2.345A7.413,7.413,0,0,1,46.1-21.527a7.2,7.2,0,0,1,6.018,2.873q2.218,2.873,2.218,7.982Zm-3.618-.418A9.352,9.352,0,0,0,49.2-16.382a4.89,4.89,0,0,0-4.173-2.073A5.31,5.31,0,0,0,40.1-15.545V-5.455a5.32,5.32,0,0,0,4.964,2.891,4.876,4.876,0,0,0,4.127-2.055Q50.72-6.673,50.72-10.745Z"
            transform="translate(56 39)" />
    </g>
</svg>