<svg xmlns="http://www.w3.org/2000/svg" viewBox="0 0 14.005 15.192">
    <path d="M384.861,14.559l1.611,1.344a.593.593,0,1,0,.76-.911l-1.611-1.344a.593.593,0,0,0-.76.912Z"
        transform="translate(-373.828 -13.108)" />
    <path
        d="M33.639,16.041a.591.591,0,0,0,.38-.138l1.611-1.344a.593.593,0,1,0-.76-.912l-1.611,1.344a.593.593,0,0,0,.38,1.049Z"
        transform="translate(-32.658 -13.109)" />
    <path
        d="M31.954,3.238A6.95,6.95,0,0,0,27.6,1.212V.593a.593.593,0,1,0-1.187,0v.619a7,7,0,0,0-4.358,11.929,7,7,0,0,0,9.1.689.593.593,0,1,0-.7-.955A5.808,5.808,0,1,1,32.1,10.989a.593.593,0,1,0,1.04.572,7.006,7.006,0,0,0-1.187-8.323Z"
        transform="translate(-20)" />
    <path
        d="M220.078,151.28a.593.593,0,0,0-.835.088l-1.871,2.312a1.188,1.188,0,1,0,.922.747l1.871-2.312A.593.593,0,0,0,220.078,151.28Z"
        transform="translate(-210.184 -146.663)" />
</svg>