<svg xmlns="http://www.w3.org/2000/svg" width="18" height="18" viewBox="0 0 18 18"><g transform="translate(-10008.395 558.931)"><path d="M14.25,18H3.75A3.755,3.755,0,0,1,0,14.25V3.75A3.754,3.754,0,0,1,3.75,0h10.5A3.755,3.755,0,0,1,18,3.75v10.5A3.755,3.755,0,0,1,14.25,18ZM3.75,1.5A2.25,2.25,0,0,0,1.5,3.75v10.5A2.25,2.25,0,0,0,3.75,16.5h10.5a2.25,2.25,0,0,0,2.25-2.25V3.75A2.25,2.25,0,0,0,14.25,1.5ZM7.006,12.754a1.776,1.776,0,0,1-.89-.242A1.735,1.735,0,0,1,5.244,11V7A1.753,1.753,0,0,1,7.869,5.482l3.958,1.976a1.752,1.752,0,0,1,.037,3.063l-1.095.547L7.832,12.537A1.65,1.65,0,0,1,7.006,12.754Zm-.019-6a.235.235,0,0,0-.118.032A.245.245,0,0,0,6.744,7V11a.253.253,0,0,0,.375.22L11.151,9.2a.235.235,0,0,0,.09-.2.244.244,0,0,0-.127-.219L7.159,6.8a.347.347,0,0,0-.171-.051Z" transform="translate(10008.395 -558.931)"/><rect width="1.559" height="6.965" rx="0.78" transform="translate(10023.558 -544.799) rotate(90)" opacity="0.44"/></g></svg>