<svg xmlns="http://www.w3.org/2000/svg" width="18.078" height="18.078" viewBox="0 0 18.078 18.078"><g transform="translate(-266 -24)"><path d="M5.273,0H3.013A3.013,3.013,0,0,0,0,3.013V2.966A3.013,3.013,0,0,0,3.013,5.979h2.26A3.013,3.013,0,0,0,8.286,2.966v.047A3.013,3.013,0,0,0,5.273,0ZM6.779,2.966A1.507,1.507,0,0,1,5.273,4.473H3.013A1.507,1.507,0,0,1,1.506,2.966v.047A1.507,1.507,0,0,1,3.013,1.507h2.26A1.507,1.507,0,0,1,6.779,3.013ZM15.065,0h-2.26A3.013,3.013,0,0,0,9.792,3.013V7.63a3.013,3.013,0,0,0,3.013,3.013h2.26A3.013,3.013,0,0,0,18.078,7.63V3.013A3.013,3.013,0,0,0,15.065,0Zm1.507,7.63a1.507,1.507,0,0,1-1.507,1.507h-2.26A1.507,1.507,0,0,1,11.3,7.63V3.013a1.507,1.507,0,0,1,1.507-1.507h2.26a1.507,1.507,0,0,1,1.507,1.507Zm-11.3-.354H3.013A3.013,3.013,0,0,0,0,10.288v4.777a3.013,3.013,0,0,0,3.013,3.013h2.26a3.013,3.013,0,0,0,3.013-3.013V10.288A3.013,3.013,0,0,0,5.273,7.275Zm1.507,7.79a1.507,1.507,0,0,1-1.507,1.507H3.013a1.507,1.507,0,0,1-1.507-1.507V10.288A1.507,1.507,0,0,1,3.013,8.782h2.26a1.507,1.507,0,0,1,1.507,1.507Zm8.286-2.954h-2.26a3.013,3.013,0,0,0-3.013,3.013v-.059a3.013,3.013,0,0,0,3.013,3.013h2.26a3.013,3.013,0,0,0,3.013-3.013v.059A3.013,3.013,0,0,0,15.065,12.111Zm1.507,2.954a1.507,1.507,0,0,1-1.507,1.507h-2.26A1.507,1.507,0,0,1,11.3,15.065v.059a1.507,1.507,0,0,1,1.507-1.507h2.26a1.507,1.507,0,0,1,1.507,1.507Z" transform="translate(266 24)"/><rect width="1" height="4" rx="0.5" transform="translate(268.5 35.5)" opacity="0.44"/></g></svg>