<svg xmlns="http://www.w3.org/2000/svg" width="18.656" height="15.547" viewBox="0 0 18.656 15.547"><path d="M13.081,13.3h-.972V10.777a.777.777,0,0,0-1.555,0V13.3H9.583a.583.583,0,0,0-.412.995l1.749,1.749a.582.582,0,0,0,.824,0L13.493,14.3A.583.583,0,0,0,13.081,13.3Z" transform="translate(-2.004 -3.781)" fill="rgba(0,0,0,0.5)"/><path d="M13.219,21.109H8.555A1.556,1.556,0,0,1,7,19.555v-.777a.777.777,0,1,1,1.555,0v.777h4.664v-.777a.777.777,0,1,1,1.555,0v.777A1.556,1.556,0,0,1,13.219,21.109Z" transform="translate(-1.559 -5.563)" fill="rgba(0,0,0,0.5)"/><path d="M16.324,16.186H15.158a.777.777,0,0,1,0-1.555h1.166a.778.778,0,0,0,.777-.777V5.887a.778.778,0,0,0-.777-.777H7.968a.774.774,0,0,1-.55-.228L6.091,3.555H2.332a.778.778,0,0,0-.777.777v9.522a.778.778,0,0,0,.777.777H3.5a.777.777,0,0,1,0,1.555H2.332A2.335,2.335,0,0,1,0,13.854V4.332A2.335,2.335,0,0,1,2.332,2H6.413a.774.774,0,0,1,.55.228L8.29,3.555h8.035a2.335,2.335,0,0,1,2.332,2.332v7.968A2.335,2.335,0,0,1,16.324,16.186Z" transform="translate(0 -2)" fill="rgba(0,0,0,0.5)"/></svg>