<svg xmlns="http://www.w3.org/2000/svg" width="19.472" height="19.471" viewBox="0 0 19.472 19.471"><path d="M2.059,136.163,5.9,132.325,7.177,133.6a1.206,1.206,0,0,0,2.059-.853v-4.265A1.206,1.206,0,0,0,8.03,127.28H3.764a1.206,1.206,0,0,0-.815,2.1l1.243,1.243L.353,134.457a1.206,1.206,0,0,0,1.706,1.706Z" transform="translate(0 -117.045)" fill="#fff"/><path d="M128.489,9.236h4.265a1.206,1.206,0,0,0,.853-2.059l-1.28-1.28,3.838-3.838A1.206,1.206,0,1,0,134.459.353l-3.838,3.838-1.279-1.279a1.206,1.206,0,0,0-2.059.853V8.03A1.206,1.206,0,0,0,128.489,9.236Z" transform="translate(-117.047)" fill="#fff"/></svg>