<svg xmlns="http://www.w3.org/2000/svg" viewBox="0 0 19.472 19.472">
    <path
        d="M7.177,127.633l-3.838,3.838-1.279-1.279A1.206,1.206,0,0,0,0,131.045v4.265a1.206,1.206,0,0,0,1.206,1.206H5.473a1.206,1.206,0,0,0,.815-2.1l-1.243-1.243,3.838-3.838a1.206,1.206,0,0,0-1.706-1.706Z"
        transform="translate(0 -117.045)" fill="#fff" />
    <path
        d="M135.312,0h-4.265a1.206,1.206,0,0,0-.853,2.059l1.28,1.28-3.838,3.838a1.206,1.206,0,1,0,1.706,1.706l3.838-3.838,1.279,1.279a1.206,1.206,0,0,0,2.059-.853V1.206A1.206,1.206,0,0,0,135.312,0Z"
        transform="translate(-117.047)" fill="#fff" />
</svg>