<svg xmlns="http://www.w3.org/2000/svg" viewBox="0 0 25.746 21.475">
    <g transform="translate(0 -42.468)">
        <path
            d="M25.243,46.787,13.124,42.511a.754.754,0,0,0-.5,0L.5,46.787a.754.754,0,0,0,0,1.422L12.62,52.517a.754.754,0,0,0,.505,0l12.119-4.308a.754.754,0,0,0,0-1.422Z"
            fill="#5c6aff" />
        <path
            d="M433.117,204.313v-6.579l-1.509.536v6.043a1.514,1.514,0,0,0,0,2.627v3.707a.754.754,0,1,0,1.509,0V206.94a1.515,1.515,0,0,0,0-2.627Z"
            transform="translate(-409.183 -147.458)" fill="#5c6aff" />
        <path
            d="M113.015,224.965a2.257,2.257,0,0,1-.758-.131l-6.813-2.422v3.319c0,.812.847,1.5,2.518,2.041a17.782,17.782,0,0,0,10.106,0c1.671-.542,2.518-1.229,2.518-2.041v-3.319l-6.813,2.422A2.258,2.258,0,0,1,113.015,224.965Z"
            transform="translate(-100.142 -170.895)" fill="#5c6aff" />
    </g>
</svg>