<svg xmlns="http://www.w3.org/2000/svg" viewBox="0 0 24.355 24.355">
    <path
        d="M3.668,401.664H2.624A2.627,2.627,0,0,0,0,404.288V406.2a.713.713,0,0,0,.714.714H3.791a2.127,2.127,0,0,1-.123-.714Zm0,0"
        transform="translate(0 -382.558)" fill="#00cd74" />
    <path
        d="M110.777,321.332h-1.044a2.627,2.627,0,0,0-2.624,2.624v5.732a.713.713,0,0,0,.714.714H110.9a2.132,2.132,0,0,1-.123-.714Zm0,0"
        transform="translate(-102.014 -306.047)" fill="#00cd74" />
    <path
        d="M279.254,7.167l-5.1-6.878a.714.714,0,0,0-1.147,0l-5.1,6.878a.714.714,0,0,0,.573,1.138h1.834V23.641a.713.713,0,0,0,.714.714h5.1a.713.713,0,0,0,.714-.714V8.306h1.834a.714.714,0,0,0,.573-1.138Zm0,0"
        transform="translate(-255.039)" fill="#00cd74" />
    <path
        d="M217.887,241h-1.044a2.627,2.627,0,0,0-2.624,2.624v9.553a.714.714,0,0,0,.714.714h3.077a2.132,2.132,0,0,1-.123-.714Zm0,0"
        transform="translate(-204.029 -229.536)" fill="#00cd74" />
</svg>