<svg xmlns="http://www.w3.org/2000/svg" viewBox="0 0 100 100.004">
    <path
        d="M50.986,100c-.331,0-.662,0-1,0-7.839.019-15.082-.18-22.125-.609a29.576,29.576,0,0,1-17.048-6.453A27.365,27.365,0,0,1,1.622,78.1C.255,72.737.183,67.477.113,62.388.063,58.737.011,54.411,0,50.012c.011-4.418.063-8.744.113-12.394C.183,32.53.255,27.27,1.622,21.91a27.365,27.365,0,0,1,9.2-14.845A29.576,29.576,0,0,1,27.866.611C34.91.183,42.154-.017,50.01,0c7.841-.017,15.082.181,22.125.609A29.576,29.576,0,0,1,89.183,7.065a27.361,27.361,0,0,1,9.2,14.845c1.367,5.359,1.44,10.621,1.509,15.708.05,3.651.1,7.977.113,12.376-.01,4.418-.063,8.744-.113,12.394a3.906,3.906,0,1,1-7.812-.107c.05-3.629.1-7.927.112-12.288-.01-4.342-.063-8.64-.112-12.269-.063-4.632-.129-9.422-1.267-13.883A19.725,19.725,0,0,0,84.246,13.12,21.52,21.52,0,0,0,71.661,8.41C64.782,7.992,57.7,7.8,50.01,7.815c-7.711-.018-14.792.177-21.67.6a21.526,21.526,0,0,0-12.585,4.709A19.724,19.724,0,0,0,9.192,23.842c-1.138,4.461-1.2,9.251-1.267,13.883-.05,3.629-.1,7.927-.112,12.288.011,4.342.063,8.64.112,12.269.063,4.632.129,9.422,1.267,13.883a19.725,19.725,0,0,0,6.562,10.722A21.521,21.521,0,0,0,28.34,91.6c6.878.418,13.961.613,21.652.594,7.711.018,14.791-.176,21.669-.594a21.521,21.521,0,0,0,12.585-4.71A18.77,18.77,0,0,0,89.609,79.7a3.907,3.907,0,0,1,7.17,3.105,26.5,26.5,0,0,1-7.6,10.135,29.571,29.571,0,0,1-17.048,6.453c-6.745.41-13.675.61-21.149.61ZM74.219,50A24.415,24.415,0,1,0,49.8,74.418,24.443,24.443,0,0,0,74.219,50Zm-7.813,0A16.6,16.6,0,1,1,49.8,33.4,16.621,16.621,0,0,1,66.407,50ZM76.954,17.775a5.86,5.86,0,1,0,5.86,5.86A5.86,5.86,0,0,0,76.954,17.775Zm0,0" />
</svg>