<svg xmlns="http://www.w3.org/2000/svg" width="18.877" height="18.872" viewBox="0 0 18.877 18.872"><path d="M18.673,6.182a10.758,10.758,0,0,0-2.32-3.647A10.509,10.509,0,0,0,12.733.262,2.964,2.964,0,0,0,9.589.928L6.693,3.81a2.951,2.951,0,0,0-.616,3.271c.152.342.317.676.494,1L.216,14.436A.737.737,0,0,0,0,14.957V18.2a.737.737,0,0,0,.737.737H3.982a.737.737,0,0,0,.737-.737V16.874H6.046a.737.737,0,0,0,.737-.737V14.81H8.111a.737.737,0,1,0,0-1.475H6.046a.737.737,0,0,0-.737.737V15.4H3.982a.737.737,0,0,0-.737.737v1.327H1.475v-2.2L8.014,8.724a.737.737,0,0,0,.109-.9,11.933,11.933,0,0,1-.7-1.338,1.468,1.468,0,0,1,.308-1.627l2.9-2.882a1.488,1.488,0,0,1,1.578-.334A9.028,9.028,0,0,1,15.313,3.58,9.277,9.277,0,0,1,17.3,6.721,1.464,1.464,0,0,1,16.97,8.3L14.04,11.212a1.485,1.485,0,0,1-1.623.316,9.571,9.571,0,0,1-1.327-.677.737.737,0,0,0-.771,1.257,11.052,11.052,0,0,0,1.532.782,2.955,2.955,0,0,0,3.23-.633L18.01,9.341A2.938,2.938,0,0,0,18.673,6.182Z" transform="translate(0 -0.067)" fill="#d5d5d5"/></svg>