<svg xmlns="http://www.w3.org/2000/svg" viewBox="0 0 22.832 27.398">
    <g transform="translate(-42.667)">
        <g transform="translate(42.667)">
            <path class="a"
                d="M62.074,9.133V7.991a7.991,7.991,0,1,0-15.982,0V9.133a3.429,3.429,0,0,0-3.425,3.425V23.973A3.429,3.429,0,0,0,46.092,27.4H62.074A3.429,3.429,0,0,0,65.5,23.973V12.557A3.429,3.429,0,0,0,62.074,9.133Zm-13.7-1.142a5.708,5.708,0,0,1,11.416,0V9.133H48.375ZM63.216,23.973a1.143,1.143,0,0,1-1.142,1.142H46.092a1.143,1.143,0,0,1-1.142-1.142V12.557a1.143,1.143,0,0,1,1.142-1.142H62.074a1.143,1.143,0,0,1,1.142,1.142Z"
                transform="translate(-42.667)" />
        </g>
        <g transform="translate(50.658 13.128)">
            <path class="a"
                d="M195.425,245.333a3.416,3.416,0,0,0-1.142,6.639v1.922a1.142,1.142,0,1,0,2.283,0v-1.922a3.416,3.416,0,0,0-1.142-6.639Zm0,4.566a1.142,1.142,0,1,1,1.142-1.142A1.143,1.143,0,0,1,195.425,249.9Z"
                transform="translate(-192 -245.333)" />
        </g>
    </g>
</svg>