<svg xmlns="http://www.w3.org/2000/svg" width="12.637" height="18.277" viewBox="0 0 12.637 18.277"><path d="M11.209,11.856v-9A1.43,1.43,0,0,0,9.781,1.428H2.856A1.43,1.43,0,0,0,1.428,2.856V15.422a1.43,1.43,0,0,0,1.428,1.428H9.781a1.43,1.43,0,0,0,1.428-1.428.714.714,0,1,1,1.428,0,2.859,2.859,0,0,1-2.856,2.856H2.856A2.859,2.859,0,0,1,0,15.422V2.856A2.859,2.859,0,0,1,2.856,0H9.781a2.859,2.859,0,0,1,2.856,2.856v9a.714.714,0,1,1-1.428,0ZM5.6,15.033a.714.714,0,1,0,.714-.714A.714.714,0,0,0,5.6,15.033ZM7.032,3.967a.714.714,0,1,0,0-1.428H5.6a.714.714,0,1,0,0,1.428Z" fill="#d5d5d5"/></svg>