<svg xmlns="http://www.w3.org/2000/svg" width="18.078" height="18.078" viewBox="0 0 18.078 18.078"><g transform="translate(-266 -24)"><path d="M5.273,0H3.013A3.013,3.013,0,0,0,0,3.013v2.26A3.013,3.013,0,0,0,3.013,8.286h2.26A3.013,3.013,0,0,0,8.286,5.273V3.013A3.013,3.013,0,0,0,5.273,0ZM6.779,5.273A1.507,1.507,0,0,1,5.273,6.779H3.013A1.507,1.507,0,0,1,1.507,5.273V3.013A1.507,1.507,0,0,1,3.013,1.507h2.26A1.507,1.507,0,0,1,6.779,3.013ZM15.065,0h-2.26A3.013,3.013,0,0,0,9.792,3.013v2.26a3.013,3.013,0,0,0,3.013,3.013h2.26a3.013,3.013,0,0,0,3.013-3.013V3.013A3.013,3.013,0,0,0,15.065,0Zm1.507,5.273a1.507,1.507,0,0,1-1.507,1.507h-2.26A1.507,1.507,0,0,1,11.3,5.273V3.013a1.507,1.507,0,0,1,1.507-1.507h2.26a1.507,1.507,0,0,1,1.507,1.507Zm-11.3,4.52H3.013A3.013,3.013,0,0,0,0,12.805v2.26a3.013,3.013,0,0,0,3.013,3.013h2.26a3.013,3.013,0,0,0,3.013-3.013v-2.26A3.013,3.013,0,0,0,5.273,9.792Zm1.507,5.273a1.507,1.507,0,0,1-1.507,1.507H3.013a1.507,1.507,0,0,1-1.507-1.507v-2.26A1.507,1.507,0,0,1,3.013,11.3h2.26a1.507,1.507,0,0,1,1.507,1.507Zm8.286-5.273h-2.26a3.013,3.013,0,0,0-3.013,3.013v2.26a3.013,3.013,0,0,0,3.013,3.013h2.26a3.013,3.013,0,0,0,3.013-3.013v-2.26A3.013,3.013,0,0,0,15.065,9.792Zm1.507,5.273a1.507,1.507,0,0,1-1.507,1.507h-2.26A1.507,1.507,0,0,1,11.3,15.065v-2.26A1.507,1.507,0,0,1,12.805,11.3h2.26a1.507,1.507,0,0,1,1.507,1.507Z" transform="translate(266 24)"/><rect width="1" height="3" rx="0.5" transform="translate(281.5 38.5) rotate(90)" opacity="0.44"/></g></svg>