<svg xmlns="http://www.w3.org/2000/svg" viewBox="0 0 23.394 14.214">
    <g transform="translate(8.366 2.246)">
        <g transform="translate(0 0)">
            <path
                d="M186.42,149.6a3.331,3.331,0,1,0,3.331,3.331A3.335,3.335,0,0,0,186.42,149.6Zm0,5.182a1.851,1.851,0,1,1,1.851-1.851A1.853,1.853,0,0,1,186.42,154.785Z"
                transform="translate(-183.089 -149.603)" fill="#7f7f7f" />
        </g>
    </g>
    <g transform="translate(6.737 7.403)">
        <g transform="translate(0 0)">
            <path
                d="M152.4,262.481a4.966,4.966,0,0,0-4.96,4.96v1.11a.74.74,0,0,0,1.481,0v-1.11a3.479,3.479,0,1,1,6.959,0v1.11a.74.74,0,0,0,1.481,0v-1.11A4.966,4.966,0,0,0,152.4,262.481Z"
                transform="translate(-147.443 -262.481)" fill="#7f7f7f" />
        </g>
    </g>
    <g transform="translate(15.102 0)">
        <path
            d="M333.863,100.456a3.331,3.331,0,1,0,3.331,3.331A3.335,3.335,0,0,0,333.863,100.456Zm0,5.182a1.851,1.851,0,1,1,1.851-1.851A1.853,1.853,0,0,1,333.863,105.638Z"
            transform="translate(-330.532 -100.456)" fill="#7f7f7f" />
    </g>
    <g transform="translate(13.597 5.157)">
        <g transform="translate(0 0)">
            <path
                d="M302.424,213.333a4.97,4.97,0,0,0-4.813,3.74.74.74,0,1,0,1.434.368,3.483,3.483,0,0,1,6.859.852V219.4a.74.74,0,1,0,1.481,0v-1.111A4.966,4.966,0,0,0,302.424,213.333Z"
                transform="translate(-297.587 -213.333)" fill="#7f7f7f" />
        </g>
    </g>
    <g transform="translate(1.629 0)">
        <path
            d="M38.977,100.456a3.331,3.331,0,1,0,3.331,3.331A3.335,3.335,0,0,0,38.977,100.456Zm0,5.182a1.851,1.851,0,1,1,1.851-1.851A1.853,1.853,0,0,1,38.977,105.638Z"
            transform="translate(-35.646 -100.456)" fill="#7f7f7f" />
    </g>
    <g transform="translate(0 5.158)">
        <g transform="translate(0 0)">
            <path
                d="M9.749,217.049A4.953,4.953,0,0,0,0,218.294v1.11a.74.74,0,0,0,1.481,0v-1.11a3.472,3.472,0,0,1,6.834-.877.74.74,0,0,0,1.434-.368Z"
                transform="translate(0 -213.334)" fill="#7f7f7f" />
        </g>
    </g>
</svg>