<svg xmlns="http://www.w3.org/2000/svg" viewBox="0 0 276.525 276.525">
    <g transform="translate(0 -0.001)">
        <g transform="translate(0 0.001)">
            <path
                d="M258.8,42.695h.54a98.052,98.052,0,0,1,98.248,98.736,10.8,10.8,0,0,0,10.75,10.853h.052a10.8,10.8,0,0,0,10.8-10.75A119.654,119.654,0,0,0,259.344,21.09h-.594a10.8,10.8,0,0,0,.05,21.6Z"
                transform="translate(-114.058 -9.7)" />
            <path
                d="M276.5,222.816a40.9,40.9,0,0,0-12.546-28.107c-15.085-14.546-27.724-22.944-39.775-26.426-16.608-4.8-31.987-.435-45.714,12.971l-.062.061-14.618,14.509c-9.079-5.1-26.73-16.325-46.034-35.63l-1.422-1.42a218.851,218.851,0,0,1-35.613-46.044l14.5-14.6.061-.062c13.406-13.726,17.77-29.107,12.971-45.713C104.76,40.3,96.363,27.659,81.816,12.574a41.1,41.1,0,0,0-57.045-2.057l-.31.279q-.216.194-.421.4C8.183,27.051-.129,49.249,0,75.39c.221,44.406,24.628,95.19,65.285,135.848l.1.1a263.605,263.605,0,0,0,25.8,22.45,10.8,10.8,0,0,0,13.145-17.144,241.537,241.537,0,0,1-23.766-20.683l-.1-.1C43.8,159.156,21.8,114.088,21.6,75.282,21.5,55.149,27.56,38.346,39.12,26.666l.083-.075a19.432,19.432,0,0,1,27.063.976c27.966,29,25.941,42.694,13.584,55.365L59.826,103.107a10.8,10.8,0,0,0-2.2,12c.508,1.142,12.8,28.315,43.431,58.941l1.422,1.42c30.622,30.623,57.8,42.919,58.937,43.428a10.8,10.8,0,0,0,12-2.2l20.17-20.02c12.674-12.359,26.366-14.387,55.369,13.581a19.431,19.431,0,0,1,.978,27.061l-.076.085c-11.585,11.466-28.209,17.517-48.123,17.517h-.493c-15.917-.079-34.349-4.443-53.3-12.618a10.8,10.8,0,1,0-8.557,19.837c21.907,9.449,42.683,14.289,61.75,14.384h.606c25.878,0,47.856-8.306,63.589-24.039.137-.137.27-.277.4-.421l.28-.312A40.907,40.907,0,0,0,276.5,222.816Z"
                transform="translate(0 -0.001)" />
            <path
                d="M333.918,128.47a59.366,59.366,0,0,0-28.052-16.14,10.8,10.8,0,1,0-5.758,20.822,37.781,37.781,0,0,1,18.534,10.594,38.6,38.6,0,0,1,10.489,18.193l.156.529A10.8,10.8,0,1,0,350,156.336l-.146-.5A59.445,59.445,0,0,0,333.918,128.47Z"
                transform="translate(-134.378 -51.481)" />
        </g>
    </g>
</svg>