<svg xmlns="http://www.w3.org/2000/svg" viewBox="0 0 150 150">
    <g transform="translate(-21638 24437.146)">
        <path
            d="M343.456,326.475,313.53,296.243a57.9,57.9,0,0,1-17.295,17.468l29.928,30.232a12.138,12.138,0,0,0,17.292,0A12.436,12.436,0,0,0,343.456,326.475Z"
            transform="translate(21440.961 -24634.709)" opacity="0.65" />
        <path
            d="M115.2,57.3a57.6,57.6,0,1,0-57.6,57.3A57.452,57.452,0,0,0,115.2,57.3ZM57.6,100.271A42.973,42.973,0,1,1,100.8,57.3,43.132,43.132,0,0,1,57.6,100.271Z"
            transform="translate(21637.998 -24437.146)" />
        <path
            d="M75.817,117.737H88.969c0-16.511,14.754-29.944,32.886-29.944V75.816C96.473,75.816,75.817,94.625,75.817,117.737Z"
            transform="translate(21585.334 -24489.344)" opacity="0.65" />
    </g>
</svg>