<svg id="Layer_1" enable-background="new 0 0 512 512" height="512" viewBox="0 0 512 512" width="512" xmlns="http://www.w3.org/2000/svg"><path d="m259 512h-139c-66.168 0-120-53.832-120-120v-272c0-66.168 53.832-120 120-120h6c11.046 0 20 8.954 20 20s-8.954 20-20 20h-6c-44.112 0-80 35.888-80 80v272c0 44.112 35.888 80 80 80h139c44.112 0 80-35.888 80-80v-33c0-11.046 8.954-20 20-20s20 8.954 20 20v33c0 66.168-53.832 120-120 120zm-78.858-217.858s9.858-11.195 24.142-11.195c4.914 0 9.875 1.048 14.483 3.342 18.274 9.098 38.014 13.711 58.668 13.71h.064 101.991.063c35.108 0 68.177-13.518 93.12-38.067 25.019-24.625 38.983-57.525 39.32-92.641 0-.064.001-.128.001-.192v-35.907c.316-35.603-13.235-69.067-38.166-94.238-24.879-25.12-58.202-38.954-93.828-38.954h-102c-35.384 0-68.659 13.922-93.696 39.2-25.014 25.255-38.613 58.631-38.299 93.993l-.005 146.807c0 8.089 4.873 15.382 12.346 18.478 2.475 1.025 5.072 1.523 7.649 1.523 5.205-.001 10.321-2.033 14.147-5.859zm97.304-34.142c-14.421 0-28.165-3.202-40.851-9.518-16.08-8.006-34.056-9.525-50.594-5.107 0 0 .003-112.403.003-112.467-.236-24.642 9.252-47.924 26.719-65.56 17.468-17.636 40.651-27.348 65.277-27.348h102c24.869 0 48.099 9.625 65.409 27.103 17.384 17.552 26.826 40.921 26.586 65.805 0 .064-.001 36.089-.001 36.089-.531 50.198-41.974 91.003-92.45 91.003-.013 0-.032 0-.044 0h-102.009c-.015 0-.03 0-.045 0zm122.554-124h-142c-11.046 0-20-8.954-20-20s8.954-20 20-20h142c11.046 0 20 8.954 20 20s-8.954 20-20 20zm-40 50c0-11.046-8.954-20-20-20h-82c-11.046 0-20 8.954-20 20s8.954 20 20 20h82c11.046 0 20-8.954 20-20zm-169 191c-13.807 0-25 11.193-25 25 0 13.807 11.193 25 25 25s25-11.193 25-25c0-13.807-11.193-25-25-25z"/></svg>