<svg xmlns="http://www.w3.org/2000/svg" viewBox="0 0 115 115">
    <path
        d="M65.454,28.279a9.946,9.946,0,0,1,18.931,0l7.035,21.2a10,10,0,0,0,9.2,6.889l22.067.6c9.285.253,13.23,12.085,6,17.988l-18.329,14.96a10.192,10.192,0,0,0-3.345,10.625l6.395,22.94c2.573,9.229-7.795,16.565-15.464,10.943L80.774,121.844a9.883,9.883,0,0,0-11.708,0L51.9,134.425c-7.67,5.622-18.037-1.715-15.464-10.943l6.395-22.94a10.192,10.192,0,0,0-3.345-10.625L21.158,74.957c-7.233-5.9-3.288-17.735,6-17.988l22.067-.6a10,10,0,0,0,9.2-6.889Z"
        transform="translate(-17.42 -21.387)" />
</svg>