<svg xmlns="http://www.w3.org/2000/svg" width="19.811" height="15.477" viewBox="0 0 19.811 15.477"><path d="M16.715,15.477H3.1a3.1,3.1,0,0,1-3.1-3.1V3.1A3.1,3.1,0,0,1,3.1,0h13.62a3.1,3.1,0,0,1,3.1,3.1V8.512a.774.774,0,1,1-1.548,0V3.1a1.55,1.55,0,0,0-1.548-1.548H3.1A1.55,1.55,0,0,0,1.548,3.1v9.286A1.55,1.55,0,0,0,3.1,13.929h13.62a1.55,1.55,0,0,0,1.548-1.548.774.774,0,1,1,1.548,0A3.1,3.1,0,0,1,16.715,15.477ZM8.21,8.977a.764.764,0,0,0-.715.509,1.471,1.471,0,0,1-2.851-.509V6.528a1.488,1.488,0,0,1,1.435-1.5A1.473,1.473,0,0,1,7.495,6a.761.761,0,0,0,.712.5h.04a.754.754,0,0,0,.714-1A3.023,3.023,0,0,0,6.084,3.482,3.066,3.066,0,0,0,3.1,6.539v2.4A3.018,3.018,0,0,0,8.959,9.982a.756.756,0,0,0-.715-1.005Zm7.584,0a.764.764,0,0,0-.715.509,1.471,1.471,0,0,1-2.851-.509V6.528a1.488,1.488,0,0,1,1.435-1.5A1.473,1.473,0,0,1,15.078,6a.761.761,0,0,0,.712.5h.04a.754.754,0,0,0,.714-1,3.023,3.023,0,0,0-2.877-2.015,3.066,3.066,0,0,0-2.988,3.056v2.4a3.018,3.018,0,0,0,5.864,1.044.756.756,0,0,0-.715-1.005Zm0,0" fill="rgba(0,0,0,0.5)"/></svg>