<svg xmlns="http://www.w3.org/2000/svg" width="20.819" height="20.819" viewBox="0 0 20.819 20.819"><path d="M6.506,11.264v8.742a.813.813,0,0,1-1.627,0V11.264a.813.813,0,0,1,1.627,0ZM8.742,3.253h7.2A1.628,1.628,0,0,1,17.566,4.88v3.66a.813.813,0,1,0,1.627,0V4.88A3.257,3.257,0,0,0,15.94,1.627h-7.2a.813.813,0,1,0,0,1.627ZM2.44,13.337a.814.814,0,0,1-.813-.813V8.092a.814.814,0,0,1,.813-.813h3.2a.812.812,0,0,1,.653.328l2.256,4.509A.813.813,0,1,0,10,11.388L7.716,6.826a.821.821,0,0,0-.051-.087A2.434,2.434,0,0,0,5.771,5.656c-.026,0-3.332,0-3.332,0A2.443,2.443,0,0,0,0,8.092v4.432a2.444,2.444,0,0,0,1.627,2.3v5.182a.813.813,0,0,0,1.627,0V14.151A.813.813,0,0,0,2.44,13.337ZM1.627,2.44a2.44,2.44,0,1,1,2.44,2.44A2.443,2.443,0,0,1,1.627,2.44Zm1.627,0a.813.813,0,1,0,.813-.813A.814.814,0,0,0,3.253,2.44ZM20.006,13.825h-.813v-1.22a.813.813,0,0,0-1.627,0v1.22H8.946a.813.813,0,0,0,0,1.627h11.06a.813.813,0,1,0,0-1.627Z" fill="rgba(0,0,0,0.5)"/></svg>