<svg xmlns="http://www.w3.org/2000/svg" viewBox="0 0 23.988 23.988">
    <path
        d="M0,372v3.982a2.58,2.58,0,0,0,2.577,2.577H21.412a2.58,2.58,0,0,0,2.577-2.577V372Zm20.428,3.982H14.571v.234a.7.7,0,1,1-1.406,0v-.234h-9.6a.7.7,0,0,1,0-1.406h9.6v-.234a.7.7,0,1,1,1.406,0v.234h5.857a.7.7,0,0,1,0,1.406Z"
        transform="translate(0 -354.571)" fill="#ffc50c" />
    <path d="M139.16,107.245l5.474,1.61,5.474-1.61-5.474-1.61Z" transform="translate(-132.64 -100.686)"
        fill="#ffc50c" />
    <path
        d="M174.982,181.777a.7.7,0,0,1-.2-.029L171,180.635v2.547h7.965v-2.547l-3.784,1.113A.7.7,0,0,1,174.982,181.777Z"
        transform="translate(-162.988 -172.172)" fill="#ffc50c" />
    <path
        d="M21.412,0H2.577A2.58,2.58,0,0,0,0,2.577V16.023H23.988V2.577A2.58,2.58,0,0,0,21.412,0Zm-.75,10.776a.7.7,0,1,1-1.406,0V7.5l-1.874.551v3.663a.7.7,0,0,1-.7.7H7.309a.7.7,0,0,1-.7-.7V8.05L3.831,7.234a.7.7,0,0,1,0-1.349L11.8,3.542a.7.7,0,0,1,.4,0l7.965,2.343a.7.7,0,0,1,.5.674Z"
        fill="#ffc50c" />
</svg>