<svg xmlns="http://www.w3.org/2000/svg" viewBox="0 0 102.87 118.339">
    <g transform="translate(0)">
        <path
            d="M119.706,74.429a30.691,30.691,0,0,0,5.257-17.21V46.932c0-17.02-12.741-25.755-29.761-25.755S63.241,29.912,63.241,46.932V57.219A30.69,30.69,0,0,0,68.5,74.429a51.375,51.375,0,0,0-25.831,44.512v5.143A15.449,15.449,0,0,0,58.1,139.515h72.009a15.449,15.449,0,0,0,15.431-15.431v-5.143A51.375,51.375,0,0,0,119.706,74.429Zm-46.178-27.5c0-11.347,10.328-15.468,21.674-15.468s19.473,4.122,19.473,15.468V57.219c0,9.35-6.265,19.827-15.109,23.338A15.08,15.08,0,0,1,94.1,81.574c-11.346,0-20.574-13.008-20.574-24.355Zm61.722,77.153a5.152,5.152,0,0,1-5.143,5.143H58.1a5.152,5.152,0,0,1-5.143-5.143v-5.143A41.183,41.183,0,0,1,75.874,82.067c4.453,3.271,9.114,5.944,18.229,5.944a41.607,41.607,0,0,0,5.81-.376c5.185-.7,8.468-2.666,12.419-5.569a41.183,41.183,0,0,1,22.919,36.874v5.143Z"
            transform="translate(-42.667 -21.177)" fill="#222" />
        <rect width="9.379" height="42.909" rx="4.69" transform="translate(58.896 91.146) rotate(90)" fill="#222"
            opacity="0.45" />
    </g>
</svg>