<svg xmlns="http://www.w3.org/2000/svg" width="15.866" height="17.956" viewBox="0 0 15.866 17.956"><path d="M8.8,9.536c.059,0,.119,0,.179,0s.111,0,.166,0a16.109,16.109,0,0,1,5.066,1.8.7.7,0,0,0,.954-.272c.188-.339-.272-.954-.272-.954s-2.514-1.339-3.059-1.518a4.77,4.77,0,1,0-5.709,0,9.121,9.121,0,0,0-6.079,6.8,2.131,2.131,0,0,0,2.083,2.57H15.163a.7.7,0,0,0,0-1.4H2.127a.713.713,0,0,1-.561-.267.733.733,0,0,1-.149-.614A7.75,7.75,0,0,1,8.8,9.536ZM5.61,4.77A3.367,3.367,0,1,1,9.144,8.133l-.167,0-.164,0A3.371,3.371,0,0,1,5.61,4.77Z" transform="translate(0.001 -0.001)" fill="#d5d5d5"/></svg>