<svg xmlns="http://www.w3.org/2000/svg" viewBox="0 0 23.749 23.842">
    <g transform="translate(-1)">
        <path d="M243.522,105.054v2.653l1.929-1.318Z" transform="translate(-231.229 -100.162)" fill="#ff5170" />
        <path
            d="M81.695,10.478a2.187,2.187,0,0,1,2.074,2.887h3.3a2.189,2.189,0,1,1,4.147,0h3.3a2.187,2.187,0,0,1,2.772-2.772h0V2.1A2.1,2.1,0,0,0,95.2,0H83.092A2.1,2.1,0,0,0,81,2.1v8.5h0A2.177,2.177,0,0,1,81.695,10.478Zm5.473-6.055a1.151,1.151,0,0,1,1.806-.947l2.61,1.805h0a1.151,1.151,0,0,1-.005,1.9l-2.61,1.783a1.151,1.151,0,0,1-1.8-.95V4.423Z"
            transform="translate(-76.271)" fill="#ff5170" />
        <ellipse cx="1" cy="0.5" rx="1" ry="0.5" transform="translate(19 12)" fill="#ff5170" />
        <ellipse cx="1" cy="0.5" rx="1" ry="0.5" transform="translate(12 12)" fill="#ff5170" />
        <circle cx="0.5" cy="0.5" r="0.5" transform="translate(5 12)" fill="#ff5170" />
        <path
            d="M71,319.792v2.282h2.328v-2.282a.688.688,0,0,0-.285-.507,1.426,1.426,0,0,0-.879-.285C71.544,319,71,319.37,71,319.792Z"
            transform="translate(-66.74 -304.145)" fill="#ff5170" />
        <path
            d="M22.886,385.013v.685a.7.7,0,0,1-.7.7H18.463a.7.7,0,0,1-.7-.7V385H15.436v.7a.7.7,0,0,1-.7.7H11.012a.7.7,0,0,1-.7-.7V385H7.985v.7a.7.7,0,0,1-.7.7H3.561a.7.7,0,0,1-.7-.7v-.685A2.1,2.1,0,0,0,1,387.1v1.723a2.1,2.1,0,0,0,2.1,2.1H22.654a2.1,2.1,0,0,0,2.1-2.1V387.1A2.1,2.1,0,0,0,22.886,385.013Z"
            transform="translate(0 -367.072)" fill="#ff5170" />
        <path
            d="M231,319.792v2.282h2.328v-2.282a.688.688,0,0,0-.285-.507,1.426,1.426,0,0,0-.879-.285C231.544,319,231,319.37,231,319.792Z"
            transform="translate(-219.29 -304.145)" fill="#ff5170" />
        <path
            d="M391,319.792v2.282h2.328v-2.282a.688.688,0,0,0-.285-.507,1.426,1.426,0,0,0-.879-.285C391.544,319,391,319.37,391,319.792Z"
            transform="translate(-371.839 -304.145)" fill="#ff5170" />
    </g>
</svg>