<svg xmlns="http://www.w3.org/2000/svg" viewBox="0 0 100 99.209">
    <path
        d="M50,99.208h-.02A50.093,50.093,0,0,1,27.51,93.869L6.142,98.73A3.907,3.907,0,0,1,1.46,94.082l4.63-21.046A49.376,49.376,0,0,1,0,49.665c0-.027,0-.055,0-.082A49.045,49.045,0,0,1,14.721,14.524a50.026,50.026,0,0,1,70.5.012A49.019,49.019,0,0,1,91.4,77.349a3.906,3.906,0,0,1-6.448-4.412A41.207,41.207,0,0,0,79.71,20.07a42.173,42.173,0,0,0-71.9,29.443c0,.025,0,.05,0,.074A41.751,41.751,0,0,0,13.6,70.463a3.9,3.9,0,0,1,.436,2.8L10.414,89.746l16.766-3.814a3.914,3.914,0,0,1,2.731.376A42.227,42.227,0,0,0,49.981,91.4H50A42.264,42.264,0,0,0,71.634,85.44a3.906,3.906,0,0,1,4,6.71A50.079,50.079,0,0,1,50,99.209ZM38.967,29.73c-.857-1.9-1.759-1.963-2.573-2H34.2a4.206,4.206,0,0,0-3.049,1.426,12.761,12.761,0,0,0-4,9.506c0,5.608,4.1,11.028,4.67,11.79s7.912,12.637,19.537,17.206c9.661,3.8,11.627,3.042,13.724,2.851s6.767-2.756,7.719-5.418.954-4.942.668-5.419-1.048-.76-2.192-1.33-6.75-3.375-7.8-3.755-1.81-.57-2.573.571-3.009,3.776-3.677,4.536-1.334.857-2.478.287a31.633,31.633,0,0,1-9.159-5.679,35.037,35.037,0,0,1-6.427-8.016c-.668-1.14-.072-1.758.5-2.326.513-.51,1.208-1.208,1.781-1.874a7.672,7.672,0,0,0,1.115-1.9,2.093,2.093,0,0,0-.095-2c-.286-.57-2.482-6.207-3.5-8.461" />
</svg>