<svg xmlns="http://www.w3.org/2000/svg" xmlns:xlink="http://www.w3.org/1999/xlink" width="136.786" height="78.975"
    viewBox="0 0 136.786 78.975">
    <defs>
        <clipPath id="a">
            <rect width="50.324" height="44.23" fill="none" />
        </clipPath>
    </defs>
    <g transform="translate(-255.998 -435.5)">
        <path
            d="M12.253,66.858a4.775,4.775,0,1,1,0-9.551h95.88a4.775,4.775,0,1,1,0,9.551Zm10.673-9.551a4.776,4.776,0,0,1,0-9.552h93.656a4.776,4.776,0,0,1,0,9.552ZM4.775,47.756a4.775,4.775,0,1,1,0-9.551h25.85a4.776,4.776,0,0,0,.083-9.551H23.273a4.776,4.776,0,0,1,0-9.552h90.308a4.743,4.743,0,0,1,1.84.367h-4.466a4.777,4.777,0,0,0-1.844,9.183h22.9a4.776,4.776,0,0,1,0,9.552H94.665a4.777,4.777,0,0,0,0,9.549v0ZM12.253,19.1a4.776,4.776,0,0,1,0-9.552H116.582a4.776,4.776,0,1,1,0,9.552Zm11.02-9.552a4.775,4.775,0,1,1,0-9.551h101.39a4.775,4.775,0,0,1,0,9.551Z"
            transform="translate(255.998 447.616)" preserve--fill="#e7f6ea" />
        <g transform="translate(281.859 449.967)">
            <line y2="1.864" transform="translate(4.473 2.236) rotate(90)" preserve--fill="none" stroke="#50b59a"
                stroke-width="1" />
            <line y2="1.864" transform="translate(2.236)" preserve--fill="none" stroke="#50b59a" stroke-width="1" />
            <line y2="1.864" transform="translate(2.236 2.609)" preserve--fill="none" stroke="#50b59a"
                stroke-width="1" />
            <line y2="1.864" transform="translate(1.864 2.236) rotate(90)" preserve--fill="none" stroke="#50b59a"
                stroke-width="1" />
        </g>
        <g transform="translate(297.591 437.489)">
            <circle cx="0.61" cy="0.61" r="0.61" transform="translate(2.438 0)" preserve--fill="#6eca3d" />
            <circle cx="0.61" cy="0.61" r="0.61" transform="translate(2.438 4.877)" preserve--fill="#6eca3d" />
            <circle cx="0.61" cy="0.61" r="0.61" transform="translate(4.877 2.438)" preserve--fill="#6eca3d" />
            <circle cx="0.61" cy="0.61" r="0.61" transform="translate(0 2.438)" preserve--fill="#6eca3d" />
        </g>
        <g transform="translate(356.114 451.888)">
            <circle cx="0.543" cy="0.543" r="0.543" transform="matrix(0.914, -0.407, 0.407, 0.914, 1.906, 1.247)"
                preserve--fill="#c5e8cb" />
            <circle cx="0.543" cy="0.543" r="0.543" transform="matrix(0.914, -0.407, 0.407, 0.914, 3.671, 5.212)"
                preserve--fill="#c5e8cb" />
            <circle cx="0.543" cy="0.543" r="0.543" transform="matrix(0.914, -0.407, 0.407, 0.914, 4.771, 2.347)"
                preserve--fill="#c5e8cb" />
            <circle cx="0.543" cy="0.543" r="0.543" transform="matrix(0.914, -0.407, 0.407, 0.914, 0.806, 4.112)"
                preserve--fill="#c5e8cb" />
            <g transform="translate(0 5.065) rotate(-69)">
                <circle cx="0.543" cy="0.543" r="0.543" transform="translate(2.17 0)" preserve--fill="#c5e8cb" />
                <circle cx="0.543" cy="0.543" r="0.543" transform="translate(2.17 4.34)" preserve--fill="#c5e8cb" />
                <circle cx="0.543" cy="0.543" r="0.543" transform="translate(4.34 2.17)" preserve--fill="#c5e8cb" />
                <circle cx="0.543" cy="0.543" r="0.543" transform="translate(0 2.17)" preserve--fill="#c5e8cb" />
            </g>
        </g>
        <g transform="translate(281.859 435.5)">
            <line y2="3.218" transform="translate(7.723 3.862) rotate(90)" preserve--fill="none" stroke="#3591ea"
                stroke-width="1" />
            <line y2="3.218" transform="translate(3.862)" preserve--fill="none" stroke="#3591ea" stroke-width="1" />
            <line y2="3.218" transform="translate(3.862 4.505)" preserve--fill="none" stroke="#3591ea"
                stroke-width="1" />
            <line y2="3.218" transform="translate(3.218 3.862) rotate(90)" preserve--fill="none" stroke="#3591ea"
                stroke-width="1" />
        </g>
        <line y1="11.935" x2="8.68" transform="translate(334.663 442.01)" preserve--fill="none" stroke="#9fd9a9"
            stroke-linecap="round" stroke-width="2" />
        <line y1="3.617" x2="4.34" transform="translate(341.173 452.86)" preserve--fill="none" stroke="#9fd9a9"
            stroke-linecap="round" stroke-width="2" />
        <line x1="0.362" y1="3.978" transform="translate(327.43 443.095)" preserve--fill="none" stroke="#9fd9a9"
            stroke-linecap="round" stroke-width="2" />
        <line x1="3.255" y1="4.34" transform="translate(316.579 449.605)" preserve--fill="none" stroke="#9fd9a9"
            stroke-linecap="round" stroke-width="2" />
        <line x1="1.77" y1="2.207" transform="translate(312.601 444.904)" preserve--fill="none" stroke="#9fd9a9"
            stroke-linecap="round" stroke-width="2" />
        <g transform="translate(327.249 451.595)" preserve--fill="#fff" stroke="#9fd9a9" stroke-width="2">
            <circle cx="0.904" cy="0.904" r="0.904" stroke="none" />
            <circle cx="0.904" cy="0.904" r="0.096" preserve--fill="none" />
        </g>
        <g transform="translate(297.591 458.897)" clip-path="url(#a)">
            <path
                d="M16.214,29.487H42.953a1.475,1.475,0,0,0,1.418-1.069l5.9-20.641A1.474,1.474,0,0,0,48.85,5.9H12.814L11.76,1.155A1.475,1.475,0,0,0,10.32,0H1.474a1.474,1.474,0,1,0,0,2.949H9.138L14.461,26.9a4.423,4.423,0,0,0,1.757,8.481H42.953a1.474,1.474,0,0,0,0-2.949H16.218a1.474,1.474,0,0,1,0-2.948ZM46.9,8.846,41.84,26.538H17.4L13.469,8.846Zm0,0"
                transform="translate(0 0)" preserve--fill="#57c06d" />
            <path
                d="M150,364.423A4.423,4.423,0,1,0,154.423,360,4.428,4.428,0,0,0,150,364.423Zm4.423-1.474a1.474,1.474,0,1,1-1.474,1.474A1.476,1.476,0,0,1,154.423,362.949Zm0,0"
                transform="translate(-135.256 -324.616)" preserve--fill="#57c06d" />
            <path
                d="M362,364.423A4.423,4.423,0,1,0,366.423,360,4.428,4.428,0,0,0,362,364.423Zm4.423-1.474a1.474,1.474,0,1,1-1.474,1.474A1.476,1.476,0,0,1,366.423,362.949Zm0,0"
                transform="translate(-326.419 -324.616)" preserve--fill="#57c06d" />
        </g>
        <line x2="4.34" transform="translate(302.112 474.199)" preserve--fill="none" stroke="#57c06d"
            stroke-linecap="round" stroke-width="3" />
        <line x2="13.382" transform="translate(294.517 481.681)" preserve--fill="none" stroke="#57c06d"
            stroke-linecap="round" stroke-width="3" />
        <line x2="6.872" transform="translate(299.581 488.332)" preserve--fill="none" stroke="#57c06d"
            stroke-linecap="round" stroke-width="3" />
        <g transform="translate(351.3 439.478)">
            <g transform="translate(0 0)">
                <line y2="1.864" transform="translate(4.473 2.236) rotate(90)" preserve--fill="none" stroke="#3591ea"
                    stroke-width="1" />
                <line y2="1.864" transform="translate(2.236)" preserve--fill="none" stroke="#3591ea" stroke-width="1" />
                <line y2="1.864" transform="translate(2.236 2.609)" preserve--fill="none" stroke="#3591ea"
                    stroke-width="1" />
                <line y2="1.864" transform="translate(1.864 2.236) rotate(90)" preserve--fill="none" stroke="#3591ea"
                    stroke-width="1" />
            </g>
        </g>
        <path d="M2.559,2.558A2.562,2.562,0,0,1,0,0H5.117A2.561,2.561,0,0,1,2.559,2.558Z"
            transform="translate(324.717 477.608)" preserve--fill="#57c06d" />
        <g transform="translate(330.142 474.742)" preserve--fill="#57c06d" stroke="#57c06d" stroke-width="2">
            <circle cx="1.447" cy="1.447" r="1.447" stroke="none" />
            <circle cx="1.447" cy="1.447" r="0.447" preserve--fill="none" />
        </g>
        <rect width="3.617" height="1.447" transform="translate(329.781 476.189)" preserve--fill="#e7f6ea" />
        <g transform="translate(321.1 474.742)">
            <g transform="translate(0.362)" preserve--fill="#57c06d" stroke="#57c06d" stroke-width="2">
                <circle cx="1.447" cy="1.447" r="1.447" stroke="none" />
                <circle cx="1.447" cy="1.447" r="0.447" preserve--fill="none" />
            </g>
            <rect width="3.617" height="1.447" transform="translate(0 1.447)" preserve--fill="#e7f6ea" />
        </g>
    </g>
</svg>