<svg xmlns="http://www.w3.org/2000/svg" width="136.786" height="78.975" viewBox="0 0 136.786 78.975">
    <g transform="translate(-255.998 -435.5)">
        <path
            d="M12.253,66.858a4.775,4.775,0,1,1,0-9.551h95.88a4.775,4.775,0,1,1,0,9.551Zm10.673-9.551a4.776,4.776,0,0,1,0-9.552h93.656a4.776,4.776,0,0,1,0,9.552ZM4.775,47.756a4.775,4.775,0,1,1,0-9.551h25.85a4.776,4.776,0,0,0,.083-9.551H23.273a4.776,4.776,0,0,1,0-9.552h90.308a4.743,4.743,0,0,1,1.84.367h-4.466a4.777,4.777,0,0,0-1.844,9.183h22.9a4.776,4.776,0,0,1,0,9.552H94.665a4.777,4.777,0,0,0,0,9.549v0ZM12.253,19.1a4.776,4.776,0,0,1,0-9.552H116.582a4.776,4.776,0,1,1,0,9.552Zm11.02-9.552a4.775,4.775,0,1,1,0-9.551h101.39a4.775,4.775,0,0,1,0,9.551Z"
            transform="translate(255.998 447.616)" preserve--fill="#e7f6ea" />
        <g transform="translate(281.859 449.967)">
            <line y2="1.864" transform="translate(4.473 2.236) rotate(90)" preserve--fill="none" stroke="#50b59a"
                stroke-width="1" />
            <line y2="1.864" transform="translate(2.236)" preserve--fill="none" stroke="#50b59a" stroke-width="1" />
            <line y2="1.864" transform="translate(2.236 2.609)" preserve--fill="none" stroke="#50b59a"
                stroke-width="1" />
            <line y2="1.864" transform="translate(1.864 2.236) rotate(90)" preserve--fill="none" stroke="#50b59a"
                stroke-width="1" />
        </g>
        <g transform="translate(297.591 437.489)">
            <circle cx="0.61" cy="0.61" r="0.61" transform="translate(2.438 0)" preserve--fill="#6eca3d" />
            <circle cx="0.61" cy="0.61" r="0.61" transform="translate(2.438 4.877)" preserve--fill="#6eca3d" />
            <circle cx="0.61" cy="0.61" r="0.61" transform="translate(4.877 2.438)" preserve--fill="#6eca3d" />
            <circle cx="0.61" cy="0.61" r="0.61" transform="translate(0 2.438)" preserve--fill="#6eca3d" />
        </g>
        <g transform="translate(356.114 451.888)">
            <circle cx="0.543" cy="0.543" r="0.543" transform="matrix(0.914, -0.407, 0.407, 0.914, 1.906, 1.247)"
                preserve--fill="#c5e8cb" />
            <circle cx="0.543" cy="0.543" r="0.543" transform="matrix(0.914, -0.407, 0.407, 0.914, 3.671, 5.212)"
                preserve--fill="#c5e8cb" />
            <circle cx="0.543" cy="0.543" r="0.543" transform="matrix(0.914, -0.407, 0.407, 0.914, 4.771, 2.347)"
                preserve--fill="#c5e8cb" />
            <circle cx="0.543" cy="0.543" r="0.543" transform="matrix(0.914, -0.407, 0.407, 0.914, 0.806, 4.112)"
                preserve--fill="#c5e8cb" />
            <g transform="translate(0 5.065) rotate(-69)">
                <circle cx="0.543" cy="0.543" r="0.543" transform="translate(2.17 0)" preserve--fill="#c5e8cb" />
                <circle cx="0.543" cy="0.543" r="0.543" transform="translate(2.17 4.34)" preserve--fill="#c5e8cb" />
                <circle cx="0.543" cy="0.543" r="0.543" transform="translate(4.34 2.17)" preserve--fill="#c5e8cb" />
                <circle cx="0.543" cy="0.543" r="0.543" transform="translate(0 2.17)" preserve--fill="#c5e8cb" />
            </g>
        </g>
        <g transform="translate(281.859 435.5)">
            <line y2="3.218" transform="translate(7.723 3.862) rotate(90)" preserve--fill="none" stroke="#3591ea"
                stroke-width="1" />
            <line y2="3.218" transform="translate(3.862)" preserve--fill="none" stroke="#3591ea" stroke-width="1" />
            <line y2="3.218" transform="translate(3.862 4.505)" preserve--fill="none" stroke="#3591ea"
                stroke-width="1" />
            <line y2="3.218" transform="translate(3.218 3.862) rotate(90)" preserve--fill="none" stroke="#3591ea"
                stroke-width="1" />
        </g>
        <line y1="11.935" x2="8.68" transform="translate(334.663 442.01)" preserve--fill="none" stroke="#9fd9a9"
            stroke-linecap="round" stroke-width="2" />
        <line y1="3.617" x2="4.34" transform="translate(341.173 452.86)" preserve--fill="none" stroke="#9fd9a9"
            stroke-linecap="round" stroke-width="2" />
        <line x1="0.362" y1="3.978" transform="translate(327.43 443.095)" preserve--fill="none" stroke="#9fd9a9"
            stroke-linecap="round" stroke-width="2" />
        <line x1="3.255" y1="4.34" transform="translate(316.579 449.605)" preserve--fill="none" stroke="#9fd9a9"
            stroke-linecap="round" stroke-width="2" />
        <line x1="1.77" y1="2.207" transform="translate(312.601 444.904)" preserve--fill="none" stroke="#9fd9a9"
            stroke-linecap="round" stroke-width="2" />
        <g transform="translate(327.249 451.595)" preserve--fill="#fff" stroke="#9fd9a9" stroke-width="2">
            <circle cx="0.904" cy="0.904" r="0.904" stroke="none" />
            <circle cx="0.904" cy="0.904" r="0.096" preserve--fill="none" />
        </g>
        <line x2="4.34" transform="translate(302.112 474.199)" preserve--fill="none" stroke="#57c06d"
            stroke-linecap="round" stroke-width="2" />
        <line x2="13.382" transform="translate(294.517 481.681)" preserve--fill="none" stroke="#57c06d"
            stroke-linecap="round" stroke-width="2" />
        <line x2="6.872" transform="translate(299.581 488.332)" preserve--fill="none" stroke="#57c06d"
            stroke-linecap="round" stroke-width="2" />
        <g transform="translate(351.3 439.478)">
            <g transform="translate(0 0)">
                <line y2="1.864" transform="translate(4.473 2.236) rotate(90)" preserve--fill="none" stroke="#3591ea"
                    stroke-width="1" />
                <line y2="1.864" transform="translate(2.236)" preserve--fill="none" stroke="#3591ea" stroke-width="1" />
                <line y2="1.864" transform="translate(2.236 2.609)" preserve--fill="none" stroke="#3591ea"
                    stroke-width="1" />
                <line y2="1.864" transform="translate(1.864 2.236) rotate(90)" preserve--fill="none" stroke="#3591ea"
                    stroke-width="1" />
            </g>
        </g>
        <g transform="translate(310.998 464.487)">
            <path
                d="M28.871,0H3.475A3.479,3.479,0,0,0,0,3.475v25.4a3.479,3.479,0,0,0,3.475,3.475h25.4a3.479,3.479,0,0,0,3.475-3.475V3.475A3.479,3.479,0,0,0,28.871,0ZM1.9,3.475A1.581,1.581,0,0,1,3.475,1.9h25.4A1.581,1.581,0,0,1,30.45,3.475V21.606H1.9Zm28.555,25.4a1.581,1.581,0,0,1-1.579,1.579H3.475A1.581,1.581,0,0,1,1.9,28.871V23.5H30.45Z"
                preserve--fill="#57c06d" />
            <path
                d="M61.948,395.159H74.9v.316a.948.948,0,0,0,1.9,0v-.316h7.9a.948.948,0,1,0,0-1.9h-7.9v-.316a.948.948,0,1,0-1.9,0v.316H61.948a.948.948,0,1,0,0,1.9Z"
                transform="translate(-57.146 -367.235)" preserve--fill="#57c06d" />
            <path
                d="M93.695,83.2l-10.74-3.159a.947.947,0,0,0-.535,0L71.68,83.2a.948.948,0,0,0,0,1.818l3.742,1.1v4.94A.948.948,0,0,0,76.37,92H89a.948.948,0,0,0,.948-.948v-4.94l2.527-.743v4.419a.948.948,0,0,0,1.9,0V84.106A.948.948,0,0,0,93.695,83.2Zm-5.637,6.911H77.318V86.673l5.1,1.5a.948.948,0,0,0,.535,0l5.1-1.5Zm-5.37-3.831-7.381-2.171,7.381-2.171,7.381,2.171Z"
                transform="translate(-66.515 -74.945)" preserve--fill="#57c06d" />
        </g>
    </g>
</svg>